%TF.GenerationSoftware,KiCad,Pcbnew,5.1.12-84ad8e8a86~92~ubuntu20.04.1*%
%TF.CreationDate,2022-06-17T21:56:11+02:00*%
%TF.ProjectId,bkm-68x-simple-hv-addon,626b6d2d-3638-4782-9d73-696d706c652d,rev?*%
%TF.SameCoordinates,Original*%
%TF.FileFunction,Legend,Top*%
%TF.FilePolarity,Positive*%
%FSLAX46Y46*%
G04 Gerber Fmt 4.6, Leading zero omitted, Abs format (unit mm)*
G04 Created by KiCad (PCBNEW 5.1.12-84ad8e8a86~92~ubuntu20.04.1) date 2022-06-17 21:56:11*
%MOMM*%
%LPD*%
G01*
G04 APERTURE LIST*
%ADD10C,0.250000*%
%ADD11C,0.300000*%
%ADD12C,0.120000*%
%ADD13C,0.500000*%
%ADD14C,0.200000*%
%ADD15C,0.150000*%
G04 APERTURE END LIST*
D10*
X109426457Y-132933614D02*
X110626457Y-132533614D01*
X109426457Y-132133614D01*
X110569314Y-131790757D02*
X110626457Y-131619328D01*
X110626457Y-131333614D01*
X110569314Y-131219328D01*
X110512171Y-131162185D01*
X110397885Y-131105042D01*
X110283600Y-131105042D01*
X110169314Y-131162185D01*
X110112171Y-131219328D01*
X110055028Y-131333614D01*
X109997885Y-131562185D01*
X109940742Y-131676471D01*
X109883600Y-131733614D01*
X109769314Y-131790757D01*
X109655028Y-131790757D01*
X109540742Y-131733614D01*
X109483600Y-131676471D01*
X109426457Y-131562185D01*
X109426457Y-131276471D01*
X109483600Y-131105042D01*
X110055028Y-130362185D02*
X110626457Y-130362185D01*
X109426457Y-130762185D02*
X110055028Y-130362185D01*
X109426457Y-129962185D01*
X110626457Y-129562185D02*
X109426457Y-129562185D01*
X110626457Y-128876471D01*
X109426457Y-128876471D01*
X110512171Y-127619328D02*
X110569314Y-127676471D01*
X110626457Y-127847900D01*
X110626457Y-127962185D01*
X110569314Y-128133614D01*
X110455028Y-128247900D01*
X110340742Y-128305042D01*
X110112171Y-128362185D01*
X109940742Y-128362185D01*
X109712171Y-128305042D01*
X109597885Y-128247900D01*
X109483600Y-128133614D01*
X109426457Y-127962185D01*
X109426457Y-127847900D01*
X109483600Y-127676471D01*
X109540742Y-127619328D01*
X110626457Y-126190757D02*
X109426457Y-126190757D01*
X110626457Y-125619328D02*
X109426457Y-125619328D01*
X110626457Y-124933614D01*
X109426457Y-124933614D01*
X123447071Y-143288285D02*
X123047071Y-143288285D01*
X123047071Y-143916857D02*
X123047071Y-142716857D01*
X123618500Y-142716857D01*
X124075642Y-143916857D02*
X124075642Y-142716857D01*
X124532785Y-142716857D01*
X124647071Y-142774000D01*
X124704214Y-142831142D01*
X124761357Y-142945428D01*
X124761357Y-143116857D01*
X124704214Y-143231142D01*
X124647071Y-143288285D01*
X124532785Y-143345428D01*
X124075642Y-143345428D01*
X125904214Y-142774000D02*
X125789928Y-142716857D01*
X125618500Y-142716857D01*
X125447071Y-142774000D01*
X125332785Y-142888285D01*
X125275642Y-143002571D01*
X125218500Y-143231142D01*
X125218500Y-143402571D01*
X125275642Y-143631142D01*
X125332785Y-143745428D01*
X125447071Y-143859714D01*
X125618500Y-143916857D01*
X125732785Y-143916857D01*
X125904214Y-143859714D01*
X125961357Y-143802571D01*
X125961357Y-143402571D01*
X125732785Y-143402571D01*
X126418500Y-143574000D02*
X126989928Y-143574000D01*
X126304214Y-143916857D02*
X126704214Y-142716857D01*
X127104214Y-143916857D01*
X121675642Y-144766857D02*
X122075642Y-145966857D01*
X122475642Y-144766857D01*
X122818500Y-145909714D02*
X122989928Y-145966857D01*
X123275642Y-145966857D01*
X123389928Y-145909714D01*
X123447071Y-145852571D01*
X123504214Y-145738285D01*
X123504214Y-145624000D01*
X123447071Y-145509714D01*
X123389928Y-145452571D01*
X123275642Y-145395428D01*
X123047071Y-145338285D01*
X122932785Y-145281142D01*
X122875642Y-145224000D01*
X122818500Y-145109714D01*
X122818500Y-144995428D01*
X122875642Y-144881142D01*
X122932785Y-144824000D01*
X123047071Y-144766857D01*
X123332785Y-144766857D01*
X123504214Y-144824000D01*
X124247071Y-145395428D02*
X124247071Y-145966857D01*
X123847071Y-144766857D02*
X124247071Y-145395428D01*
X124647071Y-144766857D01*
X125047071Y-145966857D02*
X125047071Y-144766857D01*
X125732785Y-145966857D01*
X125732785Y-144766857D01*
X126989928Y-145852571D02*
X126932785Y-145909714D01*
X126761357Y-145966857D01*
X126647071Y-145966857D01*
X126475642Y-145909714D01*
X126361357Y-145795428D01*
X126304214Y-145681142D01*
X126247071Y-145452571D01*
X126247071Y-145281142D01*
X126304214Y-145052571D01*
X126361357Y-144938285D01*
X126475642Y-144824000D01*
X126647071Y-144766857D01*
X126761357Y-144766857D01*
X126932785Y-144824000D01*
X126989928Y-144881142D01*
D11*
X123308228Y-136084571D02*
X124236800Y-136084571D01*
X123736800Y-136656000D01*
X123951085Y-136656000D01*
X124093942Y-136727428D01*
X124165371Y-136798857D01*
X124236800Y-136941714D01*
X124236800Y-137298857D01*
X124165371Y-137441714D01*
X124093942Y-137513142D01*
X123951085Y-137584571D01*
X123522514Y-137584571D01*
X123379657Y-137513142D01*
X123308228Y-137441714D01*
X124665371Y-136084571D02*
X125165371Y-137584571D01*
X125665371Y-136084571D01*
X126022514Y-136084571D02*
X126951085Y-136084571D01*
X126451085Y-136656000D01*
X126665371Y-136656000D01*
X126808228Y-136727428D01*
X126879657Y-136798857D01*
X126951085Y-136941714D01*
X126951085Y-137298857D01*
X126879657Y-137441714D01*
X126808228Y-137513142D01*
X126665371Y-137584571D01*
X126236800Y-137584571D01*
X126093942Y-137513142D01*
X126022514Y-137441714D01*
X123859028Y-139839000D02*
X123716171Y-139767571D01*
X123501885Y-139767571D01*
X123287600Y-139839000D01*
X123144742Y-139981857D01*
X123073314Y-140124714D01*
X123001885Y-140410428D01*
X123001885Y-140624714D01*
X123073314Y-140910428D01*
X123144742Y-141053285D01*
X123287600Y-141196142D01*
X123501885Y-141267571D01*
X123644742Y-141267571D01*
X123859028Y-141196142D01*
X123930457Y-141124714D01*
X123930457Y-140624714D01*
X123644742Y-140624714D01*
X124573314Y-141267571D02*
X124573314Y-139767571D01*
X125430457Y-141267571D01*
X125430457Y-139767571D01*
X126144742Y-141267571D02*
X126144742Y-139767571D01*
X126501885Y-139767571D01*
X126716171Y-139839000D01*
X126859028Y-139981857D01*
X126930457Y-140124714D01*
X127001885Y-140410428D01*
X127001885Y-140624714D01*
X126930457Y-140910428D01*
X126859028Y-141053285D01*
X126716171Y-141196142D01*
X126501885Y-141267571D01*
X126144742Y-141267571D01*
X124150000Y-124309285D02*
X124078571Y-124452142D01*
X124078571Y-124666428D01*
X124150000Y-124880714D01*
X124292857Y-125023571D01*
X124435714Y-125095000D01*
X124721428Y-125166428D01*
X124935714Y-125166428D01*
X125221428Y-125095000D01*
X125364285Y-125023571D01*
X125507142Y-124880714D01*
X125578571Y-124666428D01*
X125578571Y-124523571D01*
X125507142Y-124309285D01*
X125435714Y-124237857D01*
X124935714Y-124237857D01*
X124935714Y-124523571D01*
X125578571Y-123595000D02*
X124078571Y-123595000D01*
X125578571Y-122737857D01*
X124078571Y-122737857D01*
X125578571Y-122023571D02*
X124078571Y-122023571D01*
X124078571Y-121666428D01*
X124150000Y-121452142D01*
X124292857Y-121309285D01*
X124435714Y-121237857D01*
X124721428Y-121166428D01*
X124935714Y-121166428D01*
X125221428Y-121237857D01*
X125364285Y-121309285D01*
X125507142Y-121452142D01*
X125578571Y-121666428D01*
X125578571Y-122023571D01*
X125150000Y-120595000D02*
X125150000Y-119880714D01*
X125578571Y-120737857D02*
X124078571Y-120237857D01*
X125578571Y-119737857D01*
X127778571Y-121437857D02*
X127778571Y-122152142D01*
X128492857Y-122223571D01*
X128421428Y-122152142D01*
X128350000Y-122009285D01*
X128350000Y-121652142D01*
X128421428Y-121509285D01*
X128492857Y-121437857D01*
X128635714Y-121366428D01*
X128992857Y-121366428D01*
X129135714Y-121437857D01*
X129207142Y-121509285D01*
X129278571Y-121652142D01*
X129278571Y-122009285D01*
X129207142Y-122152142D01*
X129135714Y-122223571D01*
X127778571Y-120937857D02*
X129278571Y-120437857D01*
X127778571Y-119937857D01*
D12*
%TO.C,C202*%
X117883000Y-142359748D02*
X117883000Y-142882252D01*
X119353000Y-142359748D02*
X119353000Y-142882252D01*
D13*
%TO.C,J101*%
X76101621Y-125476000D02*
G75*
G03*
X76101621Y-125476000I-718420J0D01*
G01*
X73605201Y-125476000D02*
X73605201Y-130048000D01*
X73605201Y-130048000D02*
X85543201Y-130048000D01*
X73605201Y-125476000D02*
X73605201Y-120904000D01*
X73605201Y-120904000D02*
X85543201Y-120904000D01*
X92401201Y-131318000D02*
X94179201Y-119634000D01*
X91131201Y-131318000D02*
X92909201Y-119634000D01*
X89861201Y-131318000D02*
X91639201Y-119634000D01*
X88591201Y-131318000D02*
X90369201Y-119634000D01*
X87321201Y-131318000D02*
X89099201Y-119634000D01*
X86051201Y-131318000D02*
X87829201Y-119634000D01*
X94179201Y-131318000D02*
X85543201Y-131318000D01*
X85543201Y-131318000D02*
X85543201Y-119634000D01*
X85543201Y-119634000D02*
X94179201Y-119634000D01*
X108403201Y-132842000D02*
X108403201Y-118110000D01*
X108403201Y-118110000D02*
X94179201Y-118110000D01*
X94179201Y-118110000D02*
X94179201Y-132842000D01*
X94179201Y-132842000D02*
X108403201Y-132842000D01*
D12*
%TO.C,TP203*%
X127582000Y-142822000D02*
X130482000Y-142822000D01*
X130482000Y-142822000D02*
X130482000Y-145722000D01*
X130482000Y-145722000D02*
X127582000Y-145722000D01*
X127582000Y-145722000D02*
X127582000Y-142822000D01*
%TO.C,C201*%
X124123750Y-133710750D02*
X124911250Y-133710750D01*
X124517500Y-134104500D02*
X124517500Y-133317000D01*
X128710563Y-133077000D02*
X129775000Y-132012563D01*
X124019437Y-133077000D02*
X122955000Y-132012563D01*
X124019437Y-133077000D02*
X125305000Y-133077000D01*
X128710563Y-133077000D02*
X127425000Y-133077000D01*
X129775000Y-132012563D02*
X129775000Y-126257000D01*
X122955000Y-132012563D02*
X122955000Y-126257000D01*
X122955000Y-126257000D02*
X125305000Y-126257000D01*
X129775000Y-126257000D02*
X127425000Y-126257000D01*
%TO.C,C101*%
X117595700Y-117976600D02*
X115245700Y-117976600D01*
X110775700Y-117976600D02*
X113125700Y-117976600D01*
X110775700Y-123732163D02*
X110775700Y-117976600D01*
X117595700Y-123732163D02*
X117595700Y-117976600D01*
X116531263Y-124796600D02*
X115245700Y-124796600D01*
X111840137Y-124796600D02*
X113125700Y-124796600D01*
X111840137Y-124796600D02*
X110775700Y-123732163D01*
X116531263Y-124796600D02*
X117595700Y-123732163D01*
X112338200Y-125824100D02*
X112338200Y-125036600D01*
X111944450Y-125430350D02*
X112731950Y-125430350D01*
%TO.C,Q101*%
X117727000Y-135377400D02*
X117727000Y-134447400D01*
X117727000Y-132217400D02*
X117727000Y-133147400D01*
X117727000Y-132217400D02*
X115567000Y-132217400D01*
X117727000Y-135377400D02*
X116267000Y-135377400D01*
%TO.C,TP101*%
X127070000Y-119200000D02*
X127070000Y-116300000D01*
X129970000Y-119200000D02*
X127070000Y-119200000D01*
X129970000Y-116300000D02*
X129970000Y-119200000D01*
X127070000Y-116300000D02*
X129970000Y-116300000D01*
%TO.C,TP102*%
X123250000Y-116304400D02*
X126150000Y-116304400D01*
X126150000Y-116304400D02*
X126150000Y-119204400D01*
X126150000Y-119204400D02*
X123250000Y-119204400D01*
X123250000Y-119204400D02*
X123250000Y-116304400D01*
%TO.C,TP201*%
X127582000Y-138356000D02*
X127582000Y-135456000D01*
X130482000Y-138356000D02*
X127582000Y-138356000D01*
X130482000Y-135456000D02*
X130482000Y-138356000D01*
X127582000Y-135456000D02*
X130482000Y-135456000D01*
%TO.C,TP202*%
X127582000Y-139139000D02*
X130482000Y-139139000D01*
X130482000Y-139139000D02*
X130482000Y-142039000D01*
X130482000Y-142039000D02*
X127582000Y-142039000D01*
X127582000Y-142039000D02*
X127582000Y-139139000D01*
%TO.C,C102*%
X118086200Y-121254152D02*
X118086200Y-120731648D01*
X119556200Y-121254152D02*
X119556200Y-120731648D01*
%TO.C,R101*%
X113226964Y-130471600D02*
X112772836Y-130471600D01*
X113226964Y-131941600D02*
X112772836Y-131941600D01*
%TO.C,R102*%
X117522700Y-130087464D02*
X117522700Y-129633336D01*
X118992700Y-130087464D02*
X118992700Y-129633336D01*
%TO.C,R103*%
X112785536Y-135218200D02*
X113239664Y-135218200D01*
X112785536Y-133748200D02*
X113239664Y-133748200D01*
%TO.C,R201*%
X119279936Y-145188000D02*
X119734064Y-145188000D01*
X119279936Y-146658000D02*
X119734064Y-146658000D01*
D14*
%TO.C,H101*%
X94647000Y-137184000D02*
X94147000Y-137184000D01*
X94647000Y-140184000D02*
X94647000Y-137184000D01*
X94147000Y-140184000D02*
X94647000Y-140184000D01*
X94147000Y-134934000D02*
X94147000Y-142434000D01*
X99227000Y-134934000D02*
X94147000Y-134934000D01*
X104227000Y-134934000D02*
X99227000Y-134934000D01*
X99227000Y-142434000D02*
X94147000Y-142434000D01*
X104227000Y-142434000D02*
X99227000Y-142434000D01*
D12*
%TO.C,C103*%
X119280000Y-137675252D02*
X119280000Y-137152748D01*
X120750000Y-137675252D02*
X120750000Y-137152748D01*
%TO.C,U201*%
X113908000Y-144231000D02*
X115708000Y-144231000D01*
X115708000Y-141011000D02*
X113258000Y-141011000D01*
%TO.C,C202*%
D15*
X120753142Y-143359047D02*
X120800761Y-143406666D01*
X120848380Y-143549523D01*
X120848380Y-143644761D01*
X120800761Y-143787619D01*
X120705523Y-143882857D01*
X120610285Y-143930476D01*
X120419809Y-143978095D01*
X120276952Y-143978095D01*
X120086476Y-143930476D01*
X119991238Y-143882857D01*
X119896000Y-143787619D01*
X119848380Y-143644761D01*
X119848380Y-143549523D01*
X119896000Y-143406666D01*
X119943619Y-143359047D01*
X119943619Y-142978095D02*
X119896000Y-142930476D01*
X119848380Y-142835238D01*
X119848380Y-142597142D01*
X119896000Y-142501904D01*
X119943619Y-142454285D01*
X120038857Y-142406666D01*
X120134095Y-142406666D01*
X120276952Y-142454285D01*
X120848380Y-143025714D01*
X120848380Y-142406666D01*
X119848380Y-141787619D02*
X119848380Y-141692380D01*
X119896000Y-141597142D01*
X119943619Y-141549523D01*
X120038857Y-141501904D01*
X120229333Y-141454285D01*
X120467428Y-141454285D01*
X120657904Y-141501904D01*
X120753142Y-141549523D01*
X120800761Y-141597142D01*
X120848380Y-141692380D01*
X120848380Y-141787619D01*
X120800761Y-141882857D01*
X120753142Y-141930476D01*
X120657904Y-141978095D01*
X120467428Y-142025714D01*
X120229333Y-142025714D01*
X120038857Y-141978095D01*
X119943619Y-141930476D01*
X119896000Y-141882857D01*
X119848380Y-141787619D01*
X119943619Y-141073333D02*
X119896000Y-141025714D01*
X119848380Y-140930476D01*
X119848380Y-140692380D01*
X119896000Y-140597142D01*
X119943619Y-140549523D01*
X120038857Y-140501904D01*
X120134095Y-140501904D01*
X120276952Y-140549523D01*
X120848380Y-141120952D01*
X120848380Y-140501904D01*
%TO.C,J101*%
X105648285Y-116292380D02*
X105648285Y-117006666D01*
X105600666Y-117149523D01*
X105505428Y-117244761D01*
X105362571Y-117292380D01*
X105267333Y-117292380D01*
X106648285Y-117292380D02*
X106076857Y-117292380D01*
X106362571Y-117292380D02*
X106362571Y-116292380D01*
X106267333Y-116435238D01*
X106172095Y-116530476D01*
X106076857Y-116578095D01*
X107267333Y-116292380D02*
X107362571Y-116292380D01*
X107457809Y-116340000D01*
X107505428Y-116387619D01*
X107553047Y-116482857D01*
X107600666Y-116673333D01*
X107600666Y-116911428D01*
X107553047Y-117101904D01*
X107505428Y-117197142D01*
X107457809Y-117244761D01*
X107362571Y-117292380D01*
X107267333Y-117292380D01*
X107172095Y-117244761D01*
X107124476Y-117197142D01*
X107076857Y-117101904D01*
X107029238Y-116911428D01*
X107029238Y-116673333D01*
X107076857Y-116482857D01*
X107124476Y-116387619D01*
X107172095Y-116340000D01*
X107267333Y-116292380D01*
X108553047Y-117292380D02*
X107981619Y-117292380D01*
X108267333Y-117292380D02*
X108267333Y-116292380D01*
X108172095Y-116435238D01*
X108076857Y-116530476D01*
X107981619Y-116578095D01*
%TO.C,C201*%
X122404142Y-130811447D02*
X122451761Y-130859066D01*
X122499380Y-131001923D01*
X122499380Y-131097161D01*
X122451761Y-131240019D01*
X122356523Y-131335257D01*
X122261285Y-131382876D01*
X122070809Y-131430495D01*
X121927952Y-131430495D01*
X121737476Y-131382876D01*
X121642238Y-131335257D01*
X121547000Y-131240019D01*
X121499380Y-131097161D01*
X121499380Y-131001923D01*
X121547000Y-130859066D01*
X121594619Y-130811447D01*
X121594619Y-130430495D02*
X121547000Y-130382876D01*
X121499380Y-130287638D01*
X121499380Y-130049542D01*
X121547000Y-129954304D01*
X121594619Y-129906685D01*
X121689857Y-129859066D01*
X121785095Y-129859066D01*
X121927952Y-129906685D01*
X122499380Y-130478114D01*
X122499380Y-129859066D01*
X121499380Y-129240019D02*
X121499380Y-129144780D01*
X121547000Y-129049542D01*
X121594619Y-129001923D01*
X121689857Y-128954304D01*
X121880333Y-128906685D01*
X122118428Y-128906685D01*
X122308904Y-128954304D01*
X122404142Y-129001923D01*
X122451761Y-129049542D01*
X122499380Y-129144780D01*
X122499380Y-129240019D01*
X122451761Y-129335257D01*
X122404142Y-129382876D01*
X122308904Y-129430495D01*
X122118428Y-129478114D01*
X121880333Y-129478114D01*
X121689857Y-129430495D01*
X121594619Y-129382876D01*
X121547000Y-129335257D01*
X121499380Y-129240019D01*
X122499380Y-127954304D02*
X122499380Y-128525733D01*
X122499380Y-128240019D02*
X121499380Y-128240019D01*
X121642238Y-128335257D01*
X121737476Y-128430495D01*
X121785095Y-128525733D01*
%TO.C,C101*%
X110192842Y-122505647D02*
X110240461Y-122553266D01*
X110288080Y-122696123D01*
X110288080Y-122791361D01*
X110240461Y-122934219D01*
X110145223Y-123029457D01*
X110049985Y-123077076D01*
X109859509Y-123124695D01*
X109716652Y-123124695D01*
X109526176Y-123077076D01*
X109430938Y-123029457D01*
X109335700Y-122934219D01*
X109288080Y-122791361D01*
X109288080Y-122696123D01*
X109335700Y-122553266D01*
X109383319Y-122505647D01*
X110288080Y-121553266D02*
X110288080Y-122124695D01*
X110288080Y-121838980D02*
X109288080Y-121838980D01*
X109430938Y-121934219D01*
X109526176Y-122029457D01*
X109573795Y-122124695D01*
X109288080Y-120934219D02*
X109288080Y-120838980D01*
X109335700Y-120743742D01*
X109383319Y-120696123D01*
X109478557Y-120648504D01*
X109669033Y-120600885D01*
X109907128Y-120600885D01*
X110097604Y-120648504D01*
X110192842Y-120696123D01*
X110240461Y-120743742D01*
X110288080Y-120838980D01*
X110288080Y-120934219D01*
X110240461Y-121029457D01*
X110192842Y-121077076D01*
X110097604Y-121124695D01*
X109907128Y-121172314D01*
X109669033Y-121172314D01*
X109478557Y-121124695D01*
X109383319Y-121077076D01*
X109335700Y-121029457D01*
X109288080Y-120934219D01*
X110288080Y-119648504D02*
X110288080Y-120219933D01*
X110288080Y-119934219D02*
X109288080Y-119934219D01*
X109430938Y-120029457D01*
X109526176Y-120124695D01*
X109573795Y-120219933D01*
%TO.C,Q101*%
X119978419Y-134448419D02*
X119930800Y-134543657D01*
X119835561Y-134638895D01*
X119692704Y-134781752D01*
X119645085Y-134876990D01*
X119645085Y-134972228D01*
X119883180Y-134924609D02*
X119835561Y-135019847D01*
X119740323Y-135115085D01*
X119549847Y-135162704D01*
X119216514Y-135162704D01*
X119026038Y-135115085D01*
X118930800Y-135019847D01*
X118883180Y-134924609D01*
X118883180Y-134734133D01*
X118930800Y-134638895D01*
X119026038Y-134543657D01*
X119216514Y-134496038D01*
X119549847Y-134496038D01*
X119740323Y-134543657D01*
X119835561Y-134638895D01*
X119883180Y-134734133D01*
X119883180Y-134924609D01*
X119883180Y-133543657D02*
X119883180Y-134115085D01*
X119883180Y-133829371D02*
X118883180Y-133829371D01*
X119026038Y-133924609D01*
X119121276Y-134019847D01*
X119168895Y-134115085D01*
X118883180Y-132924609D02*
X118883180Y-132829371D01*
X118930800Y-132734133D01*
X118978419Y-132686514D01*
X119073657Y-132638895D01*
X119264133Y-132591276D01*
X119502228Y-132591276D01*
X119692704Y-132638895D01*
X119787942Y-132686514D01*
X119835561Y-132734133D01*
X119883180Y-132829371D01*
X119883180Y-132924609D01*
X119835561Y-133019847D01*
X119787942Y-133067466D01*
X119692704Y-133115085D01*
X119502228Y-133162704D01*
X119264133Y-133162704D01*
X119073657Y-133115085D01*
X118978419Y-133067466D01*
X118930800Y-133019847D01*
X118883180Y-132924609D01*
X119883180Y-131638895D02*
X119883180Y-132210323D01*
X119883180Y-131924609D02*
X118883180Y-131924609D01*
X119026038Y-132019847D01*
X119121276Y-132115085D01*
X119168895Y-132210323D01*
%TO.C,C102*%
X120957142Y-122119047D02*
X121004761Y-122166666D01*
X121052380Y-122309523D01*
X121052380Y-122404761D01*
X121004761Y-122547619D01*
X120909523Y-122642857D01*
X120814285Y-122690476D01*
X120623809Y-122738095D01*
X120480952Y-122738095D01*
X120290476Y-122690476D01*
X120195238Y-122642857D01*
X120100000Y-122547619D01*
X120052380Y-122404761D01*
X120052380Y-122309523D01*
X120100000Y-122166666D01*
X120147619Y-122119047D01*
X121052380Y-121166666D02*
X121052380Y-121738095D01*
X121052380Y-121452380D02*
X120052380Y-121452380D01*
X120195238Y-121547619D01*
X120290476Y-121642857D01*
X120338095Y-121738095D01*
X120052380Y-120547619D02*
X120052380Y-120452380D01*
X120100000Y-120357142D01*
X120147619Y-120309523D01*
X120242857Y-120261904D01*
X120433333Y-120214285D01*
X120671428Y-120214285D01*
X120861904Y-120261904D01*
X120957142Y-120309523D01*
X121004761Y-120357142D01*
X121052380Y-120452380D01*
X121052380Y-120547619D01*
X121004761Y-120642857D01*
X120957142Y-120690476D01*
X120861904Y-120738095D01*
X120671428Y-120785714D01*
X120433333Y-120785714D01*
X120242857Y-120738095D01*
X120147619Y-120690476D01*
X120100000Y-120642857D01*
X120052380Y-120547619D01*
X120147619Y-119833333D02*
X120100000Y-119785714D01*
X120052380Y-119690476D01*
X120052380Y-119452380D01*
X120100000Y-119357142D01*
X120147619Y-119309523D01*
X120242857Y-119261904D01*
X120338095Y-119261904D01*
X120480952Y-119309523D01*
X121052380Y-119880952D01*
X121052380Y-119261904D01*
%TO.C,R101*%
X111880852Y-133308980D02*
X111547519Y-132832790D01*
X111309423Y-133308980D02*
X111309423Y-132308980D01*
X111690376Y-132308980D01*
X111785614Y-132356600D01*
X111833233Y-132404219D01*
X111880852Y-132499457D01*
X111880852Y-132642314D01*
X111833233Y-132737552D01*
X111785614Y-132785171D01*
X111690376Y-132832790D01*
X111309423Y-132832790D01*
X112833233Y-133308980D02*
X112261804Y-133308980D01*
X112547519Y-133308980D02*
X112547519Y-132308980D01*
X112452280Y-132451838D01*
X112357042Y-132547076D01*
X112261804Y-132594695D01*
X113452280Y-132308980D02*
X113547519Y-132308980D01*
X113642757Y-132356600D01*
X113690376Y-132404219D01*
X113737995Y-132499457D01*
X113785614Y-132689933D01*
X113785614Y-132928028D01*
X113737995Y-133118504D01*
X113690376Y-133213742D01*
X113642757Y-133261361D01*
X113547519Y-133308980D01*
X113452280Y-133308980D01*
X113357042Y-133261361D01*
X113309423Y-133213742D01*
X113261804Y-133118504D01*
X113214185Y-132928028D01*
X113214185Y-132689933D01*
X113261804Y-132499457D01*
X113309423Y-132404219D01*
X113357042Y-132356600D01*
X113452280Y-132308980D01*
X114737995Y-133308980D02*
X114166566Y-133308980D01*
X114452280Y-133308980D02*
X114452280Y-132308980D01*
X114357042Y-132451838D01*
X114261804Y-132547076D01*
X114166566Y-132594695D01*
%TO.C,R102*%
X117060080Y-130979447D02*
X116583890Y-131312780D01*
X117060080Y-131550876D02*
X116060080Y-131550876D01*
X116060080Y-131169923D01*
X116107700Y-131074685D01*
X116155319Y-131027066D01*
X116250557Y-130979447D01*
X116393414Y-130979447D01*
X116488652Y-131027066D01*
X116536271Y-131074685D01*
X116583890Y-131169923D01*
X116583890Y-131550876D01*
X117060080Y-130027066D02*
X117060080Y-130598495D01*
X117060080Y-130312780D02*
X116060080Y-130312780D01*
X116202938Y-130408019D01*
X116298176Y-130503257D01*
X116345795Y-130598495D01*
X116060080Y-129408019D02*
X116060080Y-129312780D01*
X116107700Y-129217542D01*
X116155319Y-129169923D01*
X116250557Y-129122304D01*
X116441033Y-129074685D01*
X116679128Y-129074685D01*
X116869604Y-129122304D01*
X116964842Y-129169923D01*
X117012461Y-129217542D01*
X117060080Y-129312780D01*
X117060080Y-129408019D01*
X117012461Y-129503257D01*
X116964842Y-129550876D01*
X116869604Y-129598495D01*
X116679128Y-129646114D01*
X116441033Y-129646114D01*
X116250557Y-129598495D01*
X116155319Y-129550876D01*
X116107700Y-129503257D01*
X116060080Y-129408019D01*
X116155319Y-128693733D02*
X116107700Y-128646114D01*
X116060080Y-128550876D01*
X116060080Y-128312780D01*
X116107700Y-128217542D01*
X116155319Y-128169923D01*
X116250557Y-128122304D01*
X116345795Y-128122304D01*
X116488652Y-128169923D01*
X117060080Y-128741352D01*
X117060080Y-128122304D01*
%TO.C,R103*%
X111893552Y-136662780D02*
X111560219Y-136186590D01*
X111322123Y-136662780D02*
X111322123Y-135662780D01*
X111703076Y-135662780D01*
X111798314Y-135710400D01*
X111845933Y-135758019D01*
X111893552Y-135853257D01*
X111893552Y-135996114D01*
X111845933Y-136091352D01*
X111798314Y-136138971D01*
X111703076Y-136186590D01*
X111322123Y-136186590D01*
X112845933Y-136662780D02*
X112274504Y-136662780D01*
X112560219Y-136662780D02*
X112560219Y-135662780D01*
X112464980Y-135805638D01*
X112369742Y-135900876D01*
X112274504Y-135948495D01*
X113464980Y-135662780D02*
X113560219Y-135662780D01*
X113655457Y-135710400D01*
X113703076Y-135758019D01*
X113750695Y-135853257D01*
X113798314Y-136043733D01*
X113798314Y-136281828D01*
X113750695Y-136472304D01*
X113703076Y-136567542D01*
X113655457Y-136615161D01*
X113560219Y-136662780D01*
X113464980Y-136662780D01*
X113369742Y-136615161D01*
X113322123Y-136567542D01*
X113274504Y-136472304D01*
X113226885Y-136281828D01*
X113226885Y-136043733D01*
X113274504Y-135853257D01*
X113322123Y-135758019D01*
X113369742Y-135710400D01*
X113464980Y-135662780D01*
X114131647Y-135662780D02*
X114750695Y-135662780D01*
X114417361Y-136043733D01*
X114560219Y-136043733D01*
X114655457Y-136091352D01*
X114703076Y-136138971D01*
X114750695Y-136234209D01*
X114750695Y-136472304D01*
X114703076Y-136567542D01*
X114655457Y-136615161D01*
X114560219Y-136662780D01*
X114274504Y-136662780D01*
X114179266Y-136615161D01*
X114131647Y-136567542D01*
%TO.C,R201*%
X114552952Y-146400780D02*
X114219619Y-145924590D01*
X113981523Y-146400780D02*
X113981523Y-145400780D01*
X114362476Y-145400780D01*
X114457714Y-145448400D01*
X114505333Y-145496019D01*
X114552952Y-145591257D01*
X114552952Y-145734114D01*
X114505333Y-145829352D01*
X114457714Y-145876971D01*
X114362476Y-145924590D01*
X113981523Y-145924590D01*
X114933904Y-145496019D02*
X114981523Y-145448400D01*
X115076761Y-145400780D01*
X115314857Y-145400780D01*
X115410095Y-145448400D01*
X115457714Y-145496019D01*
X115505333Y-145591257D01*
X115505333Y-145686495D01*
X115457714Y-145829352D01*
X114886285Y-146400780D01*
X115505333Y-146400780D01*
X116124380Y-145400780D02*
X116219619Y-145400780D01*
X116314857Y-145448400D01*
X116362476Y-145496019D01*
X116410095Y-145591257D01*
X116457714Y-145781733D01*
X116457714Y-146019828D01*
X116410095Y-146210304D01*
X116362476Y-146305542D01*
X116314857Y-146353161D01*
X116219619Y-146400780D01*
X116124380Y-146400780D01*
X116029142Y-146353161D01*
X115981523Y-146305542D01*
X115933904Y-146210304D01*
X115886285Y-146019828D01*
X115886285Y-145781733D01*
X115933904Y-145591257D01*
X115981523Y-145496019D01*
X116029142Y-145448400D01*
X116124380Y-145400780D01*
X117410095Y-146400780D02*
X116838666Y-146400780D01*
X117124380Y-146400780D02*
X117124380Y-145400780D01*
X117029142Y-145543638D01*
X116933904Y-145638876D01*
X116838666Y-145686495D01*
%TO.C,H101*%
X106598980Y-140398285D02*
X105598980Y-140398285D01*
X106075171Y-140398285D02*
X106075171Y-139826857D01*
X106598980Y-139826857D02*
X105598980Y-139826857D01*
X106598980Y-138826857D02*
X106598980Y-139398285D01*
X106598980Y-139112571D02*
X105598980Y-139112571D01*
X105741838Y-139207809D01*
X105837076Y-139303047D01*
X105884695Y-139398285D01*
X105598980Y-138207809D02*
X105598980Y-138112571D01*
X105646600Y-138017333D01*
X105694219Y-137969714D01*
X105789457Y-137922095D01*
X105979933Y-137874476D01*
X106218028Y-137874476D01*
X106408504Y-137922095D01*
X106503742Y-137969714D01*
X106551361Y-138017333D01*
X106598980Y-138112571D01*
X106598980Y-138207809D01*
X106551361Y-138303047D01*
X106503742Y-138350666D01*
X106408504Y-138398285D01*
X106218028Y-138445904D01*
X105979933Y-138445904D01*
X105789457Y-138398285D01*
X105694219Y-138350666D01*
X105646600Y-138303047D01*
X105598980Y-138207809D01*
X106598980Y-136922095D02*
X106598980Y-137493523D01*
X106598980Y-137207809D02*
X105598980Y-137207809D01*
X105741838Y-137303047D01*
X105837076Y-137398285D01*
X105884695Y-137493523D01*
%TO.C,C103*%
X121994742Y-138418047D02*
X122042361Y-138465666D01*
X122089980Y-138608523D01*
X122089980Y-138703761D01*
X122042361Y-138846619D01*
X121947123Y-138941857D01*
X121851885Y-138989476D01*
X121661409Y-139037095D01*
X121518552Y-139037095D01*
X121328076Y-138989476D01*
X121232838Y-138941857D01*
X121137600Y-138846619D01*
X121089980Y-138703761D01*
X121089980Y-138608523D01*
X121137600Y-138465666D01*
X121185219Y-138418047D01*
X122089980Y-137465666D02*
X122089980Y-138037095D01*
X122089980Y-137751380D02*
X121089980Y-137751380D01*
X121232838Y-137846619D01*
X121328076Y-137941857D01*
X121375695Y-138037095D01*
X121089980Y-136846619D02*
X121089980Y-136751380D01*
X121137600Y-136656142D01*
X121185219Y-136608523D01*
X121280457Y-136560904D01*
X121470933Y-136513285D01*
X121709028Y-136513285D01*
X121899504Y-136560904D01*
X121994742Y-136608523D01*
X122042361Y-136656142D01*
X122089980Y-136751380D01*
X122089980Y-136846619D01*
X122042361Y-136941857D01*
X121994742Y-136989476D01*
X121899504Y-137037095D01*
X121709028Y-137084714D01*
X121470933Y-137084714D01*
X121280457Y-137037095D01*
X121185219Y-136989476D01*
X121137600Y-136941857D01*
X121089980Y-136846619D01*
X121089980Y-136179952D02*
X121089980Y-135560904D01*
X121470933Y-135894238D01*
X121470933Y-135751380D01*
X121518552Y-135656142D01*
X121566171Y-135608523D01*
X121661409Y-135560904D01*
X121899504Y-135560904D01*
X121994742Y-135608523D01*
X122042361Y-135656142D01*
X122089980Y-135751380D01*
X122089980Y-136037095D01*
X122042361Y-136132333D01*
X121994742Y-136179952D01*
%TO.C,U201*%
X113093714Y-139173380D02*
X113093714Y-139982904D01*
X113141333Y-140078142D01*
X113188952Y-140125761D01*
X113284190Y-140173380D01*
X113474666Y-140173380D01*
X113569904Y-140125761D01*
X113617523Y-140078142D01*
X113665142Y-139982904D01*
X113665142Y-139173380D01*
X114093714Y-139268619D02*
X114141333Y-139221000D01*
X114236571Y-139173380D01*
X114474666Y-139173380D01*
X114569904Y-139221000D01*
X114617523Y-139268619D01*
X114665142Y-139363857D01*
X114665142Y-139459095D01*
X114617523Y-139601952D01*
X114046095Y-140173380D01*
X114665142Y-140173380D01*
X115284190Y-139173380D02*
X115379428Y-139173380D01*
X115474666Y-139221000D01*
X115522285Y-139268619D01*
X115569904Y-139363857D01*
X115617523Y-139554333D01*
X115617523Y-139792428D01*
X115569904Y-139982904D01*
X115522285Y-140078142D01*
X115474666Y-140125761D01*
X115379428Y-140173380D01*
X115284190Y-140173380D01*
X115188952Y-140125761D01*
X115141333Y-140078142D01*
X115093714Y-139982904D01*
X115046095Y-139792428D01*
X115046095Y-139554333D01*
X115093714Y-139363857D01*
X115141333Y-139268619D01*
X115188952Y-139221000D01*
X115284190Y-139173380D01*
X116569904Y-140173380D02*
X115998476Y-140173380D01*
X116284190Y-140173380D02*
X116284190Y-139173380D01*
X116188952Y-139316238D01*
X116093714Y-139411476D01*
X115998476Y-139459095D01*
%TD*%
M02*
