%TF.GenerationSoftware,KiCad,Pcbnew,5.1.12-84ad8e8a86~92~ubuntu20.04.1*%
%TF.CreationDate,2022-06-17T21:56:11+02:00*%
%TF.ProjectId,bkm-68x-simple-hv-addon,626b6d2d-3638-4782-9d73-696d706c652d,rev?*%
%TF.SameCoordinates,Original*%
%TF.FileFunction,Legend,Bot*%
%TF.FilePolarity,Positive*%
%FSLAX46Y46*%
G04 Gerber Fmt 4.6, Leading zero omitted, Abs format (unit mm)*
G04 Created by KiCad (PCBNEW 5.1.12-84ad8e8a86~92~ubuntu20.04.1) date 2022-06-17 21:56:11*
%MOMM*%
%LPD*%
G01*
G04 APERTURE LIST*
%ADD10C,0.150000*%
G04 APERTURE END LIST*
D10*
X129817619Y-146730980D02*
X130150952Y-146254790D01*
X130389047Y-146730980D02*
X130389047Y-145730980D01*
X130008095Y-145730980D01*
X129912857Y-145778600D01*
X129865238Y-145826219D01*
X129817619Y-145921457D01*
X129817619Y-146064314D01*
X129865238Y-146159552D01*
X129912857Y-146207171D01*
X130008095Y-146254790D01*
X130389047Y-146254790D01*
X129008095Y-146683361D02*
X129103333Y-146730980D01*
X129293809Y-146730980D01*
X129389047Y-146683361D01*
X129436666Y-146588123D01*
X129436666Y-146207171D01*
X129389047Y-146111933D01*
X129293809Y-146064314D01*
X129103333Y-146064314D01*
X129008095Y-146111933D01*
X128960476Y-146207171D01*
X128960476Y-146302409D01*
X129436666Y-146397647D01*
X128627142Y-146064314D02*
X128389047Y-146730980D01*
X128150952Y-146064314D01*
X127770000Y-146635742D02*
X127722380Y-146683361D01*
X127770000Y-146730980D01*
X127817619Y-146683361D01*
X127770000Y-146635742D01*
X127770000Y-146730980D01*
X126579523Y-146445266D02*
X126103333Y-146445266D01*
X126674761Y-146730980D02*
X126341428Y-145730980D01*
X126008095Y-146730980D01*
X129633071Y-127059571D02*
X129490214Y-127107190D01*
X129442595Y-127154809D01*
X129394976Y-127250047D01*
X129394976Y-127392904D01*
X129442595Y-127488142D01*
X129490214Y-127535761D01*
X129585452Y-127583380D01*
X129966404Y-127583380D01*
X129966404Y-126583380D01*
X129633071Y-126583380D01*
X129537833Y-126631000D01*
X129490214Y-126678619D01*
X129442595Y-126773857D01*
X129442595Y-126869095D01*
X129490214Y-126964333D01*
X129537833Y-127011952D01*
X129633071Y-127059571D01*
X129966404Y-127059571D01*
X128966404Y-127583380D02*
X128966404Y-126583380D01*
X128394976Y-127583380D02*
X128823547Y-127011952D01*
X128394976Y-126583380D02*
X128966404Y-127154809D01*
X127966404Y-127583380D02*
X127966404Y-126583380D01*
X127633071Y-127297666D01*
X127299738Y-126583380D01*
X127299738Y-127583380D01*
X126823547Y-127202428D02*
X126061642Y-127202428D01*
X125156880Y-126583380D02*
X125347357Y-126583380D01*
X125442595Y-126631000D01*
X125490214Y-126678619D01*
X125585452Y-126821476D01*
X125633071Y-127011952D01*
X125633071Y-127392904D01*
X125585452Y-127488142D01*
X125537833Y-127535761D01*
X125442595Y-127583380D01*
X125252119Y-127583380D01*
X125156880Y-127535761D01*
X125109261Y-127488142D01*
X125061642Y-127392904D01*
X125061642Y-127154809D01*
X125109261Y-127059571D01*
X125156880Y-127011952D01*
X125252119Y-126964333D01*
X125442595Y-126964333D01*
X125537833Y-127011952D01*
X125585452Y-127059571D01*
X125633071Y-127154809D01*
X124490214Y-127011952D02*
X124585452Y-126964333D01*
X124633071Y-126916714D01*
X124680690Y-126821476D01*
X124680690Y-126773857D01*
X124633071Y-126678619D01*
X124585452Y-126631000D01*
X124490214Y-126583380D01*
X124299738Y-126583380D01*
X124204500Y-126631000D01*
X124156880Y-126678619D01*
X124109261Y-126773857D01*
X124109261Y-126821476D01*
X124156880Y-126916714D01*
X124204500Y-126964333D01*
X124299738Y-127011952D01*
X124490214Y-127011952D01*
X124585452Y-127059571D01*
X124633071Y-127107190D01*
X124680690Y-127202428D01*
X124680690Y-127392904D01*
X124633071Y-127488142D01*
X124585452Y-127535761D01*
X124490214Y-127583380D01*
X124299738Y-127583380D01*
X124204500Y-127535761D01*
X124156880Y-127488142D01*
X124109261Y-127392904D01*
X124109261Y-127202428D01*
X124156880Y-127107190D01*
X124204500Y-127059571D01*
X124299738Y-127011952D01*
X123775928Y-126583380D02*
X123109261Y-127583380D01*
X123109261Y-126583380D02*
X123775928Y-127583380D01*
X122014023Y-127297666D02*
X121537833Y-127297666D01*
X122109261Y-127583380D02*
X121775928Y-126583380D01*
X121442595Y-127583380D01*
X120966404Y-127583380D02*
X121061642Y-127535761D01*
X121109261Y-127440523D01*
X121109261Y-126583380D01*
X120728309Y-126916714D02*
X120347357Y-126916714D01*
X120585452Y-126583380D02*
X120585452Y-127440523D01*
X120537833Y-127535761D01*
X120442595Y-127583380D01*
X120347357Y-127583380D01*
X119633071Y-127535761D02*
X119728309Y-127583380D01*
X119918785Y-127583380D01*
X120014023Y-127535761D01*
X120061642Y-127440523D01*
X120061642Y-127059571D01*
X120014023Y-126964333D01*
X119918785Y-126916714D01*
X119728309Y-126916714D01*
X119633071Y-126964333D01*
X119585452Y-127059571D01*
X119585452Y-127154809D01*
X120061642Y-127250047D01*
X119156880Y-127583380D02*
X119156880Y-126916714D01*
X119156880Y-127107190D02*
X119109261Y-127011952D01*
X119061642Y-126964333D01*
X118966404Y-126916714D01*
X118871166Y-126916714D01*
X118537833Y-126916714D02*
X118537833Y-127583380D01*
X118537833Y-127011952D02*
X118490214Y-126964333D01*
X118394976Y-126916714D01*
X118252119Y-126916714D01*
X118156880Y-126964333D01*
X118109261Y-127059571D01*
X118109261Y-127583380D01*
X117204500Y-127583380D02*
X117204500Y-127059571D01*
X117252119Y-126964333D01*
X117347357Y-126916714D01*
X117537833Y-126916714D01*
X117633071Y-126964333D01*
X117204500Y-127535761D02*
X117299738Y-127583380D01*
X117537833Y-127583380D01*
X117633071Y-127535761D01*
X117680690Y-127440523D01*
X117680690Y-127345285D01*
X117633071Y-127250047D01*
X117537833Y-127202428D01*
X117299738Y-127202428D01*
X117204500Y-127154809D01*
X116871166Y-126916714D02*
X116490214Y-126916714D01*
X116728309Y-126583380D02*
X116728309Y-127440523D01*
X116680690Y-127535761D01*
X116585452Y-127583380D01*
X116490214Y-127583380D01*
X116156880Y-127583380D02*
X116156880Y-126916714D01*
X116156880Y-126583380D02*
X116204500Y-126631000D01*
X116156880Y-126678619D01*
X116109261Y-126631000D01*
X116156880Y-126583380D01*
X116156880Y-126678619D01*
X115775928Y-126916714D02*
X115537833Y-127583380D01*
X115299738Y-126916714D01*
X114537833Y-127535761D02*
X114633071Y-127583380D01*
X114823547Y-127583380D01*
X114918785Y-127535761D01*
X114966404Y-127440523D01*
X114966404Y-127059571D01*
X114918785Y-126964333D01*
X114823547Y-126916714D01*
X114633071Y-126916714D01*
X114537833Y-126964333D01*
X114490214Y-127059571D01*
X114490214Y-127154809D01*
X114966404Y-127250047D01*
X129966404Y-129233380D02*
X129966404Y-128233380D01*
X129966404Y-128709571D02*
X129394976Y-128709571D01*
X129394976Y-129233380D02*
X129394976Y-128233380D01*
X129061642Y-128233380D02*
X128728309Y-129233380D01*
X128394976Y-128233380D01*
X128061642Y-128852428D02*
X127299738Y-128852428D01*
X126871166Y-129185761D02*
X126728309Y-129233380D01*
X126490214Y-129233380D01*
X126394976Y-129185761D01*
X126347357Y-129138142D01*
X126299738Y-129042904D01*
X126299738Y-128947666D01*
X126347357Y-128852428D01*
X126394976Y-128804809D01*
X126490214Y-128757190D01*
X126680690Y-128709571D01*
X126775928Y-128661952D01*
X126823547Y-128614333D01*
X126871166Y-128519095D01*
X126871166Y-128423857D01*
X126823547Y-128328619D01*
X126775928Y-128281000D01*
X126680690Y-128233380D01*
X126442595Y-128233380D01*
X126299738Y-128281000D01*
X125680690Y-128757190D02*
X125680690Y-129233380D01*
X126014023Y-128233380D02*
X125680690Y-128757190D01*
X125347357Y-128233380D01*
X125014023Y-129233380D02*
X125014023Y-128233380D01*
X124442595Y-129233380D01*
X124442595Y-128233380D01*
X123394976Y-129138142D02*
X123442595Y-129185761D01*
X123585452Y-129233380D01*
X123680690Y-129233380D01*
X123823547Y-129185761D01*
X123918785Y-129090523D01*
X123966404Y-128995285D01*
X124014023Y-128804809D01*
X124014023Y-128661952D01*
X123966404Y-128471476D01*
X123918785Y-128376238D01*
X123823547Y-128281000D01*
X123680690Y-128233380D01*
X123585452Y-128233380D01*
X123442595Y-128281000D01*
X123394976Y-128328619D01*
X122252119Y-128947666D02*
X121775928Y-128947666D01*
X122347357Y-129233380D02*
X122014023Y-128233380D01*
X121680690Y-129233380D01*
X120918785Y-129233380D02*
X120918785Y-128233380D01*
X120918785Y-129185761D02*
X121014023Y-129233380D01*
X121204500Y-129233380D01*
X121299738Y-129185761D01*
X121347357Y-129138142D01*
X121394976Y-129042904D01*
X121394976Y-128757190D01*
X121347357Y-128661952D01*
X121299738Y-128614333D01*
X121204500Y-128566714D01*
X121014023Y-128566714D01*
X120918785Y-128614333D01*
X120014023Y-129233380D02*
X120014023Y-128233380D01*
X120014023Y-129185761D02*
X120109261Y-129233380D01*
X120299738Y-129233380D01*
X120394976Y-129185761D01*
X120442595Y-129138142D01*
X120490214Y-129042904D01*
X120490214Y-128757190D01*
X120442595Y-128661952D01*
X120394976Y-128614333D01*
X120299738Y-128566714D01*
X120109261Y-128566714D01*
X120014023Y-128614333D01*
X119394976Y-129233380D02*
X119490214Y-129185761D01*
X119537833Y-129138142D01*
X119585452Y-129042904D01*
X119585452Y-128757190D01*
X119537833Y-128661952D01*
X119490214Y-128614333D01*
X119394976Y-128566714D01*
X119252119Y-128566714D01*
X119156880Y-128614333D01*
X119109261Y-128661952D01*
X119061642Y-128757190D01*
X119061642Y-129042904D01*
X119109261Y-129138142D01*
X119156880Y-129185761D01*
X119252119Y-129233380D01*
X119394976Y-129233380D01*
X118633071Y-128566714D02*
X118633071Y-129233380D01*
X118633071Y-128661952D02*
X118585452Y-128614333D01*
X118490214Y-128566714D01*
X118347357Y-128566714D01*
X118252119Y-128614333D01*
X118204500Y-128709571D01*
X118204500Y-129233380D01*
X129394976Y-132438142D02*
X129442595Y-132485761D01*
X129585452Y-132533380D01*
X129680690Y-132533380D01*
X129823547Y-132485761D01*
X129918785Y-132390523D01*
X129966404Y-132295285D01*
X130014023Y-132104809D01*
X130014023Y-131961952D01*
X129966404Y-131771476D01*
X129918785Y-131676238D01*
X129823547Y-131581000D01*
X129680690Y-131533380D01*
X129585452Y-131533380D01*
X129442595Y-131581000D01*
X129394976Y-131628619D01*
X128823547Y-132533380D02*
X128918785Y-132485761D01*
X128966404Y-132438142D01*
X129014023Y-132342904D01*
X129014023Y-132057190D01*
X128966404Y-131961952D01*
X128918785Y-131914333D01*
X128823547Y-131866714D01*
X128680690Y-131866714D01*
X128585452Y-131914333D01*
X128537833Y-131961952D01*
X128490214Y-132057190D01*
X128490214Y-132342904D01*
X128537833Y-132438142D01*
X128585452Y-132485761D01*
X128680690Y-132533380D01*
X128823547Y-132533380D01*
X128061642Y-131866714D02*
X128061642Y-132533380D01*
X128061642Y-131961952D02*
X128014023Y-131914333D01*
X127918785Y-131866714D01*
X127775928Y-131866714D01*
X127680690Y-131914333D01*
X127633071Y-132009571D01*
X127633071Y-132533380D01*
X127156880Y-131866714D02*
X127156880Y-132533380D01*
X127156880Y-131961952D02*
X127109261Y-131914333D01*
X127014023Y-131866714D01*
X126871166Y-131866714D01*
X126775928Y-131914333D01*
X126728309Y-132009571D01*
X126728309Y-132533380D01*
X125871166Y-132485761D02*
X125966404Y-132533380D01*
X126156880Y-132533380D01*
X126252119Y-132485761D01*
X126299738Y-132390523D01*
X126299738Y-132009571D01*
X126252119Y-131914333D01*
X126156880Y-131866714D01*
X125966404Y-131866714D01*
X125871166Y-131914333D01*
X125823547Y-132009571D01*
X125823547Y-132104809D01*
X126299738Y-132200047D01*
X124966404Y-132485761D02*
X125061642Y-132533380D01*
X125252119Y-132533380D01*
X125347357Y-132485761D01*
X125394976Y-132438142D01*
X125442595Y-132342904D01*
X125442595Y-132057190D01*
X125394976Y-131961952D01*
X125347357Y-131914333D01*
X125252119Y-131866714D01*
X125061642Y-131866714D01*
X124966404Y-131914333D01*
X124680690Y-131866714D02*
X124299738Y-131866714D01*
X124537833Y-131533380D02*
X124537833Y-132390523D01*
X124490214Y-132485761D01*
X124394976Y-132533380D01*
X124299738Y-132533380D01*
X123966404Y-132533380D02*
X123966404Y-131866714D01*
X123966404Y-131533380D02*
X124014023Y-131581000D01*
X123966404Y-131628619D01*
X123918785Y-131581000D01*
X123966404Y-131533380D01*
X123966404Y-131628619D01*
X123347357Y-132533380D02*
X123442595Y-132485761D01*
X123490214Y-132438142D01*
X123537833Y-132342904D01*
X123537833Y-132057190D01*
X123490214Y-131961952D01*
X123442595Y-131914333D01*
X123347357Y-131866714D01*
X123204500Y-131866714D01*
X123109261Y-131914333D01*
X123061642Y-131961952D01*
X123014023Y-132057190D01*
X123014023Y-132342904D01*
X123061642Y-132438142D01*
X123109261Y-132485761D01*
X123204500Y-132533380D01*
X123347357Y-132533380D01*
X122585452Y-131866714D02*
X122585452Y-132533380D01*
X122585452Y-131961952D02*
X122537833Y-131914333D01*
X122442595Y-131866714D01*
X122299738Y-131866714D01*
X122204500Y-131914333D01*
X122156880Y-132009571D01*
X122156880Y-132533380D01*
X121728309Y-132485761D02*
X121633071Y-132533380D01*
X121442595Y-132533380D01*
X121347357Y-132485761D01*
X121299738Y-132390523D01*
X121299738Y-132342904D01*
X121347357Y-132247666D01*
X121442595Y-132200047D01*
X121585452Y-132200047D01*
X121680690Y-132152428D01*
X121728309Y-132057190D01*
X121728309Y-132009571D01*
X121680690Y-131914333D01*
X121585452Y-131866714D01*
X121442595Y-131866714D01*
X121347357Y-131914333D01*
X120871166Y-132438142D02*
X120823547Y-132485761D01*
X120871166Y-132533380D01*
X120918785Y-132485761D01*
X120871166Y-132438142D01*
X120871166Y-132533380D01*
X120871166Y-131914333D02*
X120823547Y-131961952D01*
X120871166Y-132009571D01*
X120918785Y-131961952D01*
X120871166Y-131914333D01*
X120871166Y-132009571D01*
X129490214Y-133183380D02*
X129966404Y-133183380D01*
X130014023Y-133659571D01*
X129966404Y-133611952D01*
X129871166Y-133564333D01*
X129633071Y-133564333D01*
X129537833Y-133611952D01*
X129490214Y-133659571D01*
X129442595Y-133754809D01*
X129442595Y-133992904D01*
X129490214Y-134088142D01*
X129537833Y-134135761D01*
X129633071Y-134183380D01*
X129871166Y-134183380D01*
X129966404Y-134135761D01*
X130014023Y-134088142D01*
X129156880Y-133183380D02*
X128823547Y-134183380D01*
X128490214Y-133183380D01*
X127537833Y-133516714D02*
X127156880Y-133516714D01*
X127394976Y-133183380D02*
X127394976Y-134040523D01*
X127347357Y-134135761D01*
X127252119Y-134183380D01*
X127156880Y-134183380D01*
X126680690Y-134183380D02*
X126775928Y-134135761D01*
X126823547Y-134088142D01*
X126871166Y-133992904D01*
X126871166Y-133707190D01*
X126823547Y-133611952D01*
X126775928Y-133564333D01*
X126680690Y-133516714D01*
X126537833Y-133516714D01*
X126442595Y-133564333D01*
X126394976Y-133611952D01*
X126347357Y-133707190D01*
X126347357Y-133992904D01*
X126394976Y-134088142D01*
X126442595Y-134135761D01*
X126537833Y-134183380D01*
X126680690Y-134183380D01*
X125299738Y-133516714D02*
X124918785Y-133516714D01*
X125156880Y-133183380D02*
X125156880Y-134040523D01*
X125109261Y-134135761D01*
X125014023Y-134183380D01*
X124918785Y-134183380D01*
X124442595Y-134183380D02*
X124537833Y-134135761D01*
X124585452Y-134088142D01*
X124633071Y-133992904D01*
X124633071Y-133707190D01*
X124585452Y-133611952D01*
X124537833Y-133564333D01*
X124442595Y-133516714D01*
X124299738Y-133516714D01*
X124204500Y-133564333D01*
X124156880Y-133611952D01*
X124109261Y-133707190D01*
X124109261Y-133992904D01*
X124156880Y-134088142D01*
X124204500Y-134135761D01*
X124299738Y-134183380D01*
X124442595Y-134183380D01*
X123680690Y-133516714D02*
X123680690Y-134516714D01*
X123680690Y-133564333D02*
X123585452Y-133516714D01*
X123394976Y-133516714D01*
X123299738Y-133564333D01*
X123252119Y-133611952D01*
X123204500Y-133707190D01*
X123204500Y-133992904D01*
X123252119Y-134088142D01*
X123299738Y-134135761D01*
X123394976Y-134183380D01*
X123585452Y-134183380D01*
X123680690Y-134135761D01*
X122014023Y-133516714D02*
X122014023Y-134516714D01*
X122014023Y-133564333D02*
X121918785Y-133516714D01*
X121728309Y-133516714D01*
X121633071Y-133564333D01*
X121585452Y-133611952D01*
X121537833Y-133707190D01*
X121537833Y-133992904D01*
X121585452Y-134088142D01*
X121633071Y-134135761D01*
X121728309Y-134183380D01*
X121918785Y-134183380D01*
X122014023Y-134135761D01*
X120680690Y-134183380D02*
X120680690Y-133659571D01*
X120728309Y-133564333D01*
X120823547Y-133516714D01*
X121014023Y-133516714D01*
X121109261Y-133564333D01*
X120680690Y-134135761D02*
X120775928Y-134183380D01*
X121014023Y-134183380D01*
X121109261Y-134135761D01*
X121156880Y-134040523D01*
X121156880Y-133945285D01*
X121109261Y-133850047D01*
X121014023Y-133802428D01*
X120775928Y-133802428D01*
X120680690Y-133754809D01*
X119775928Y-134183380D02*
X119775928Y-133183380D01*
X119775928Y-134135761D02*
X119871166Y-134183380D01*
X120061642Y-134183380D01*
X120156880Y-134135761D01*
X120204500Y-134088142D01*
X120252119Y-133992904D01*
X120252119Y-133707190D01*
X120204500Y-133611952D01*
X120156880Y-133564333D01*
X120061642Y-133516714D01*
X119871166Y-133516714D01*
X119775928Y-133564333D01*
X118394976Y-134183380D02*
X118490214Y-134135761D01*
X118537833Y-134088142D01*
X118585452Y-133992904D01*
X118585452Y-133707190D01*
X118537833Y-133611952D01*
X118490214Y-133564333D01*
X118394976Y-133516714D01*
X118252119Y-133516714D01*
X118156880Y-133564333D01*
X118109261Y-133611952D01*
X118061642Y-133707190D01*
X118061642Y-133992904D01*
X118109261Y-134088142D01*
X118156880Y-134135761D01*
X118252119Y-134183380D01*
X118394976Y-134183380D01*
X117775928Y-133516714D02*
X117394976Y-133516714D01*
X117633071Y-134183380D02*
X117633071Y-133326238D01*
X117585452Y-133231000D01*
X117490214Y-133183380D01*
X117394976Y-133183380D01*
X116299738Y-134183380D02*
X116299738Y-133183380D01*
X116061642Y-133183380D01*
X115918785Y-133231000D01*
X115823547Y-133326238D01*
X115775928Y-133421476D01*
X115728309Y-133611952D01*
X115728309Y-133754809D01*
X115775928Y-133945285D01*
X115823547Y-134040523D01*
X115918785Y-134135761D01*
X116061642Y-134183380D01*
X116299738Y-134183380D01*
X115394976Y-133183380D02*
X114728309Y-133183380D01*
X115156880Y-134183380D01*
X129442595Y-134881000D02*
X129537833Y-134833380D01*
X129680690Y-134833380D01*
X129823547Y-134881000D01*
X129918785Y-134976238D01*
X129966404Y-135071476D01*
X130014023Y-135261952D01*
X130014023Y-135404809D01*
X129966404Y-135595285D01*
X129918785Y-135690523D01*
X129823547Y-135785761D01*
X129680690Y-135833380D01*
X129585452Y-135833380D01*
X129442595Y-135785761D01*
X129394976Y-135738142D01*
X129394976Y-135404809D01*
X129585452Y-135404809D01*
X128966404Y-135833380D02*
X128966404Y-134833380D01*
X128394976Y-135833380D01*
X128394976Y-134833380D01*
X127918785Y-135833380D02*
X127918785Y-134833380D01*
X127680690Y-134833380D01*
X127537833Y-134881000D01*
X127442595Y-134976238D01*
X127394976Y-135071476D01*
X127347357Y-135261952D01*
X127347357Y-135404809D01*
X127394976Y-135595285D01*
X127442595Y-135690523D01*
X127537833Y-135785761D01*
X127680690Y-135833380D01*
X127918785Y-135833380D01*
X126966404Y-135547666D02*
X126490214Y-135547666D01*
X127061642Y-135833380D02*
X126728309Y-134833380D01*
X126394976Y-135833380D01*
X125442595Y-135166714D02*
X125061642Y-135166714D01*
X125299738Y-134833380D02*
X125299738Y-135690523D01*
X125252119Y-135785761D01*
X125156880Y-135833380D01*
X125061642Y-135833380D01*
X124585452Y-135833380D02*
X124680690Y-135785761D01*
X124728309Y-135738142D01*
X124775928Y-135642904D01*
X124775928Y-135357190D01*
X124728309Y-135261952D01*
X124680690Y-135214333D01*
X124585452Y-135166714D01*
X124442595Y-135166714D01*
X124347357Y-135214333D01*
X124299738Y-135261952D01*
X124252119Y-135357190D01*
X124252119Y-135642904D01*
X124299738Y-135738142D01*
X124347357Y-135785761D01*
X124442595Y-135833380D01*
X124585452Y-135833380D01*
X123061642Y-135833380D02*
X123061642Y-134833380D01*
X123061642Y-135214333D02*
X122966404Y-135166714D01*
X122775928Y-135166714D01*
X122680690Y-135214333D01*
X122633071Y-135261952D01*
X122585452Y-135357190D01*
X122585452Y-135642904D01*
X122633071Y-135738142D01*
X122680690Y-135785761D01*
X122775928Y-135833380D01*
X122966404Y-135833380D01*
X123061642Y-135785761D01*
X122014023Y-135833380D02*
X122109261Y-135785761D01*
X122156880Y-135738142D01*
X122204500Y-135642904D01*
X122204500Y-135357190D01*
X122156880Y-135261952D01*
X122109261Y-135214333D01*
X122014023Y-135166714D01*
X121871166Y-135166714D01*
X121775928Y-135214333D01*
X121728309Y-135261952D01*
X121680690Y-135357190D01*
X121680690Y-135642904D01*
X121728309Y-135738142D01*
X121775928Y-135785761D01*
X121871166Y-135833380D01*
X122014023Y-135833380D01*
X121394976Y-135166714D02*
X121014023Y-135166714D01*
X121252119Y-134833380D02*
X121252119Y-135690523D01*
X121204500Y-135785761D01*
X121109261Y-135833380D01*
X121014023Y-135833380D01*
X120823547Y-135166714D02*
X120442595Y-135166714D01*
X120680690Y-134833380D02*
X120680690Y-135690523D01*
X120633071Y-135785761D01*
X120537833Y-135833380D01*
X120442595Y-135833380D01*
X119966404Y-135833380D02*
X120061642Y-135785761D01*
X120109261Y-135738142D01*
X120156880Y-135642904D01*
X120156880Y-135357190D01*
X120109261Y-135261952D01*
X120061642Y-135214333D01*
X119966404Y-135166714D01*
X119823547Y-135166714D01*
X119728309Y-135214333D01*
X119680690Y-135261952D01*
X119633071Y-135357190D01*
X119633071Y-135642904D01*
X119680690Y-135738142D01*
X119728309Y-135785761D01*
X119823547Y-135833380D01*
X119966404Y-135833380D01*
X119204500Y-135833380D02*
X119204500Y-135166714D01*
X119204500Y-135261952D02*
X119156880Y-135214333D01*
X119061642Y-135166714D01*
X118918785Y-135166714D01*
X118823547Y-135214333D01*
X118775928Y-135309571D01*
X118775928Y-135833380D01*
X118775928Y-135309571D02*
X118728309Y-135214333D01*
X118633071Y-135166714D01*
X118490214Y-135166714D01*
X118394976Y-135214333D01*
X118347357Y-135309571D01*
X118347357Y-135833380D01*
X117109261Y-135166714D02*
X117109261Y-136166714D01*
X117109261Y-135214333D02*
X117014023Y-135166714D01*
X116823547Y-135166714D01*
X116728309Y-135214333D01*
X116680690Y-135261952D01*
X116633071Y-135357190D01*
X116633071Y-135642904D01*
X116680690Y-135738142D01*
X116728309Y-135785761D01*
X116823547Y-135833380D01*
X117014023Y-135833380D01*
X117109261Y-135785761D01*
X115775928Y-135833380D02*
X115775928Y-135309571D01*
X115823547Y-135214333D01*
X115918785Y-135166714D01*
X116109261Y-135166714D01*
X116204500Y-135214333D01*
X115775928Y-135785761D02*
X115871166Y-135833380D01*
X116109261Y-135833380D01*
X116204500Y-135785761D01*
X116252119Y-135690523D01*
X116252119Y-135595285D01*
X116204500Y-135500047D01*
X116109261Y-135452428D01*
X115871166Y-135452428D01*
X115775928Y-135404809D01*
X114871166Y-135833380D02*
X114871166Y-134833380D01*
X114871166Y-135785761D02*
X114966404Y-135833380D01*
X115156880Y-135833380D01*
X115252119Y-135785761D01*
X115299738Y-135738142D01*
X115347357Y-135642904D01*
X115347357Y-135357190D01*
X115299738Y-135261952D01*
X115252119Y-135214333D01*
X115156880Y-135166714D01*
X114966404Y-135166714D01*
X114871166Y-135214333D01*
X113490214Y-135833380D02*
X113585452Y-135785761D01*
X113633071Y-135738142D01*
X113680690Y-135642904D01*
X113680690Y-135357190D01*
X113633071Y-135261952D01*
X113585452Y-135214333D01*
X113490214Y-135166714D01*
X113347357Y-135166714D01*
X113252119Y-135214333D01*
X113204500Y-135261952D01*
X113156880Y-135357190D01*
X113156880Y-135642904D01*
X113204500Y-135738142D01*
X113252119Y-135785761D01*
X113347357Y-135833380D01*
X113490214Y-135833380D01*
X112871166Y-135166714D02*
X112490214Y-135166714D01*
X112728309Y-135833380D02*
X112728309Y-134976238D01*
X112680690Y-134881000D01*
X112585452Y-134833380D01*
X112490214Y-134833380D01*
X111394976Y-135833380D02*
X111394976Y-134833380D01*
X111156880Y-134833380D01*
X111014023Y-134881000D01*
X110918785Y-134976238D01*
X110871166Y-135071476D01*
X110823547Y-135261952D01*
X110823547Y-135404809D01*
X110871166Y-135595285D01*
X110918785Y-135690523D01*
X111014023Y-135785761D01*
X111156880Y-135833380D01*
X111394976Y-135833380D01*
X110252119Y-135261952D02*
X110347357Y-135214333D01*
X110394976Y-135166714D01*
X110442595Y-135071476D01*
X110442595Y-135023857D01*
X110394976Y-134928619D01*
X110347357Y-134881000D01*
X110252119Y-134833380D01*
X110061642Y-134833380D01*
X109966404Y-134881000D01*
X109918785Y-134928619D01*
X109871166Y-135023857D01*
X109871166Y-135071476D01*
X109918785Y-135166714D01*
X109966404Y-135214333D01*
X110061642Y-135261952D01*
X110252119Y-135261952D01*
X110347357Y-135309571D01*
X110394976Y-135357190D01*
X110442595Y-135452428D01*
X110442595Y-135642904D01*
X110394976Y-135738142D01*
X110347357Y-135785761D01*
X110252119Y-135833380D01*
X110061642Y-135833380D01*
X109966404Y-135785761D01*
X109918785Y-135738142D01*
X109871166Y-135642904D01*
X109871166Y-135452428D01*
X109918785Y-135357190D01*
X109966404Y-135309571D01*
X110061642Y-135261952D01*
X129633071Y-136959571D02*
X129966404Y-136959571D01*
X129966404Y-137483380D02*
X129966404Y-136483380D01*
X129490214Y-136483380D01*
X129109261Y-137483380D02*
X129109261Y-136483380D01*
X128728309Y-136483380D01*
X128633071Y-136531000D01*
X128585452Y-136578619D01*
X128537833Y-136673857D01*
X128537833Y-136816714D01*
X128585452Y-136911952D01*
X128633071Y-136959571D01*
X128728309Y-137007190D01*
X129109261Y-137007190D01*
X127585452Y-136531000D02*
X127680690Y-136483380D01*
X127823547Y-136483380D01*
X127966404Y-136531000D01*
X128061642Y-136626238D01*
X128109261Y-136721476D01*
X128156880Y-136911952D01*
X128156880Y-137054809D01*
X128109261Y-137245285D01*
X128061642Y-137340523D01*
X127966404Y-137435761D01*
X127823547Y-137483380D01*
X127728309Y-137483380D01*
X127585452Y-137435761D01*
X127537833Y-137388142D01*
X127537833Y-137054809D01*
X127728309Y-137054809D01*
X127156880Y-137197666D02*
X126680690Y-137197666D01*
X127252119Y-137483380D02*
X126918785Y-136483380D01*
X126585452Y-137483380D01*
X125633071Y-136483380D02*
X125299738Y-137483380D01*
X124966404Y-136483380D01*
X124680690Y-137435761D02*
X124537833Y-137483380D01*
X124299738Y-137483380D01*
X124204500Y-137435761D01*
X124156880Y-137388142D01*
X124109261Y-137292904D01*
X124109261Y-137197666D01*
X124156880Y-137102428D01*
X124204500Y-137054809D01*
X124299738Y-137007190D01*
X124490214Y-136959571D01*
X124585452Y-136911952D01*
X124633071Y-136864333D01*
X124680690Y-136769095D01*
X124680690Y-136673857D01*
X124633071Y-136578619D01*
X124585452Y-136531000D01*
X124490214Y-136483380D01*
X124252119Y-136483380D01*
X124109261Y-136531000D01*
X123490214Y-137007190D02*
X123490214Y-137483380D01*
X123823547Y-136483380D02*
X123490214Y-137007190D01*
X123156880Y-136483380D01*
X122823547Y-137483380D02*
X122823547Y-136483380D01*
X122252119Y-137483380D01*
X122252119Y-136483380D01*
X121204500Y-137388142D02*
X121252119Y-137435761D01*
X121394976Y-137483380D01*
X121490214Y-137483380D01*
X121633071Y-137435761D01*
X121728309Y-137340523D01*
X121775928Y-137245285D01*
X121823547Y-137054809D01*
X121823547Y-136911952D01*
X121775928Y-136721476D01*
X121728309Y-136626238D01*
X121633071Y-136531000D01*
X121490214Y-136483380D01*
X121394976Y-136483380D01*
X121252119Y-136531000D01*
X121204500Y-136578619D01*
X120156880Y-136816714D02*
X119775928Y-136816714D01*
X120014023Y-136483380D02*
X120014023Y-137340523D01*
X119966404Y-137435761D01*
X119871166Y-137483380D01*
X119775928Y-137483380D01*
X119299738Y-137483380D02*
X119394976Y-137435761D01*
X119442595Y-137388142D01*
X119490214Y-137292904D01*
X119490214Y-137007190D01*
X119442595Y-136911952D01*
X119394976Y-136864333D01*
X119299738Y-136816714D01*
X119156880Y-136816714D01*
X119061642Y-136864333D01*
X119014023Y-136911952D01*
X118966404Y-137007190D01*
X118966404Y-137292904D01*
X119014023Y-137388142D01*
X119061642Y-137435761D01*
X119156880Y-137483380D01*
X119299738Y-137483380D01*
X117775928Y-137483380D02*
X117775928Y-136483380D01*
X117775928Y-136959571D02*
X117204500Y-136959571D01*
X117204500Y-137483380D02*
X117204500Y-136483380D01*
X116728309Y-137483380D02*
X116728309Y-136483380D01*
X116490214Y-136483380D01*
X116347357Y-136531000D01*
X116252119Y-136626238D01*
X116204500Y-136721476D01*
X116156880Y-136911952D01*
X116156880Y-137054809D01*
X116204500Y-137245285D01*
X116252119Y-137340523D01*
X116347357Y-137435761D01*
X116490214Y-137483380D01*
X116728309Y-137483380D01*
X115966404Y-137578619D02*
X115204500Y-137578619D01*
X115014023Y-137435761D02*
X114871166Y-137483380D01*
X114633071Y-137483380D01*
X114537833Y-137435761D01*
X114490214Y-137388142D01*
X114442595Y-137292904D01*
X114442595Y-137197666D01*
X114490214Y-137102428D01*
X114537833Y-137054809D01*
X114633071Y-137007190D01*
X114823547Y-136959571D01*
X114918785Y-136911952D01*
X114966404Y-136864333D01*
X115014023Y-136769095D01*
X115014023Y-136673857D01*
X114966404Y-136578619D01*
X114918785Y-136531000D01*
X114823547Y-136483380D01*
X114585452Y-136483380D01*
X114442595Y-136531000D01*
X114014023Y-137483380D02*
X114014023Y-136483380D01*
X113775928Y-136483380D01*
X113633071Y-136531000D01*
X113537833Y-136626238D01*
X113490214Y-136721476D01*
X113442595Y-136911952D01*
X113442595Y-137054809D01*
X113490214Y-137245285D01*
X113537833Y-137340523D01*
X113633071Y-137435761D01*
X113775928Y-137483380D01*
X114014023Y-137483380D01*
X113252119Y-137578619D02*
X112490214Y-137578619D01*
X112347357Y-136483380D02*
X111680690Y-137483380D01*
X111680690Y-136483380D02*
X112347357Y-137483380D01*
X110537833Y-136816714D02*
X110537833Y-137816714D01*
X110537833Y-136864333D02*
X110442595Y-136816714D01*
X110252119Y-136816714D01*
X110156880Y-136864333D01*
X110109261Y-136911952D01*
X110061642Y-137007190D01*
X110061642Y-137292904D01*
X110109261Y-137388142D01*
X110156880Y-137435761D01*
X110252119Y-137483380D01*
X110442595Y-137483380D01*
X110537833Y-137435761D01*
X109204500Y-137483380D02*
X109204500Y-136959571D01*
X109252119Y-136864333D01*
X109347357Y-136816714D01*
X109537833Y-136816714D01*
X109633071Y-136864333D01*
X109204500Y-137435761D02*
X109299738Y-137483380D01*
X109537833Y-137483380D01*
X109633071Y-137435761D01*
X109680690Y-137340523D01*
X109680690Y-137245285D01*
X109633071Y-137150047D01*
X109537833Y-137102428D01*
X109299738Y-137102428D01*
X109204500Y-137054809D01*
X108299738Y-137483380D02*
X108299738Y-136483380D01*
X108299738Y-137435761D02*
X108394976Y-137483380D01*
X108585452Y-137483380D01*
X108680690Y-137435761D01*
X108728309Y-137388142D01*
X108775928Y-137292904D01*
X108775928Y-137007190D01*
X108728309Y-136911952D01*
X108680690Y-136864333D01*
X108585452Y-136816714D01*
X108394976Y-136816714D01*
X108299738Y-136864333D01*
X130061642Y-138133380D02*
X129442595Y-138133380D01*
X129775928Y-138514333D01*
X129633071Y-138514333D01*
X129537833Y-138561952D01*
X129490214Y-138609571D01*
X129442595Y-138704809D01*
X129442595Y-138942904D01*
X129490214Y-139038142D01*
X129537833Y-139085761D01*
X129633071Y-139133380D01*
X129918785Y-139133380D01*
X130014023Y-139085761D01*
X130061642Y-139038142D01*
X129156880Y-138133380D02*
X128823547Y-139133380D01*
X128490214Y-138133380D01*
X128252119Y-138133380D02*
X127633071Y-138133380D01*
X127966404Y-138514333D01*
X127823547Y-138514333D01*
X127728309Y-138561952D01*
X127680690Y-138609571D01*
X127633071Y-138704809D01*
X127633071Y-138942904D01*
X127680690Y-139038142D01*
X127728309Y-139085761D01*
X127823547Y-139133380D01*
X128109261Y-139133380D01*
X128204500Y-139085761D01*
X128252119Y-139038142D01*
X126585452Y-138466714D02*
X126204500Y-138466714D01*
X126442595Y-138133380D02*
X126442595Y-138990523D01*
X126394976Y-139085761D01*
X126299738Y-139133380D01*
X126204500Y-139133380D01*
X125728309Y-139133380D02*
X125823547Y-139085761D01*
X125871166Y-139038142D01*
X125918785Y-138942904D01*
X125918785Y-138657190D01*
X125871166Y-138561952D01*
X125823547Y-138514333D01*
X125728309Y-138466714D01*
X125585452Y-138466714D01*
X125490214Y-138514333D01*
X125442595Y-138561952D01*
X125394976Y-138657190D01*
X125394976Y-138942904D01*
X125442595Y-139038142D01*
X125490214Y-139085761D01*
X125585452Y-139133380D01*
X125728309Y-139133380D01*
X124204500Y-139133380D02*
X124204500Y-138133380D01*
X124204500Y-138514333D02*
X124109261Y-138466714D01*
X123918785Y-138466714D01*
X123823547Y-138514333D01*
X123775928Y-138561952D01*
X123728309Y-138657190D01*
X123728309Y-138942904D01*
X123775928Y-139038142D01*
X123823547Y-139085761D01*
X123918785Y-139133380D01*
X124109261Y-139133380D01*
X124204500Y-139085761D01*
X123156880Y-139133380D02*
X123252119Y-139085761D01*
X123299738Y-139038142D01*
X123347357Y-138942904D01*
X123347357Y-138657190D01*
X123299738Y-138561952D01*
X123252119Y-138514333D01*
X123156880Y-138466714D01*
X123014023Y-138466714D01*
X122918785Y-138514333D01*
X122871166Y-138561952D01*
X122823547Y-138657190D01*
X122823547Y-138942904D01*
X122871166Y-139038142D01*
X122918785Y-139085761D01*
X123014023Y-139133380D01*
X123156880Y-139133380D01*
X122537833Y-138466714D02*
X122156880Y-138466714D01*
X122394976Y-138133380D02*
X122394976Y-138990523D01*
X122347357Y-139085761D01*
X122252119Y-139133380D01*
X122156880Y-139133380D01*
X121966404Y-138466714D02*
X121585452Y-138466714D01*
X121823547Y-138133380D02*
X121823547Y-138990523D01*
X121775928Y-139085761D01*
X121680690Y-139133380D01*
X121585452Y-139133380D01*
X121109261Y-139133380D02*
X121204500Y-139085761D01*
X121252119Y-139038142D01*
X121299738Y-138942904D01*
X121299738Y-138657190D01*
X121252119Y-138561952D01*
X121204500Y-138514333D01*
X121109261Y-138466714D01*
X120966404Y-138466714D01*
X120871166Y-138514333D01*
X120823547Y-138561952D01*
X120775928Y-138657190D01*
X120775928Y-138942904D01*
X120823547Y-139038142D01*
X120871166Y-139085761D01*
X120966404Y-139133380D01*
X121109261Y-139133380D01*
X120347357Y-139133380D02*
X120347357Y-138466714D01*
X120347357Y-138561952D02*
X120299738Y-138514333D01*
X120204500Y-138466714D01*
X120061642Y-138466714D01*
X119966404Y-138514333D01*
X119918785Y-138609571D01*
X119918785Y-139133380D01*
X119918785Y-138609571D02*
X119871166Y-138514333D01*
X119775928Y-138466714D01*
X119633071Y-138466714D01*
X119537833Y-138514333D01*
X119490214Y-138609571D01*
X119490214Y-139133380D01*
X118252119Y-138466714D02*
X118252119Y-139466714D01*
X118252119Y-138514333D02*
X118156880Y-138466714D01*
X117966404Y-138466714D01*
X117871166Y-138514333D01*
X117823547Y-138561952D01*
X117775928Y-138657190D01*
X117775928Y-138942904D01*
X117823547Y-139038142D01*
X117871166Y-139085761D01*
X117966404Y-139133380D01*
X118156880Y-139133380D01*
X118252119Y-139085761D01*
X116918785Y-139133380D02*
X116918785Y-138609571D01*
X116966404Y-138514333D01*
X117061642Y-138466714D01*
X117252119Y-138466714D01*
X117347357Y-138514333D01*
X116918785Y-139085761D02*
X117014023Y-139133380D01*
X117252119Y-139133380D01*
X117347357Y-139085761D01*
X117394976Y-138990523D01*
X117394976Y-138895285D01*
X117347357Y-138800047D01*
X117252119Y-138752428D01*
X117014023Y-138752428D01*
X116918785Y-138704809D01*
X116014023Y-139133380D02*
X116014023Y-138133380D01*
X116014023Y-139085761D02*
X116109261Y-139133380D01*
X116299738Y-139133380D01*
X116394976Y-139085761D01*
X116442595Y-139038142D01*
X116490214Y-138942904D01*
X116490214Y-138657190D01*
X116442595Y-138561952D01*
X116394976Y-138514333D01*
X116299738Y-138466714D01*
X116109261Y-138466714D01*
X116014023Y-138514333D01*
X114633071Y-139133380D02*
X114728309Y-139085761D01*
X114775928Y-139038142D01*
X114823547Y-138942904D01*
X114823547Y-138657190D01*
X114775928Y-138561952D01*
X114728309Y-138514333D01*
X114633071Y-138466714D01*
X114490214Y-138466714D01*
X114394976Y-138514333D01*
X114347357Y-138561952D01*
X114299738Y-138657190D01*
X114299738Y-138942904D01*
X114347357Y-139038142D01*
X114394976Y-139085761D01*
X114490214Y-139133380D01*
X114633071Y-139133380D01*
X114014023Y-138466714D02*
X113633071Y-138466714D01*
X113871166Y-139133380D02*
X113871166Y-138276238D01*
X113823547Y-138181000D01*
X113728309Y-138133380D01*
X113633071Y-138133380D01*
X112537833Y-139133380D02*
X112537833Y-138133380D01*
X112299738Y-138133380D01*
X112156880Y-138181000D01*
X112061642Y-138276238D01*
X112014023Y-138371476D01*
X111966404Y-138561952D01*
X111966404Y-138704809D01*
X112014023Y-138895285D01*
X112061642Y-138990523D01*
X112156880Y-139085761D01*
X112299738Y-139133380D01*
X112537833Y-139133380D01*
X111014023Y-139133380D02*
X111585452Y-139133380D01*
X111299738Y-139133380D02*
X111299738Y-138133380D01*
X111394976Y-138276238D01*
X111490214Y-138371476D01*
X111585452Y-138419095D01*
X110156880Y-138466714D02*
X110156880Y-139133380D01*
X110394976Y-138085761D02*
X110633071Y-138800047D01*
X110014023Y-138800047D01*
X108918785Y-138085761D02*
X109775928Y-139371476D01*
X108585452Y-139133380D02*
X108585452Y-138133380D01*
X108347357Y-138133380D01*
X108204500Y-138181000D01*
X108109261Y-138276238D01*
X108061642Y-138371476D01*
X108014023Y-138561952D01*
X108014023Y-138704809D01*
X108061642Y-138895285D01*
X108109261Y-138990523D01*
X108204500Y-139085761D01*
X108347357Y-139133380D01*
X108585452Y-139133380D01*
X107252119Y-138609571D02*
X107109261Y-138657190D01*
X107061642Y-138704809D01*
X107014023Y-138800047D01*
X107014023Y-138942904D01*
X107061642Y-139038142D01*
X107109261Y-139085761D01*
X107204500Y-139133380D01*
X107585452Y-139133380D01*
X107585452Y-138133380D01*
X107252119Y-138133380D01*
X107156880Y-138181000D01*
X107109261Y-138228619D01*
X107061642Y-138323857D01*
X107061642Y-138419095D01*
X107109261Y-138514333D01*
X107156880Y-138561952D01*
X107252119Y-138609571D01*
X107585452Y-138609571D01*
X106061642Y-138181000D02*
X106156880Y-138133380D01*
X106299738Y-138133380D01*
X106442595Y-138181000D01*
X106537833Y-138276238D01*
X106585452Y-138371476D01*
X106633071Y-138561952D01*
X106633071Y-138704809D01*
X106585452Y-138895285D01*
X106537833Y-138990523D01*
X106442595Y-139085761D01*
X106299738Y-139133380D01*
X106204500Y-139133380D01*
X106061642Y-139085761D01*
X106014023Y-139038142D01*
X106014023Y-138704809D01*
X106204500Y-138704809D01*
X105633071Y-138228619D02*
X105585452Y-138181000D01*
X105490214Y-138133380D01*
X105252119Y-138133380D01*
X105156880Y-138181000D01*
X105109261Y-138228619D01*
X105061642Y-138323857D01*
X105061642Y-138419095D01*
X105109261Y-138561952D01*
X105680690Y-139133380D01*
X105061642Y-139133380D01*
X129442595Y-139831000D02*
X129537833Y-139783380D01*
X129680690Y-139783380D01*
X129823547Y-139831000D01*
X129918785Y-139926238D01*
X129966404Y-140021476D01*
X130014023Y-140211952D01*
X130014023Y-140354809D01*
X129966404Y-140545285D01*
X129918785Y-140640523D01*
X129823547Y-140735761D01*
X129680690Y-140783380D01*
X129585452Y-140783380D01*
X129442595Y-140735761D01*
X129394976Y-140688142D01*
X129394976Y-140354809D01*
X129585452Y-140354809D01*
X128966404Y-140783380D02*
X128966404Y-139783380D01*
X128394976Y-140783380D01*
X128394976Y-139783380D01*
X127918785Y-140783380D02*
X127918785Y-139783380D01*
X127680690Y-139783380D01*
X127537833Y-139831000D01*
X127442595Y-139926238D01*
X127394976Y-140021476D01*
X127347357Y-140211952D01*
X127347357Y-140354809D01*
X127394976Y-140545285D01*
X127442595Y-140640523D01*
X127537833Y-140735761D01*
X127680690Y-140783380D01*
X127918785Y-140783380D01*
X126299738Y-140116714D02*
X125918785Y-140116714D01*
X126156880Y-139783380D02*
X126156880Y-140640523D01*
X126109261Y-140735761D01*
X126014023Y-140783380D01*
X125918785Y-140783380D01*
X125442595Y-140783380D02*
X125537833Y-140735761D01*
X125585452Y-140688142D01*
X125633071Y-140592904D01*
X125633071Y-140307190D01*
X125585452Y-140211952D01*
X125537833Y-140164333D01*
X125442595Y-140116714D01*
X125299738Y-140116714D01*
X125204500Y-140164333D01*
X125156880Y-140211952D01*
X125109261Y-140307190D01*
X125109261Y-140592904D01*
X125156880Y-140688142D01*
X125204500Y-140735761D01*
X125299738Y-140783380D01*
X125442595Y-140783380D01*
X123918785Y-140783380D02*
X123918785Y-140116714D01*
X123918785Y-139783380D02*
X123966404Y-139831000D01*
X123918785Y-139878619D01*
X123871166Y-139831000D01*
X123918785Y-139783380D01*
X123918785Y-139878619D01*
X123442595Y-140116714D02*
X123442595Y-140783380D01*
X123442595Y-140211952D02*
X123394976Y-140164333D01*
X123299738Y-140116714D01*
X123156880Y-140116714D01*
X123061642Y-140164333D01*
X123014023Y-140259571D01*
X123014023Y-140783380D01*
X122537833Y-140116714D02*
X122537833Y-140783380D01*
X122537833Y-140211952D02*
X122490214Y-140164333D01*
X122394976Y-140116714D01*
X122252119Y-140116714D01*
X122156880Y-140164333D01*
X122109261Y-140259571D01*
X122109261Y-140783380D01*
X121252119Y-140735761D02*
X121347357Y-140783380D01*
X121537833Y-140783380D01*
X121633071Y-140735761D01*
X121680690Y-140640523D01*
X121680690Y-140259571D01*
X121633071Y-140164333D01*
X121537833Y-140116714D01*
X121347357Y-140116714D01*
X121252119Y-140164333D01*
X121204500Y-140259571D01*
X121204500Y-140354809D01*
X121680690Y-140450047D01*
X120775928Y-140783380D02*
X120775928Y-140116714D01*
X120775928Y-140307190D02*
X120728309Y-140211952D01*
X120680690Y-140164333D01*
X120585452Y-140116714D01*
X120490214Y-140116714D01*
X119394976Y-140783380D02*
X119394976Y-139783380D01*
X119394976Y-140164333D02*
X119299738Y-140116714D01*
X119109261Y-140116714D01*
X119014023Y-140164333D01*
X118966404Y-140211952D01*
X118918785Y-140307190D01*
X118918785Y-140592904D01*
X118966404Y-140688142D01*
X119014023Y-140735761D01*
X119109261Y-140783380D01*
X119299738Y-140783380D01*
X119394976Y-140735761D01*
X118347357Y-140783380D02*
X118442595Y-140735761D01*
X118490214Y-140688142D01*
X118537833Y-140592904D01*
X118537833Y-140307190D01*
X118490214Y-140211952D01*
X118442595Y-140164333D01*
X118347357Y-140116714D01*
X118204500Y-140116714D01*
X118109261Y-140164333D01*
X118061642Y-140211952D01*
X118014023Y-140307190D01*
X118014023Y-140592904D01*
X118061642Y-140688142D01*
X118109261Y-140735761D01*
X118204500Y-140783380D01*
X118347357Y-140783380D01*
X117728309Y-140116714D02*
X117347357Y-140116714D01*
X117585452Y-139783380D02*
X117585452Y-140640523D01*
X117537833Y-140735761D01*
X117442595Y-140783380D01*
X117347357Y-140783380D01*
X117156880Y-140116714D02*
X116775928Y-140116714D01*
X117014023Y-139783380D02*
X117014023Y-140640523D01*
X116966404Y-140735761D01*
X116871166Y-140783380D01*
X116775928Y-140783380D01*
X116299738Y-140783380D02*
X116394976Y-140735761D01*
X116442595Y-140688142D01*
X116490214Y-140592904D01*
X116490214Y-140307190D01*
X116442595Y-140211952D01*
X116394976Y-140164333D01*
X116299738Y-140116714D01*
X116156880Y-140116714D01*
X116061642Y-140164333D01*
X116014023Y-140211952D01*
X115966404Y-140307190D01*
X115966404Y-140592904D01*
X116014023Y-140688142D01*
X116061642Y-140735761D01*
X116156880Y-140783380D01*
X116299738Y-140783380D01*
X115537833Y-140783380D02*
X115537833Y-140116714D01*
X115537833Y-140211952D02*
X115490214Y-140164333D01*
X115394976Y-140116714D01*
X115252119Y-140116714D01*
X115156880Y-140164333D01*
X115109261Y-140259571D01*
X115109261Y-140783380D01*
X115109261Y-140259571D02*
X115061642Y-140164333D01*
X114966404Y-140116714D01*
X114823547Y-140116714D01*
X114728309Y-140164333D01*
X114680690Y-140259571D01*
X114680690Y-140783380D01*
X113442595Y-140116714D02*
X113442595Y-141116714D01*
X113442595Y-140164333D02*
X113347357Y-140116714D01*
X113156880Y-140116714D01*
X113061642Y-140164333D01*
X113014023Y-140211952D01*
X112966404Y-140307190D01*
X112966404Y-140592904D01*
X113014023Y-140688142D01*
X113061642Y-140735761D01*
X113156880Y-140783380D01*
X113347357Y-140783380D01*
X113442595Y-140735761D01*
X112109261Y-140783380D02*
X112109261Y-140259571D01*
X112156880Y-140164333D01*
X112252119Y-140116714D01*
X112442595Y-140116714D01*
X112537833Y-140164333D01*
X112109261Y-140735761D02*
X112204500Y-140783380D01*
X112442595Y-140783380D01*
X112537833Y-140735761D01*
X112585452Y-140640523D01*
X112585452Y-140545285D01*
X112537833Y-140450047D01*
X112442595Y-140402428D01*
X112204500Y-140402428D01*
X112109261Y-140354809D01*
X111204500Y-140783380D02*
X111204500Y-139783380D01*
X111204500Y-140735761D02*
X111299738Y-140783380D01*
X111490214Y-140783380D01*
X111585452Y-140735761D01*
X111633071Y-140688142D01*
X111680690Y-140592904D01*
X111680690Y-140307190D01*
X111633071Y-140211952D01*
X111585452Y-140164333D01*
X111490214Y-140116714D01*
X111299738Y-140116714D01*
X111204500Y-140164333D01*
X109823547Y-140783380D02*
X109918785Y-140735761D01*
X109966404Y-140688142D01*
X110014023Y-140592904D01*
X110014023Y-140307190D01*
X109966404Y-140211952D01*
X109918785Y-140164333D01*
X109823547Y-140116714D01*
X109680690Y-140116714D01*
X109585452Y-140164333D01*
X109537833Y-140211952D01*
X109490214Y-140307190D01*
X109490214Y-140592904D01*
X109537833Y-140688142D01*
X109585452Y-140735761D01*
X109680690Y-140783380D01*
X109823547Y-140783380D01*
X109204500Y-140116714D02*
X108823547Y-140116714D01*
X109061642Y-140783380D02*
X109061642Y-139926238D01*
X109014023Y-139831000D01*
X108918785Y-139783380D01*
X108823547Y-139783380D01*
X107775928Y-140735761D02*
X107633071Y-140783380D01*
X107394976Y-140783380D01*
X107299738Y-140735761D01*
X107252119Y-140688142D01*
X107204500Y-140592904D01*
X107204500Y-140497666D01*
X107252119Y-140402428D01*
X107299738Y-140354809D01*
X107394976Y-140307190D01*
X107585452Y-140259571D01*
X107680690Y-140211952D01*
X107728309Y-140164333D01*
X107775928Y-140069095D01*
X107775928Y-139973857D01*
X107728309Y-139878619D01*
X107680690Y-139831000D01*
X107585452Y-139783380D01*
X107347357Y-139783380D01*
X107204500Y-139831000D01*
X106871166Y-139783380D02*
X106633071Y-140783380D01*
X106442595Y-140069095D01*
X106252119Y-140783380D01*
X106014023Y-139783380D01*
X105680690Y-139878619D02*
X105633071Y-139831000D01*
X105537833Y-139783380D01*
X105299738Y-139783380D01*
X105204500Y-139831000D01*
X105156880Y-139878619D01*
X105109261Y-139973857D01*
X105109261Y-140069095D01*
X105156880Y-140211952D01*
X105728309Y-140783380D01*
X105109261Y-140783380D01*
M02*
