%TF.GenerationSoftware,KiCad,Pcbnew,5.1.12-84ad8e8a86~92~ubuntu20.04.1*%
%TF.CreationDate,2022-06-17T21:56:11+02:00*%
%TF.ProjectId,bkm-68x-simple-hv-addon,626b6d2d-3638-4782-9d73-696d706c652d,rev?*%
%TF.SameCoordinates,Original*%
%TF.FileFunction,Copper,L1,Top*%
%TF.FilePolarity,Positive*%
%FSLAX46Y46*%
G04 Gerber Fmt 4.6, Leading zero omitted, Abs format (unit mm)*
G04 Created by KiCad (PCBNEW 5.1.12-84ad8e8a86~92~ubuntu20.04.1) date 2022-06-17 21:56:11*
%MOMM*%
%LPD*%
G01*
G04 APERTURE LIST*
%TA.AperFunction,ComponentPad*%
%ADD10C,1.500000*%
%TD*%
%TA.AperFunction,ComponentPad*%
%ADD11C,3.200000*%
%TD*%
%TA.AperFunction,SMDPad,CuDef*%
%ADD12R,2.500000X2.500000*%
%TD*%
%TA.AperFunction,SMDPad,CuDef*%
%ADD13R,0.900000X0.800000*%
%TD*%
%TA.AperFunction,ComponentPad*%
%ADD14C,2.600000*%
%TD*%
%TA.AperFunction,SMDPad,CuDef*%
%ADD15R,1.560000X0.650000*%
%TD*%
%TA.AperFunction,ViaPad*%
%ADD16C,0.800000*%
%TD*%
%TA.AperFunction,Conductor*%
%ADD17C,0.500000*%
%TD*%
%TA.AperFunction,Conductor*%
%ADD18C,0.254000*%
%TD*%
%TA.AperFunction,Conductor*%
%ADD19C,0.100000*%
%TD*%
G04 APERTURE END LIST*
%TO.P,C202,2*%
%TO.N,GND*%
%TA.AperFunction,SMDPad,CuDef*%
G36*
G01*
X118143000Y-143071000D02*
X119093000Y-143071000D01*
G75*
G02*
X119343000Y-143321000I0J-250000D01*
G01*
X119343000Y-143996000D01*
G75*
G02*
X119093000Y-144246000I-250000J0D01*
G01*
X118143000Y-144246000D01*
G75*
G02*
X117893000Y-143996000I0J250000D01*
G01*
X117893000Y-143321000D01*
G75*
G02*
X118143000Y-143071000I250000J0D01*
G01*
G37*
%TD.AperFunction*%
%TO.P,C202,1*%
%TO.N,+3V3*%
%TA.AperFunction,SMDPad,CuDef*%
G36*
G01*
X118143000Y-140996000D02*
X119093000Y-140996000D01*
G75*
G02*
X119343000Y-141246000I0J-250000D01*
G01*
X119343000Y-141921000D01*
G75*
G02*
X119093000Y-142171000I-250000J0D01*
G01*
X118143000Y-142171000D01*
G75*
G02*
X117893000Y-141921000I0J250000D01*
G01*
X117893000Y-141246000D01*
G75*
G02*
X118143000Y-140996000I250000J0D01*
G01*
G37*
%TD.AperFunction*%
%TD*%
D10*
%TO.P,J101,2*%
%TO.N,GNDA*%
X106879201Y-128016000D03*
D11*
X101799201Y-120396000D03*
X101799201Y-130556000D03*
D10*
%TO.P,J101,1*%
%TO.N,Net-(J101-Pad1)*%
X106879201Y-125476000D03*
%TD*%
D12*
%TO.P,TP203,1*%
%TO.N,Net-(R201-Pad2)*%
X129032000Y-144272000D03*
%TD*%
%TO.P,C201,2*%
%TO.N,GND*%
%TA.AperFunction,SMDPad,CuDef*%
G36*
G01*
X126915000Y-128617000D02*
X125815000Y-128617000D01*
G75*
G02*
X125565000Y-128367000I0J250000D01*
G01*
X125565000Y-125367000D01*
G75*
G02*
X125815000Y-125117000I250000J0D01*
G01*
X126915000Y-125117000D01*
G75*
G02*
X127165000Y-125367000I0J-250000D01*
G01*
X127165000Y-128367000D01*
G75*
G02*
X126915000Y-128617000I-250000J0D01*
G01*
G37*
%TD.AperFunction*%
%TO.P,C201,1*%
%TO.N,+3V3*%
%TA.AperFunction,SMDPad,CuDef*%
G36*
G01*
X126915000Y-134217000D02*
X125815000Y-134217000D01*
G75*
G02*
X125565000Y-133967000I0J250000D01*
G01*
X125565000Y-130967000D01*
G75*
G02*
X125815000Y-130717000I250000J0D01*
G01*
X126915000Y-130717000D01*
G75*
G02*
X127165000Y-130967000I0J-250000D01*
G01*
X127165000Y-133967000D01*
G75*
G02*
X126915000Y-134217000I-250000J0D01*
G01*
G37*
%TD.AperFunction*%
%TD*%
%TO.P,C101,1*%
%TO.N,+5VA*%
%TA.AperFunction,SMDPad,CuDef*%
G36*
G01*
X114735700Y-125936600D02*
X113635700Y-125936600D01*
G75*
G02*
X113385700Y-125686600I0J250000D01*
G01*
X113385700Y-122686600D01*
G75*
G02*
X113635700Y-122436600I250000J0D01*
G01*
X114735700Y-122436600D01*
G75*
G02*
X114985700Y-122686600I0J-250000D01*
G01*
X114985700Y-125686600D01*
G75*
G02*
X114735700Y-125936600I-250000J0D01*
G01*
G37*
%TD.AperFunction*%
%TO.P,C101,2*%
%TO.N,GNDA*%
%TA.AperFunction,SMDPad,CuDef*%
G36*
G01*
X114735700Y-120336600D02*
X113635700Y-120336600D01*
G75*
G02*
X113385700Y-120086600I0J250000D01*
G01*
X113385700Y-117086600D01*
G75*
G02*
X113635700Y-116836600I250000J0D01*
G01*
X114735700Y-116836600D01*
G75*
G02*
X114985700Y-117086600I0J-250000D01*
G01*
X114985700Y-120086600D01*
G75*
G02*
X114735700Y-120336600I-250000J0D01*
G01*
G37*
%TD.AperFunction*%
%TD*%
D13*
%TO.P,Q101,1*%
%TO.N,Net-(Q101-Pad1)*%
X115967000Y-132847400D03*
%TO.P,Q101,2*%
%TO.N,GNDA*%
X115967000Y-134747400D03*
%TO.P,Q101,3*%
%TO.N,Net-(Q101-Pad3)*%
X117967000Y-133797400D03*
%TD*%
D12*
%TO.P,TP101,1*%
%TO.N,+5VA*%
X128520000Y-117750000D03*
%TD*%
%TO.P,TP102,1*%
%TO.N,GNDA*%
X124700000Y-117754400D03*
%TD*%
%TO.P,TP201,1*%
%TO.N,+3V3*%
X129032000Y-136906000D03*
%TD*%
%TO.P,TP202,1*%
%TO.N,GND*%
X129032000Y-140589000D03*
%TD*%
%TO.P,C102,1*%
%TO.N,+5VA*%
%TA.AperFunction,SMDPad,CuDef*%
G36*
G01*
X119296200Y-122617900D02*
X118346200Y-122617900D01*
G75*
G02*
X118096200Y-122367900I0J250000D01*
G01*
X118096200Y-121692900D01*
G75*
G02*
X118346200Y-121442900I250000J0D01*
G01*
X119296200Y-121442900D01*
G75*
G02*
X119546200Y-121692900I0J-250000D01*
G01*
X119546200Y-122367900D01*
G75*
G02*
X119296200Y-122617900I-250000J0D01*
G01*
G37*
%TD.AperFunction*%
%TO.P,C102,2*%
%TO.N,GNDA*%
%TA.AperFunction,SMDPad,CuDef*%
G36*
G01*
X119296200Y-120542900D02*
X118346200Y-120542900D01*
G75*
G02*
X118096200Y-120292900I0J250000D01*
G01*
X118096200Y-119617900D01*
G75*
G02*
X118346200Y-119367900I250000J0D01*
G01*
X119296200Y-119367900D01*
G75*
G02*
X119546200Y-119617900I0J-250000D01*
G01*
X119546200Y-120292900D01*
G75*
G02*
X119296200Y-120542900I-250000J0D01*
G01*
G37*
%TD.AperFunction*%
%TD*%
%TO.P,R101,2*%
%TO.N,Net-(J101-Pad1)*%
%TA.AperFunction,SMDPad,CuDef*%
G36*
G01*
X112599900Y-130756599D02*
X112599900Y-131656601D01*
G75*
G02*
X112349901Y-131906600I-249999J0D01*
G01*
X111649899Y-131906600D01*
G75*
G02*
X111399900Y-131656601I0J249999D01*
G01*
X111399900Y-130756599D01*
G75*
G02*
X111649899Y-130506600I249999J0D01*
G01*
X112349901Y-130506600D01*
G75*
G02*
X112599900Y-130756599I0J-249999D01*
G01*
G37*
%TD.AperFunction*%
%TO.P,R101,1*%
%TO.N,Net-(Q101-Pad1)*%
%TA.AperFunction,SMDPad,CuDef*%
G36*
G01*
X114599900Y-130756599D02*
X114599900Y-131656601D01*
G75*
G02*
X114349901Y-131906600I-249999J0D01*
G01*
X113649899Y-131906600D01*
G75*
G02*
X113399900Y-131656601I0J249999D01*
G01*
X113399900Y-130756599D01*
G75*
G02*
X113649899Y-130506600I249999J0D01*
G01*
X114349901Y-130506600D01*
G75*
G02*
X114599900Y-130756599I0J-249999D01*
G01*
G37*
%TD.AperFunction*%
%TD*%
%TO.P,R102,1*%
%TO.N,Net-(Q101-Pad3)*%
%TA.AperFunction,SMDPad,CuDef*%
G36*
G01*
X118707701Y-131460400D02*
X117807699Y-131460400D01*
G75*
G02*
X117557700Y-131210401I0J249999D01*
G01*
X117557700Y-130510399D01*
G75*
G02*
X117807699Y-130260400I249999J0D01*
G01*
X118707701Y-130260400D01*
G75*
G02*
X118957700Y-130510399I0J-249999D01*
G01*
X118957700Y-131210401D01*
G75*
G02*
X118707701Y-131460400I-249999J0D01*
G01*
G37*
%TD.AperFunction*%
%TO.P,R102,2*%
%TO.N,+5VA*%
%TA.AperFunction,SMDPad,CuDef*%
G36*
G01*
X118707701Y-129460400D02*
X117807699Y-129460400D01*
G75*
G02*
X117557700Y-129210401I0J249999D01*
G01*
X117557700Y-128510399D01*
G75*
G02*
X117807699Y-128260400I249999J0D01*
G01*
X118707701Y-128260400D01*
G75*
G02*
X118957700Y-128510399I0J-249999D01*
G01*
X118957700Y-129210401D01*
G75*
G02*
X118707701Y-129460400I-249999J0D01*
G01*
G37*
%TD.AperFunction*%
%TD*%
%TO.P,R103,2*%
%TO.N,GNDA*%
%TA.AperFunction,SMDPad,CuDef*%
G36*
G01*
X113412600Y-134933201D02*
X113412600Y-134033199D01*
G75*
G02*
X113662599Y-133783200I249999J0D01*
G01*
X114362601Y-133783200D01*
G75*
G02*
X114612600Y-134033199I0J-249999D01*
G01*
X114612600Y-134933201D01*
G75*
G02*
X114362601Y-135183200I-249999J0D01*
G01*
X113662599Y-135183200D01*
G75*
G02*
X113412600Y-134933201I0J249999D01*
G01*
G37*
%TD.AperFunction*%
%TO.P,R103,1*%
%TO.N,Net-(J101-Pad1)*%
%TA.AperFunction,SMDPad,CuDef*%
G36*
G01*
X111412600Y-134933201D02*
X111412600Y-134033199D01*
G75*
G02*
X111662599Y-133783200I249999J0D01*
G01*
X112362601Y-133783200D01*
G75*
G02*
X112612600Y-134033199I0J-249999D01*
G01*
X112612600Y-134933201D01*
G75*
G02*
X112362601Y-135183200I-249999J0D01*
G01*
X111662599Y-135183200D01*
G75*
G02*
X111412600Y-134933201I0J249999D01*
G01*
G37*
%TD.AperFunction*%
%TD*%
%TO.P,R201,1*%
%TO.N,Net-(R201-Pad1)*%
%TA.AperFunction,SMDPad,CuDef*%
G36*
G01*
X117907000Y-146373001D02*
X117907000Y-145472999D01*
G75*
G02*
X118156999Y-145223000I249999J0D01*
G01*
X118857001Y-145223000D01*
G75*
G02*
X119107000Y-145472999I0J-249999D01*
G01*
X119107000Y-146373001D01*
G75*
G02*
X118857001Y-146623000I-249999J0D01*
G01*
X118156999Y-146623000D01*
G75*
G02*
X117907000Y-146373001I0J249999D01*
G01*
G37*
%TD.AperFunction*%
%TO.P,R201,2*%
%TO.N,Net-(R201-Pad2)*%
%TA.AperFunction,SMDPad,CuDef*%
G36*
G01*
X119907000Y-146373001D02*
X119907000Y-145472999D01*
G75*
G02*
X120156999Y-145223000I249999J0D01*
G01*
X120857001Y-145223000D01*
G75*
G02*
X121107000Y-145472999I0J-249999D01*
G01*
X121107000Y-146373001D01*
G75*
G02*
X120857001Y-146623000I-249999J0D01*
G01*
X120156999Y-146623000D01*
G75*
G02*
X119907000Y-146373001I0J249999D01*
G01*
G37*
%TD.AperFunction*%
%TD*%
D14*
%TO.P,H101,S*%
%TO.N,N/C*%
X99227000Y-142434000D03*
X104227000Y-142434000D03*
X104227000Y-134934000D03*
X99227000Y-134934000D03*
%TD*%
%TO.P,C103,1*%
%TO.N,GND*%
%TA.AperFunction,SMDPad,CuDef*%
G36*
G01*
X120490000Y-139039000D02*
X119540000Y-139039000D01*
G75*
G02*
X119290000Y-138789000I0J250000D01*
G01*
X119290000Y-138114000D01*
G75*
G02*
X119540000Y-137864000I250000J0D01*
G01*
X120490000Y-137864000D01*
G75*
G02*
X120740000Y-138114000I0J-250000D01*
G01*
X120740000Y-138789000D01*
G75*
G02*
X120490000Y-139039000I-250000J0D01*
G01*
G37*
%TD.AperFunction*%
%TO.P,C103,2*%
%TO.N,GNDA*%
%TA.AperFunction,SMDPad,CuDef*%
G36*
G01*
X120490000Y-136964000D02*
X119540000Y-136964000D01*
G75*
G02*
X119290000Y-136714000I0J250000D01*
G01*
X119290000Y-136039000D01*
G75*
G02*
X119540000Y-135789000I250000J0D01*
G01*
X120490000Y-135789000D01*
G75*
G02*
X120740000Y-136039000I0J-250000D01*
G01*
X120740000Y-136714000D01*
G75*
G02*
X120490000Y-136964000I-250000J0D01*
G01*
G37*
%TD.AperFunction*%
%TD*%
D15*
%TO.P,U201,1*%
%TO.N,N/C*%
X113458000Y-141671000D03*
%TO.P,U201,2*%
%TO.N,Net-(Q101-Pad3)*%
X113458000Y-142621000D03*
%TO.P,U201,3*%
%TO.N,GND*%
X113458000Y-143571000D03*
%TO.P,U201,4*%
%TO.N,Net-(R201-Pad1)*%
X116158000Y-143571000D03*
%TO.P,U201,5*%
%TO.N,+3V3*%
X116158000Y-141671000D03*
%TD*%
D16*
%TO.N,GNDA*%
X123100000Y-119300000D03*
X118872000Y-136398000D03*
%TO.N,GND*%
X120015000Y-139573000D03*
X112125800Y-143571000D03*
X119608600Y-144526000D03*
%TD*%
D17*
%TO.N,+5VA*%
X116665000Y-124186600D02*
X118821200Y-122030400D01*
X114185700Y-124186600D02*
X116665000Y-124186600D01*
X121386600Y-122047000D02*
X124714000Y-122047000D01*
X128520000Y-117750000D02*
X128520000Y-121280000D01*
X127753000Y-122047000D02*
X124714000Y-122047000D01*
X128520000Y-121280000D02*
X127753000Y-122047000D01*
X115360400Y-128860400D02*
X118257700Y-128860400D01*
X121370000Y-122030400D02*
X121386600Y-122047000D01*
X118821200Y-122030400D02*
X121370000Y-122030400D01*
X114185700Y-127685700D02*
X115360400Y-128860400D01*
X114185700Y-124186600D02*
X114185700Y-127685700D01*
%TO.N,GNDA*%
X124645600Y-117754400D02*
X123100000Y-119300000D01*
X124700000Y-117754400D02*
X124645600Y-117754400D01*
X118893500Y-136376500D02*
X118872000Y-136398000D01*
X119993500Y-136398000D02*
X120015000Y-136376500D01*
X118872000Y-136398000D02*
X119993500Y-136398000D01*
%TO.N,GND*%
X120015000Y-138451500D02*
X120015000Y-139573000D01*
X112125800Y-143571000D02*
X113458000Y-143571000D01*
X119608600Y-144526000D02*
X118741100Y-143658500D01*
X118741100Y-143658500D02*
X118618000Y-143658500D01*
%TO.N,+3V3*%
X118530500Y-141671000D02*
X118618000Y-141583500D01*
X126365000Y-132467000D02*
X128276000Y-132467000D01*
X129032000Y-133223000D02*
X129032000Y-136906000D01*
X128276000Y-132467000D02*
X129032000Y-133223000D01*
X116158000Y-141671000D02*
X117307400Y-141671000D01*
X117394900Y-141583500D02*
X118618000Y-141583500D01*
X117307400Y-141671000D02*
X117394900Y-141583500D01*
X125089000Y-132467000D02*
X126365000Y-132467000D01*
X124206000Y-133350000D02*
X125089000Y-132467000D01*
X124206000Y-139700000D02*
X124206000Y-133350000D01*
X122322500Y-141583500D02*
X124206000Y-139700000D01*
X118618000Y-141583500D02*
X122322500Y-141583500D01*
%TO.N,Net-(J101-Pad1)*%
X111999900Y-134470500D02*
X112012600Y-134483200D01*
X111999900Y-131206600D02*
X111999900Y-134470500D01*
X109029500Y-125476000D02*
X106879201Y-125476000D01*
X110236000Y-126682500D02*
X109029500Y-125476000D01*
X110236000Y-130683000D02*
X110236000Y-126682500D01*
X110759600Y-131206600D02*
X110236000Y-130683000D01*
X111999900Y-131206600D02*
X110759600Y-131206600D01*
%TO.N,Net-(Q101-Pad1)*%
X113999900Y-131206600D02*
X115331600Y-131206600D01*
X115967000Y-131842000D02*
X115967000Y-132847400D01*
X115331600Y-131206600D02*
X115967000Y-131842000D01*
%TO.N,Net-(Q101-Pad3)*%
X118257700Y-132186300D02*
X118257700Y-130772900D01*
X117967000Y-132477000D02*
X118257700Y-132186300D01*
X117967000Y-133797400D02*
X117967000Y-132477000D01*
X112141000Y-142621000D02*
X113458000Y-142621000D01*
X111607600Y-142087600D02*
X112141000Y-142621000D01*
X111607600Y-140055600D02*
X111607600Y-142087600D01*
X112090200Y-139573000D02*
X111607600Y-140055600D01*
X117170200Y-139573000D02*
X112090200Y-139573000D01*
X117983000Y-138760200D02*
X117170200Y-139573000D01*
X117983000Y-135693400D02*
X117983000Y-138760200D01*
X117967000Y-135677400D02*
X117983000Y-135693400D01*
X117967000Y-133797400D02*
X117967000Y-135677400D01*
%TO.N,Net-(R201-Pad1)*%
X117094000Y-145923000D02*
X118507000Y-145923000D01*
X116158000Y-144987000D02*
X117094000Y-145923000D01*
X116158000Y-143571000D02*
X116158000Y-144987000D01*
%TO.N,Net-(R201-Pad2)*%
X120507000Y-145923000D02*
X123342400Y-145923000D01*
X124993400Y-144272000D02*
X129032000Y-144272000D01*
X123342400Y-145923000D02*
X124993400Y-144272000D01*
%TD*%
D18*
%TO.N,GNDA*%
X113141520Y-116247098D02*
X113031206Y-116306063D01*
X112934515Y-116385415D01*
X112855163Y-116482106D01*
X112796198Y-116592420D01*
X112759888Y-116712118D01*
X112747628Y-116836600D01*
X112750700Y-118300850D01*
X112909450Y-118459600D01*
X114058700Y-118459600D01*
X114058700Y-118439600D01*
X114312700Y-118439600D01*
X114312700Y-118459600D01*
X115461950Y-118459600D01*
X115620700Y-118300850D01*
X115623772Y-116836600D01*
X115611512Y-116712118D01*
X115575202Y-116592420D01*
X115516237Y-116482106D01*
X115436885Y-116385415D01*
X115340194Y-116306063D01*
X115229880Y-116247098D01*
X115173515Y-116230000D01*
X122876651Y-116230000D01*
X122860498Y-116260220D01*
X122824188Y-116379918D01*
X122811928Y-116504400D01*
X122815000Y-117468650D01*
X122973750Y-117627400D01*
X124573000Y-117627400D01*
X124573000Y-117607400D01*
X124827000Y-117607400D01*
X124827000Y-117627400D01*
X126426250Y-117627400D01*
X126585000Y-117468650D01*
X126588072Y-116504400D01*
X126575812Y-116379918D01*
X126539502Y-116260220D01*
X126523349Y-116230000D01*
X126694299Y-116230000D01*
X126680498Y-116255820D01*
X126644188Y-116375518D01*
X126631928Y-116500000D01*
X126631928Y-119000000D01*
X126644188Y-119124482D01*
X126680498Y-119244180D01*
X126739463Y-119354494D01*
X126818815Y-119451185D01*
X126915506Y-119530537D01*
X127025820Y-119589502D01*
X127145518Y-119625812D01*
X127270000Y-119638072D01*
X127635001Y-119638072D01*
X127635001Y-120913420D01*
X127386422Y-121162000D01*
X121556000Y-121162000D01*
X121543490Y-121158205D01*
X121413477Y-121145400D01*
X121413469Y-121145400D01*
X121370000Y-121141119D01*
X121326531Y-121145400D01*
X119990195Y-121145400D01*
X119924162Y-121064938D01*
X119917606Y-121059558D01*
X119997385Y-120994085D01*
X120076737Y-120897394D01*
X120135702Y-120787080D01*
X120172012Y-120667382D01*
X120184272Y-120542900D01*
X120181200Y-120241150D01*
X120022450Y-120082400D01*
X118948200Y-120082400D01*
X118948200Y-120102400D01*
X118694200Y-120102400D01*
X118694200Y-120082400D01*
X117619950Y-120082400D01*
X117461200Y-120241150D01*
X117458128Y-120542900D01*
X117470388Y-120667382D01*
X117506698Y-120787080D01*
X117565663Y-120897394D01*
X117645015Y-120994085D01*
X117724794Y-121059558D01*
X117718238Y-121064938D01*
X117607795Y-121199514D01*
X117525728Y-121353050D01*
X117475192Y-121519646D01*
X117458128Y-121692900D01*
X117458128Y-122141893D01*
X116298422Y-123301600D01*
X115623772Y-123301600D01*
X115623772Y-122686600D01*
X115606708Y-122513346D01*
X115556172Y-122346750D01*
X115474105Y-122193214D01*
X115363662Y-122058638D01*
X115229086Y-121948195D01*
X115075550Y-121866128D01*
X114908954Y-121815592D01*
X114735700Y-121798528D01*
X113635700Y-121798528D01*
X113462446Y-121815592D01*
X113295850Y-121866128D01*
X113142314Y-121948195D01*
X113007738Y-122058638D01*
X112897295Y-122193214D01*
X112815228Y-122346750D01*
X112764692Y-122513346D01*
X112747628Y-122686600D01*
X112747628Y-125686600D01*
X112764692Y-125859854D01*
X112815228Y-126026450D01*
X112897295Y-126179986D01*
X113007738Y-126314562D01*
X113142314Y-126425005D01*
X113295850Y-126507072D01*
X113300701Y-126508543D01*
X113300701Y-127642221D01*
X113296419Y-127685700D01*
X113313505Y-127859190D01*
X113364112Y-128026013D01*
X113446290Y-128179759D01*
X113529168Y-128280746D01*
X113529171Y-128280749D01*
X113556884Y-128314517D01*
X113590651Y-128342229D01*
X114703870Y-129455449D01*
X114731583Y-129489217D01*
X114765351Y-129516930D01*
X114765353Y-129516932D01*
X114866341Y-129599811D01*
X115020086Y-129681989D01*
X115091944Y-129703787D01*
X115186910Y-129732595D01*
X115316923Y-129745400D01*
X115316931Y-129745400D01*
X115360400Y-129749681D01*
X115403869Y-129745400D01*
X117103446Y-129745400D01*
X117179738Y-129838362D01*
X117206591Y-129860400D01*
X117179738Y-129882438D01*
X117069295Y-130017013D01*
X116987228Y-130170549D01*
X116936692Y-130337145D01*
X116919628Y-130510399D01*
X116919628Y-131210401D01*
X116936692Y-131383655D01*
X116987228Y-131550251D01*
X117069295Y-131703787D01*
X117179738Y-131838362D01*
X117279232Y-131920015D01*
X117227590Y-131982941D01*
X117145412Y-132136687D01*
X117094805Y-132303510D01*
X117077719Y-132477000D01*
X117082001Y-132520478D01*
X117082001Y-132932932D01*
X117065815Y-132946215D01*
X117055072Y-132959305D01*
X117055072Y-132447400D01*
X117042812Y-132322918D01*
X117006502Y-132203220D01*
X116947537Y-132092906D01*
X116868185Y-131996215D01*
X116852000Y-131982932D01*
X116852000Y-131885465D01*
X116856281Y-131841999D01*
X116852000Y-131798533D01*
X116852000Y-131798523D01*
X116839195Y-131668510D01*
X116788589Y-131501687D01*
X116706411Y-131347941D01*
X116595817Y-131213183D01*
X116562050Y-131185471D01*
X115988132Y-130611554D01*
X115960417Y-130577783D01*
X115825659Y-130467189D01*
X115671913Y-130385011D01*
X115505090Y-130334405D01*
X115375077Y-130321600D01*
X115375069Y-130321600D01*
X115331600Y-130317319D01*
X115288131Y-130321600D01*
X115119514Y-130321600D01*
X115088305Y-130263213D01*
X114977862Y-130128638D01*
X114843287Y-130018195D01*
X114689751Y-129936128D01*
X114523155Y-129885592D01*
X114349901Y-129868528D01*
X113649899Y-129868528D01*
X113476645Y-129885592D01*
X113310049Y-129936128D01*
X113156513Y-130018195D01*
X113021938Y-130128638D01*
X112999900Y-130155491D01*
X112977862Y-130128638D01*
X112843287Y-130018195D01*
X112689751Y-129936128D01*
X112523155Y-129885592D01*
X112349901Y-129868528D01*
X111649899Y-129868528D01*
X111476645Y-129885592D01*
X111310049Y-129936128D01*
X111156513Y-130018195D01*
X111121000Y-130047340D01*
X111121000Y-126725969D01*
X111125281Y-126682500D01*
X111121000Y-126639031D01*
X111121000Y-126639023D01*
X111108195Y-126509010D01*
X111057589Y-126342187D01*
X111057589Y-126342186D01*
X110975411Y-126188441D01*
X110892532Y-126087453D01*
X110892530Y-126087451D01*
X110864817Y-126053683D01*
X110831049Y-126025970D01*
X109686034Y-124880956D01*
X109658317Y-124847183D01*
X109523559Y-124736589D01*
X109369813Y-124654411D01*
X109202990Y-124603805D01*
X109072977Y-124591000D01*
X109072969Y-124591000D01*
X109029500Y-124586719D01*
X108986031Y-124591000D01*
X107952886Y-124591000D01*
X107762087Y-124400201D01*
X107535244Y-124248629D01*
X107283190Y-124144225D01*
X107015612Y-124091000D01*
X106742790Y-124091000D01*
X106475212Y-124144225D01*
X106223158Y-124248629D01*
X105996315Y-124400201D01*
X105803402Y-124593114D01*
X105651830Y-124819957D01*
X105547426Y-125072011D01*
X105494201Y-125339589D01*
X105494201Y-125612411D01*
X105547426Y-125879989D01*
X105651830Y-126132043D01*
X105803402Y-126358886D01*
X105996315Y-126551799D01*
X106223158Y-126703371D01*
X106322480Y-126744511D01*
X106280369Y-126759723D01*
X106167338Y-126820140D01*
X106101813Y-127059007D01*
X106879201Y-127836395D01*
X107656589Y-127059007D01*
X107591064Y-126820140D01*
X107432724Y-126745836D01*
X107535244Y-126703371D01*
X107762087Y-126551799D01*
X107952886Y-126361000D01*
X108662922Y-126361000D01*
X109351001Y-127049080D01*
X109351000Y-130639531D01*
X109346719Y-130683000D01*
X109351000Y-130726469D01*
X109351000Y-130726476D01*
X109362212Y-130840314D01*
X109363805Y-130856490D01*
X109379157Y-130907096D01*
X109414411Y-131023312D01*
X109496589Y-131177058D01*
X109607183Y-131311817D01*
X109640956Y-131339534D01*
X110103066Y-131801644D01*
X110130783Y-131835417D01*
X110265541Y-131946011D01*
X110419287Y-132028189D01*
X110586110Y-132078795D01*
X110716123Y-132091600D01*
X110716133Y-132091600D01*
X110759599Y-132095881D01*
X110803065Y-132091600D01*
X110880286Y-132091600D01*
X110911495Y-132149987D01*
X111021938Y-132284562D01*
X111114900Y-132360854D01*
X111114901Y-133339368D01*
X111034638Y-133405238D01*
X110924195Y-133539813D01*
X110842128Y-133693349D01*
X110791592Y-133859945D01*
X110774528Y-134033199D01*
X110774528Y-134933201D01*
X110791592Y-135106455D01*
X110842128Y-135273051D01*
X110924195Y-135426587D01*
X111034638Y-135561162D01*
X111169213Y-135671605D01*
X111322749Y-135753672D01*
X111489345Y-135804208D01*
X111662599Y-135821272D01*
X112362601Y-135821272D01*
X112535855Y-135804208D01*
X112702451Y-135753672D01*
X112855987Y-135671605D01*
X112937237Y-135604924D01*
X112961415Y-135634385D01*
X113058106Y-135713737D01*
X113168420Y-135772702D01*
X113288118Y-135809012D01*
X113412600Y-135821272D01*
X113726850Y-135818200D01*
X113885600Y-135659450D01*
X113885600Y-134610200D01*
X113865600Y-134610200D01*
X113865600Y-134356200D01*
X113885600Y-134356200D01*
X113885600Y-133306950D01*
X113726850Y-133148200D01*
X113412600Y-133145128D01*
X113288118Y-133157388D01*
X113168420Y-133193698D01*
X113058106Y-133252663D01*
X112961415Y-133332015D01*
X112937237Y-133361476D01*
X112884900Y-133318523D01*
X112884900Y-132360854D01*
X112977862Y-132284562D01*
X112999900Y-132257709D01*
X113021938Y-132284562D01*
X113156513Y-132395005D01*
X113310049Y-132477072D01*
X113476645Y-132527608D01*
X113649899Y-132544672D01*
X114349901Y-132544672D01*
X114523155Y-132527608D01*
X114689751Y-132477072D01*
X114843287Y-132395005D01*
X114887676Y-132358576D01*
X114878928Y-132447400D01*
X114878928Y-133205537D01*
X114856780Y-133193698D01*
X114737082Y-133157388D01*
X114612600Y-133145128D01*
X114298350Y-133148200D01*
X114139600Y-133306950D01*
X114139600Y-134356200D01*
X114159600Y-134356200D01*
X114159600Y-134610200D01*
X114139600Y-134610200D01*
X114139600Y-135659450D01*
X114298350Y-135818200D01*
X114612600Y-135821272D01*
X114737082Y-135809012D01*
X114856780Y-135772702D01*
X114967094Y-135713737D01*
X115063785Y-135634385D01*
X115082158Y-135611997D01*
X115162506Y-135677937D01*
X115272820Y-135736902D01*
X115392518Y-135773212D01*
X115517000Y-135785472D01*
X115681250Y-135782400D01*
X115840000Y-135623650D01*
X115840000Y-134874400D01*
X116094000Y-134874400D01*
X116094000Y-135623650D01*
X116252750Y-135782400D01*
X116417000Y-135785472D01*
X116541482Y-135773212D01*
X116661180Y-135736902D01*
X116771494Y-135677937D01*
X116868185Y-135598585D01*
X116947537Y-135501894D01*
X117006502Y-135391580D01*
X117042812Y-135271882D01*
X117055072Y-135147400D01*
X117052000Y-135033150D01*
X116893250Y-134874400D01*
X116094000Y-134874400D01*
X115840000Y-134874400D01*
X115820000Y-134874400D01*
X115820000Y-134620400D01*
X115840000Y-134620400D01*
X115840000Y-134600400D01*
X116094000Y-134600400D01*
X116094000Y-134620400D01*
X116893250Y-134620400D01*
X116977857Y-134535793D01*
X116986463Y-134551894D01*
X117065815Y-134648585D01*
X117082000Y-134661868D01*
X117082001Y-135633921D01*
X117077719Y-135677400D01*
X117094805Y-135850890D01*
X117098000Y-135861422D01*
X117098000Y-136906000D01*
X109220000Y-136906000D01*
X109195224Y-136908440D01*
X109171399Y-136915667D01*
X109149443Y-136927403D01*
X109130197Y-136943197D01*
X109114403Y-136962443D01*
X109102667Y-136984399D01*
X109095440Y-137008224D01*
X109093000Y-137033000D01*
X109093000Y-143358000D01*
X105936808Y-143358000D01*
X105941775Y-143350566D01*
X106087639Y-142998419D01*
X106162000Y-142624581D01*
X106162000Y-142243419D01*
X106087639Y-141869581D01*
X105941775Y-141517434D01*
X105730013Y-141200509D01*
X105460491Y-140930987D01*
X105143566Y-140719225D01*
X104791419Y-140573361D01*
X104417581Y-140499000D01*
X104036419Y-140499000D01*
X103662581Y-140573361D01*
X103310434Y-140719225D01*
X102993509Y-140930987D01*
X102723987Y-141200509D01*
X102512225Y-141517434D01*
X102366361Y-141869581D01*
X102292000Y-142243419D01*
X102292000Y-142624581D01*
X102366361Y-142998419D01*
X102512225Y-143350566D01*
X102517192Y-143358000D01*
X100936808Y-143358000D01*
X100941775Y-143350566D01*
X101087639Y-142998419D01*
X101162000Y-142624581D01*
X101162000Y-142243419D01*
X101087639Y-141869581D01*
X100941775Y-141517434D01*
X100730013Y-141200509D01*
X100460491Y-140930987D01*
X100143566Y-140719225D01*
X99791419Y-140573361D01*
X99417581Y-140499000D01*
X99036419Y-140499000D01*
X98662581Y-140573361D01*
X98310434Y-140719225D01*
X97993509Y-140930987D01*
X97723987Y-141200509D01*
X97512225Y-141517434D01*
X97366361Y-141869581D01*
X97292000Y-142243419D01*
X97292000Y-142624581D01*
X97366361Y-142998419D01*
X97512225Y-143350566D01*
X97517192Y-143358000D01*
X96164000Y-143358000D01*
X96164000Y-134743419D01*
X97292000Y-134743419D01*
X97292000Y-135124581D01*
X97366361Y-135498419D01*
X97512225Y-135850566D01*
X97723987Y-136167491D01*
X97993509Y-136437013D01*
X98310434Y-136648775D01*
X98662581Y-136794639D01*
X99036419Y-136869000D01*
X99417581Y-136869000D01*
X99791419Y-136794639D01*
X100143566Y-136648775D01*
X100460491Y-136437013D01*
X100730013Y-136167491D01*
X100941775Y-135850566D01*
X101087639Y-135498419D01*
X101162000Y-135124581D01*
X101162000Y-134743419D01*
X102292000Y-134743419D01*
X102292000Y-135124581D01*
X102366361Y-135498419D01*
X102512225Y-135850566D01*
X102723987Y-136167491D01*
X102993509Y-136437013D01*
X103310434Y-136648775D01*
X103662581Y-136794639D01*
X104036419Y-136869000D01*
X104417581Y-136869000D01*
X104791419Y-136794639D01*
X105143566Y-136648775D01*
X105460491Y-136437013D01*
X105730013Y-136167491D01*
X105941775Y-135850566D01*
X106087639Y-135498419D01*
X106162000Y-135124581D01*
X106162000Y-134743419D01*
X106087639Y-134369581D01*
X105941775Y-134017434D01*
X105730013Y-133700509D01*
X105460491Y-133430987D01*
X105143566Y-133219225D01*
X104791419Y-133073361D01*
X104417581Y-132999000D01*
X104036419Y-132999000D01*
X103662581Y-133073361D01*
X103310434Y-133219225D01*
X102993509Y-133430987D01*
X102723987Y-133700509D01*
X102512225Y-134017434D01*
X102366361Y-134369581D01*
X102292000Y-134743419D01*
X101162000Y-134743419D01*
X101087639Y-134369581D01*
X100941775Y-134017434D01*
X100730013Y-133700509D01*
X100460491Y-133430987D01*
X100143566Y-133219225D01*
X99791419Y-133073361D01*
X99417581Y-132999000D01*
X99036419Y-132999000D01*
X98662581Y-133073361D01*
X98310434Y-133219225D01*
X97993509Y-133430987D01*
X97723987Y-133700509D01*
X97512225Y-134017434D01*
X97366361Y-134369581D01*
X97292000Y-134743419D01*
X96164000Y-134743419D01*
X96164000Y-132118845D01*
X100415962Y-132118845D01*
X100584003Y-132444643D01*
X100975808Y-132645426D01*
X101399256Y-132765914D01*
X101838074Y-132801476D01*
X102275398Y-132750746D01*
X102694422Y-132615674D01*
X103014399Y-132444643D01*
X103182440Y-132118845D01*
X101799201Y-130735605D01*
X100415962Y-132118845D01*
X96164000Y-132118845D01*
X96164000Y-130594873D01*
X99553725Y-130594873D01*
X99604455Y-131032197D01*
X99739527Y-131451221D01*
X99910558Y-131771198D01*
X100236356Y-131939239D01*
X101619596Y-130556000D01*
X101978806Y-130556000D01*
X103362046Y-131939239D01*
X103687844Y-131771198D01*
X103888627Y-131379393D01*
X104009115Y-130955945D01*
X104044677Y-130517127D01*
X103993947Y-130079803D01*
X103858875Y-129660779D01*
X103687844Y-129340802D01*
X103362046Y-129172761D01*
X101978806Y-130556000D01*
X101619596Y-130556000D01*
X100236356Y-129172761D01*
X99910558Y-129340802D01*
X99709775Y-129732607D01*
X99589287Y-130156055D01*
X99553725Y-130594873D01*
X96164000Y-130594873D01*
X96164000Y-128993155D01*
X100415962Y-128993155D01*
X101799201Y-130376395D01*
X103182440Y-128993155D01*
X103172041Y-128972993D01*
X106101813Y-128972993D01*
X106167338Y-129211860D01*
X106414317Y-129327760D01*
X106679161Y-129393250D01*
X106951693Y-129405812D01*
X107221439Y-129364965D01*
X107478033Y-129272277D01*
X107591064Y-129211860D01*
X107656589Y-128972993D01*
X106879201Y-128195605D01*
X106101813Y-128972993D01*
X103172041Y-128972993D01*
X103014399Y-128667357D01*
X102622594Y-128466574D01*
X102199146Y-128346086D01*
X101760328Y-128310524D01*
X101323004Y-128361254D01*
X100903980Y-128496326D01*
X100584003Y-128667357D01*
X100415962Y-128993155D01*
X96164000Y-128993155D01*
X96164000Y-128088492D01*
X105489389Y-128088492D01*
X105530236Y-128358238D01*
X105622924Y-128614832D01*
X105683341Y-128727863D01*
X105922208Y-128793388D01*
X106699596Y-128016000D01*
X107058806Y-128016000D01*
X107836194Y-128793388D01*
X108075061Y-128727863D01*
X108190961Y-128480884D01*
X108256451Y-128216040D01*
X108269013Y-127943508D01*
X108228166Y-127673762D01*
X108135478Y-127417168D01*
X108075061Y-127304137D01*
X107836194Y-127238612D01*
X107058806Y-128016000D01*
X106699596Y-128016000D01*
X105922208Y-127238612D01*
X105683341Y-127304137D01*
X105567441Y-127551116D01*
X105501951Y-127815960D01*
X105489389Y-128088492D01*
X96164000Y-128088492D01*
X96164000Y-121958845D01*
X100415962Y-121958845D01*
X100584003Y-122284643D01*
X100975808Y-122485426D01*
X101399256Y-122605914D01*
X101838074Y-122641476D01*
X102275398Y-122590746D01*
X102694422Y-122455674D01*
X103014399Y-122284643D01*
X103182440Y-121958845D01*
X101799201Y-120575605D01*
X100415962Y-121958845D01*
X96164000Y-121958845D01*
X96164000Y-120434873D01*
X99553725Y-120434873D01*
X99604455Y-120872197D01*
X99739527Y-121291221D01*
X99910558Y-121611198D01*
X100236356Y-121779239D01*
X101619596Y-120396000D01*
X101978806Y-120396000D01*
X103362046Y-121779239D01*
X103687844Y-121611198D01*
X103888627Y-121219393D01*
X104009115Y-120795945D01*
X104044677Y-120357127D01*
X104042296Y-120336600D01*
X112747628Y-120336600D01*
X112759888Y-120461082D01*
X112796198Y-120580780D01*
X112855163Y-120691094D01*
X112934515Y-120787785D01*
X113031206Y-120867137D01*
X113141520Y-120926102D01*
X113261218Y-120962412D01*
X113385700Y-120974672D01*
X113899950Y-120971600D01*
X114058700Y-120812850D01*
X114058700Y-118713600D01*
X114312700Y-118713600D01*
X114312700Y-120812850D01*
X114471450Y-120971600D01*
X114985700Y-120974672D01*
X115110182Y-120962412D01*
X115229880Y-120926102D01*
X115340194Y-120867137D01*
X115436885Y-120787785D01*
X115516237Y-120691094D01*
X115575202Y-120580780D01*
X115611512Y-120461082D01*
X115623772Y-120336600D01*
X115621740Y-119367900D01*
X117458128Y-119367900D01*
X117461200Y-119669650D01*
X117619950Y-119828400D01*
X118694200Y-119828400D01*
X118694200Y-118891650D01*
X118948200Y-118891650D01*
X118948200Y-119828400D01*
X120022450Y-119828400D01*
X120181200Y-119669650D01*
X120184272Y-119367900D01*
X120172012Y-119243418D01*
X120135702Y-119123720D01*
X120076737Y-119013406D01*
X120069346Y-119004400D01*
X122811928Y-119004400D01*
X122824188Y-119128882D01*
X122860498Y-119248580D01*
X122919463Y-119358894D01*
X122998815Y-119455585D01*
X123095506Y-119534937D01*
X123205820Y-119593902D01*
X123325518Y-119630212D01*
X123450000Y-119642472D01*
X124414250Y-119639400D01*
X124573000Y-119480650D01*
X124573000Y-117881400D01*
X124827000Y-117881400D01*
X124827000Y-119480650D01*
X124985750Y-119639400D01*
X125950000Y-119642472D01*
X126074482Y-119630212D01*
X126194180Y-119593902D01*
X126304494Y-119534937D01*
X126401185Y-119455585D01*
X126480537Y-119358894D01*
X126539502Y-119248580D01*
X126575812Y-119128882D01*
X126588072Y-119004400D01*
X126585000Y-118040150D01*
X126426250Y-117881400D01*
X124827000Y-117881400D01*
X124573000Y-117881400D01*
X122973750Y-117881400D01*
X122815000Y-118040150D01*
X122811928Y-119004400D01*
X120069346Y-119004400D01*
X119997385Y-118916715D01*
X119900694Y-118837363D01*
X119790380Y-118778398D01*
X119670682Y-118742088D01*
X119546200Y-118729828D01*
X119106950Y-118732900D01*
X118948200Y-118891650D01*
X118694200Y-118891650D01*
X118535450Y-118732900D01*
X118096200Y-118729828D01*
X117971718Y-118742088D01*
X117852020Y-118778398D01*
X117741706Y-118837363D01*
X117645015Y-118916715D01*
X117565663Y-119013406D01*
X117506698Y-119123720D01*
X117470388Y-119243418D01*
X117458128Y-119367900D01*
X115621740Y-119367900D01*
X115620700Y-118872350D01*
X115461950Y-118713600D01*
X114312700Y-118713600D01*
X114058700Y-118713600D01*
X112909450Y-118713600D01*
X112750700Y-118872350D01*
X112747628Y-120336600D01*
X104042296Y-120336600D01*
X103993947Y-119919803D01*
X103858875Y-119500779D01*
X103687844Y-119180802D01*
X103362046Y-119012761D01*
X101978806Y-120396000D01*
X101619596Y-120396000D01*
X100236356Y-119012761D01*
X99910558Y-119180802D01*
X99709775Y-119572607D01*
X99589287Y-119996055D01*
X99553725Y-120434873D01*
X96164000Y-120434873D01*
X96164000Y-118833155D01*
X100415962Y-118833155D01*
X101799201Y-120216395D01*
X103182440Y-118833155D01*
X103014399Y-118507357D01*
X102622594Y-118306574D01*
X102199146Y-118186086D01*
X101760328Y-118150524D01*
X101323004Y-118201254D01*
X100903980Y-118336326D01*
X100584003Y-118507357D01*
X100415962Y-118833155D01*
X96164000Y-118833155D01*
X96164000Y-116230000D01*
X113197885Y-116230000D01*
X113141520Y-116247098D01*
%TA.AperFunction,Conductor*%
D19*
G36*
X113141520Y-116247098D02*
G01*
X113031206Y-116306063D01*
X112934515Y-116385415D01*
X112855163Y-116482106D01*
X112796198Y-116592420D01*
X112759888Y-116712118D01*
X112747628Y-116836600D01*
X112750700Y-118300850D01*
X112909450Y-118459600D01*
X114058700Y-118459600D01*
X114058700Y-118439600D01*
X114312700Y-118439600D01*
X114312700Y-118459600D01*
X115461950Y-118459600D01*
X115620700Y-118300850D01*
X115623772Y-116836600D01*
X115611512Y-116712118D01*
X115575202Y-116592420D01*
X115516237Y-116482106D01*
X115436885Y-116385415D01*
X115340194Y-116306063D01*
X115229880Y-116247098D01*
X115173515Y-116230000D01*
X122876651Y-116230000D01*
X122860498Y-116260220D01*
X122824188Y-116379918D01*
X122811928Y-116504400D01*
X122815000Y-117468650D01*
X122973750Y-117627400D01*
X124573000Y-117627400D01*
X124573000Y-117607400D01*
X124827000Y-117607400D01*
X124827000Y-117627400D01*
X126426250Y-117627400D01*
X126585000Y-117468650D01*
X126588072Y-116504400D01*
X126575812Y-116379918D01*
X126539502Y-116260220D01*
X126523349Y-116230000D01*
X126694299Y-116230000D01*
X126680498Y-116255820D01*
X126644188Y-116375518D01*
X126631928Y-116500000D01*
X126631928Y-119000000D01*
X126644188Y-119124482D01*
X126680498Y-119244180D01*
X126739463Y-119354494D01*
X126818815Y-119451185D01*
X126915506Y-119530537D01*
X127025820Y-119589502D01*
X127145518Y-119625812D01*
X127270000Y-119638072D01*
X127635001Y-119638072D01*
X127635001Y-120913420D01*
X127386422Y-121162000D01*
X121556000Y-121162000D01*
X121543490Y-121158205D01*
X121413477Y-121145400D01*
X121413469Y-121145400D01*
X121370000Y-121141119D01*
X121326531Y-121145400D01*
X119990195Y-121145400D01*
X119924162Y-121064938D01*
X119917606Y-121059558D01*
X119997385Y-120994085D01*
X120076737Y-120897394D01*
X120135702Y-120787080D01*
X120172012Y-120667382D01*
X120184272Y-120542900D01*
X120181200Y-120241150D01*
X120022450Y-120082400D01*
X118948200Y-120082400D01*
X118948200Y-120102400D01*
X118694200Y-120102400D01*
X118694200Y-120082400D01*
X117619950Y-120082400D01*
X117461200Y-120241150D01*
X117458128Y-120542900D01*
X117470388Y-120667382D01*
X117506698Y-120787080D01*
X117565663Y-120897394D01*
X117645015Y-120994085D01*
X117724794Y-121059558D01*
X117718238Y-121064938D01*
X117607795Y-121199514D01*
X117525728Y-121353050D01*
X117475192Y-121519646D01*
X117458128Y-121692900D01*
X117458128Y-122141893D01*
X116298422Y-123301600D01*
X115623772Y-123301600D01*
X115623772Y-122686600D01*
X115606708Y-122513346D01*
X115556172Y-122346750D01*
X115474105Y-122193214D01*
X115363662Y-122058638D01*
X115229086Y-121948195D01*
X115075550Y-121866128D01*
X114908954Y-121815592D01*
X114735700Y-121798528D01*
X113635700Y-121798528D01*
X113462446Y-121815592D01*
X113295850Y-121866128D01*
X113142314Y-121948195D01*
X113007738Y-122058638D01*
X112897295Y-122193214D01*
X112815228Y-122346750D01*
X112764692Y-122513346D01*
X112747628Y-122686600D01*
X112747628Y-125686600D01*
X112764692Y-125859854D01*
X112815228Y-126026450D01*
X112897295Y-126179986D01*
X113007738Y-126314562D01*
X113142314Y-126425005D01*
X113295850Y-126507072D01*
X113300701Y-126508543D01*
X113300701Y-127642221D01*
X113296419Y-127685700D01*
X113313505Y-127859190D01*
X113364112Y-128026013D01*
X113446290Y-128179759D01*
X113529168Y-128280746D01*
X113529171Y-128280749D01*
X113556884Y-128314517D01*
X113590651Y-128342229D01*
X114703870Y-129455449D01*
X114731583Y-129489217D01*
X114765351Y-129516930D01*
X114765353Y-129516932D01*
X114866341Y-129599811D01*
X115020086Y-129681989D01*
X115091944Y-129703787D01*
X115186910Y-129732595D01*
X115316923Y-129745400D01*
X115316931Y-129745400D01*
X115360400Y-129749681D01*
X115403869Y-129745400D01*
X117103446Y-129745400D01*
X117179738Y-129838362D01*
X117206591Y-129860400D01*
X117179738Y-129882438D01*
X117069295Y-130017013D01*
X116987228Y-130170549D01*
X116936692Y-130337145D01*
X116919628Y-130510399D01*
X116919628Y-131210401D01*
X116936692Y-131383655D01*
X116987228Y-131550251D01*
X117069295Y-131703787D01*
X117179738Y-131838362D01*
X117279232Y-131920015D01*
X117227590Y-131982941D01*
X117145412Y-132136687D01*
X117094805Y-132303510D01*
X117077719Y-132477000D01*
X117082001Y-132520478D01*
X117082001Y-132932932D01*
X117065815Y-132946215D01*
X117055072Y-132959305D01*
X117055072Y-132447400D01*
X117042812Y-132322918D01*
X117006502Y-132203220D01*
X116947537Y-132092906D01*
X116868185Y-131996215D01*
X116852000Y-131982932D01*
X116852000Y-131885465D01*
X116856281Y-131841999D01*
X116852000Y-131798533D01*
X116852000Y-131798523D01*
X116839195Y-131668510D01*
X116788589Y-131501687D01*
X116706411Y-131347941D01*
X116595817Y-131213183D01*
X116562050Y-131185471D01*
X115988132Y-130611554D01*
X115960417Y-130577783D01*
X115825659Y-130467189D01*
X115671913Y-130385011D01*
X115505090Y-130334405D01*
X115375077Y-130321600D01*
X115375069Y-130321600D01*
X115331600Y-130317319D01*
X115288131Y-130321600D01*
X115119514Y-130321600D01*
X115088305Y-130263213D01*
X114977862Y-130128638D01*
X114843287Y-130018195D01*
X114689751Y-129936128D01*
X114523155Y-129885592D01*
X114349901Y-129868528D01*
X113649899Y-129868528D01*
X113476645Y-129885592D01*
X113310049Y-129936128D01*
X113156513Y-130018195D01*
X113021938Y-130128638D01*
X112999900Y-130155491D01*
X112977862Y-130128638D01*
X112843287Y-130018195D01*
X112689751Y-129936128D01*
X112523155Y-129885592D01*
X112349901Y-129868528D01*
X111649899Y-129868528D01*
X111476645Y-129885592D01*
X111310049Y-129936128D01*
X111156513Y-130018195D01*
X111121000Y-130047340D01*
X111121000Y-126725969D01*
X111125281Y-126682500D01*
X111121000Y-126639031D01*
X111121000Y-126639023D01*
X111108195Y-126509010D01*
X111057589Y-126342187D01*
X111057589Y-126342186D01*
X110975411Y-126188441D01*
X110892532Y-126087453D01*
X110892530Y-126087451D01*
X110864817Y-126053683D01*
X110831049Y-126025970D01*
X109686034Y-124880956D01*
X109658317Y-124847183D01*
X109523559Y-124736589D01*
X109369813Y-124654411D01*
X109202990Y-124603805D01*
X109072977Y-124591000D01*
X109072969Y-124591000D01*
X109029500Y-124586719D01*
X108986031Y-124591000D01*
X107952886Y-124591000D01*
X107762087Y-124400201D01*
X107535244Y-124248629D01*
X107283190Y-124144225D01*
X107015612Y-124091000D01*
X106742790Y-124091000D01*
X106475212Y-124144225D01*
X106223158Y-124248629D01*
X105996315Y-124400201D01*
X105803402Y-124593114D01*
X105651830Y-124819957D01*
X105547426Y-125072011D01*
X105494201Y-125339589D01*
X105494201Y-125612411D01*
X105547426Y-125879989D01*
X105651830Y-126132043D01*
X105803402Y-126358886D01*
X105996315Y-126551799D01*
X106223158Y-126703371D01*
X106322480Y-126744511D01*
X106280369Y-126759723D01*
X106167338Y-126820140D01*
X106101813Y-127059007D01*
X106879201Y-127836395D01*
X107656589Y-127059007D01*
X107591064Y-126820140D01*
X107432724Y-126745836D01*
X107535244Y-126703371D01*
X107762087Y-126551799D01*
X107952886Y-126361000D01*
X108662922Y-126361000D01*
X109351001Y-127049080D01*
X109351000Y-130639531D01*
X109346719Y-130683000D01*
X109351000Y-130726469D01*
X109351000Y-130726476D01*
X109362212Y-130840314D01*
X109363805Y-130856490D01*
X109379157Y-130907096D01*
X109414411Y-131023312D01*
X109496589Y-131177058D01*
X109607183Y-131311817D01*
X109640956Y-131339534D01*
X110103066Y-131801644D01*
X110130783Y-131835417D01*
X110265541Y-131946011D01*
X110419287Y-132028189D01*
X110586110Y-132078795D01*
X110716123Y-132091600D01*
X110716133Y-132091600D01*
X110759599Y-132095881D01*
X110803065Y-132091600D01*
X110880286Y-132091600D01*
X110911495Y-132149987D01*
X111021938Y-132284562D01*
X111114900Y-132360854D01*
X111114901Y-133339368D01*
X111034638Y-133405238D01*
X110924195Y-133539813D01*
X110842128Y-133693349D01*
X110791592Y-133859945D01*
X110774528Y-134033199D01*
X110774528Y-134933201D01*
X110791592Y-135106455D01*
X110842128Y-135273051D01*
X110924195Y-135426587D01*
X111034638Y-135561162D01*
X111169213Y-135671605D01*
X111322749Y-135753672D01*
X111489345Y-135804208D01*
X111662599Y-135821272D01*
X112362601Y-135821272D01*
X112535855Y-135804208D01*
X112702451Y-135753672D01*
X112855987Y-135671605D01*
X112937237Y-135604924D01*
X112961415Y-135634385D01*
X113058106Y-135713737D01*
X113168420Y-135772702D01*
X113288118Y-135809012D01*
X113412600Y-135821272D01*
X113726850Y-135818200D01*
X113885600Y-135659450D01*
X113885600Y-134610200D01*
X113865600Y-134610200D01*
X113865600Y-134356200D01*
X113885600Y-134356200D01*
X113885600Y-133306950D01*
X113726850Y-133148200D01*
X113412600Y-133145128D01*
X113288118Y-133157388D01*
X113168420Y-133193698D01*
X113058106Y-133252663D01*
X112961415Y-133332015D01*
X112937237Y-133361476D01*
X112884900Y-133318523D01*
X112884900Y-132360854D01*
X112977862Y-132284562D01*
X112999900Y-132257709D01*
X113021938Y-132284562D01*
X113156513Y-132395005D01*
X113310049Y-132477072D01*
X113476645Y-132527608D01*
X113649899Y-132544672D01*
X114349901Y-132544672D01*
X114523155Y-132527608D01*
X114689751Y-132477072D01*
X114843287Y-132395005D01*
X114887676Y-132358576D01*
X114878928Y-132447400D01*
X114878928Y-133205537D01*
X114856780Y-133193698D01*
X114737082Y-133157388D01*
X114612600Y-133145128D01*
X114298350Y-133148200D01*
X114139600Y-133306950D01*
X114139600Y-134356200D01*
X114159600Y-134356200D01*
X114159600Y-134610200D01*
X114139600Y-134610200D01*
X114139600Y-135659450D01*
X114298350Y-135818200D01*
X114612600Y-135821272D01*
X114737082Y-135809012D01*
X114856780Y-135772702D01*
X114967094Y-135713737D01*
X115063785Y-135634385D01*
X115082158Y-135611997D01*
X115162506Y-135677937D01*
X115272820Y-135736902D01*
X115392518Y-135773212D01*
X115517000Y-135785472D01*
X115681250Y-135782400D01*
X115840000Y-135623650D01*
X115840000Y-134874400D01*
X116094000Y-134874400D01*
X116094000Y-135623650D01*
X116252750Y-135782400D01*
X116417000Y-135785472D01*
X116541482Y-135773212D01*
X116661180Y-135736902D01*
X116771494Y-135677937D01*
X116868185Y-135598585D01*
X116947537Y-135501894D01*
X117006502Y-135391580D01*
X117042812Y-135271882D01*
X117055072Y-135147400D01*
X117052000Y-135033150D01*
X116893250Y-134874400D01*
X116094000Y-134874400D01*
X115840000Y-134874400D01*
X115820000Y-134874400D01*
X115820000Y-134620400D01*
X115840000Y-134620400D01*
X115840000Y-134600400D01*
X116094000Y-134600400D01*
X116094000Y-134620400D01*
X116893250Y-134620400D01*
X116977857Y-134535793D01*
X116986463Y-134551894D01*
X117065815Y-134648585D01*
X117082000Y-134661868D01*
X117082001Y-135633921D01*
X117077719Y-135677400D01*
X117094805Y-135850890D01*
X117098000Y-135861422D01*
X117098000Y-136906000D01*
X109220000Y-136906000D01*
X109195224Y-136908440D01*
X109171399Y-136915667D01*
X109149443Y-136927403D01*
X109130197Y-136943197D01*
X109114403Y-136962443D01*
X109102667Y-136984399D01*
X109095440Y-137008224D01*
X109093000Y-137033000D01*
X109093000Y-143358000D01*
X105936808Y-143358000D01*
X105941775Y-143350566D01*
X106087639Y-142998419D01*
X106162000Y-142624581D01*
X106162000Y-142243419D01*
X106087639Y-141869581D01*
X105941775Y-141517434D01*
X105730013Y-141200509D01*
X105460491Y-140930987D01*
X105143566Y-140719225D01*
X104791419Y-140573361D01*
X104417581Y-140499000D01*
X104036419Y-140499000D01*
X103662581Y-140573361D01*
X103310434Y-140719225D01*
X102993509Y-140930987D01*
X102723987Y-141200509D01*
X102512225Y-141517434D01*
X102366361Y-141869581D01*
X102292000Y-142243419D01*
X102292000Y-142624581D01*
X102366361Y-142998419D01*
X102512225Y-143350566D01*
X102517192Y-143358000D01*
X100936808Y-143358000D01*
X100941775Y-143350566D01*
X101087639Y-142998419D01*
X101162000Y-142624581D01*
X101162000Y-142243419D01*
X101087639Y-141869581D01*
X100941775Y-141517434D01*
X100730013Y-141200509D01*
X100460491Y-140930987D01*
X100143566Y-140719225D01*
X99791419Y-140573361D01*
X99417581Y-140499000D01*
X99036419Y-140499000D01*
X98662581Y-140573361D01*
X98310434Y-140719225D01*
X97993509Y-140930987D01*
X97723987Y-141200509D01*
X97512225Y-141517434D01*
X97366361Y-141869581D01*
X97292000Y-142243419D01*
X97292000Y-142624581D01*
X97366361Y-142998419D01*
X97512225Y-143350566D01*
X97517192Y-143358000D01*
X96164000Y-143358000D01*
X96164000Y-134743419D01*
X97292000Y-134743419D01*
X97292000Y-135124581D01*
X97366361Y-135498419D01*
X97512225Y-135850566D01*
X97723987Y-136167491D01*
X97993509Y-136437013D01*
X98310434Y-136648775D01*
X98662581Y-136794639D01*
X99036419Y-136869000D01*
X99417581Y-136869000D01*
X99791419Y-136794639D01*
X100143566Y-136648775D01*
X100460491Y-136437013D01*
X100730013Y-136167491D01*
X100941775Y-135850566D01*
X101087639Y-135498419D01*
X101162000Y-135124581D01*
X101162000Y-134743419D01*
X102292000Y-134743419D01*
X102292000Y-135124581D01*
X102366361Y-135498419D01*
X102512225Y-135850566D01*
X102723987Y-136167491D01*
X102993509Y-136437013D01*
X103310434Y-136648775D01*
X103662581Y-136794639D01*
X104036419Y-136869000D01*
X104417581Y-136869000D01*
X104791419Y-136794639D01*
X105143566Y-136648775D01*
X105460491Y-136437013D01*
X105730013Y-136167491D01*
X105941775Y-135850566D01*
X106087639Y-135498419D01*
X106162000Y-135124581D01*
X106162000Y-134743419D01*
X106087639Y-134369581D01*
X105941775Y-134017434D01*
X105730013Y-133700509D01*
X105460491Y-133430987D01*
X105143566Y-133219225D01*
X104791419Y-133073361D01*
X104417581Y-132999000D01*
X104036419Y-132999000D01*
X103662581Y-133073361D01*
X103310434Y-133219225D01*
X102993509Y-133430987D01*
X102723987Y-133700509D01*
X102512225Y-134017434D01*
X102366361Y-134369581D01*
X102292000Y-134743419D01*
X101162000Y-134743419D01*
X101087639Y-134369581D01*
X100941775Y-134017434D01*
X100730013Y-133700509D01*
X100460491Y-133430987D01*
X100143566Y-133219225D01*
X99791419Y-133073361D01*
X99417581Y-132999000D01*
X99036419Y-132999000D01*
X98662581Y-133073361D01*
X98310434Y-133219225D01*
X97993509Y-133430987D01*
X97723987Y-133700509D01*
X97512225Y-134017434D01*
X97366361Y-134369581D01*
X97292000Y-134743419D01*
X96164000Y-134743419D01*
X96164000Y-132118845D01*
X100415962Y-132118845D01*
X100584003Y-132444643D01*
X100975808Y-132645426D01*
X101399256Y-132765914D01*
X101838074Y-132801476D01*
X102275398Y-132750746D01*
X102694422Y-132615674D01*
X103014399Y-132444643D01*
X103182440Y-132118845D01*
X101799201Y-130735605D01*
X100415962Y-132118845D01*
X96164000Y-132118845D01*
X96164000Y-130594873D01*
X99553725Y-130594873D01*
X99604455Y-131032197D01*
X99739527Y-131451221D01*
X99910558Y-131771198D01*
X100236356Y-131939239D01*
X101619596Y-130556000D01*
X101978806Y-130556000D01*
X103362046Y-131939239D01*
X103687844Y-131771198D01*
X103888627Y-131379393D01*
X104009115Y-130955945D01*
X104044677Y-130517127D01*
X103993947Y-130079803D01*
X103858875Y-129660779D01*
X103687844Y-129340802D01*
X103362046Y-129172761D01*
X101978806Y-130556000D01*
X101619596Y-130556000D01*
X100236356Y-129172761D01*
X99910558Y-129340802D01*
X99709775Y-129732607D01*
X99589287Y-130156055D01*
X99553725Y-130594873D01*
X96164000Y-130594873D01*
X96164000Y-128993155D01*
X100415962Y-128993155D01*
X101799201Y-130376395D01*
X103182440Y-128993155D01*
X103172041Y-128972993D01*
X106101813Y-128972993D01*
X106167338Y-129211860D01*
X106414317Y-129327760D01*
X106679161Y-129393250D01*
X106951693Y-129405812D01*
X107221439Y-129364965D01*
X107478033Y-129272277D01*
X107591064Y-129211860D01*
X107656589Y-128972993D01*
X106879201Y-128195605D01*
X106101813Y-128972993D01*
X103172041Y-128972993D01*
X103014399Y-128667357D01*
X102622594Y-128466574D01*
X102199146Y-128346086D01*
X101760328Y-128310524D01*
X101323004Y-128361254D01*
X100903980Y-128496326D01*
X100584003Y-128667357D01*
X100415962Y-128993155D01*
X96164000Y-128993155D01*
X96164000Y-128088492D01*
X105489389Y-128088492D01*
X105530236Y-128358238D01*
X105622924Y-128614832D01*
X105683341Y-128727863D01*
X105922208Y-128793388D01*
X106699596Y-128016000D01*
X107058806Y-128016000D01*
X107836194Y-128793388D01*
X108075061Y-128727863D01*
X108190961Y-128480884D01*
X108256451Y-128216040D01*
X108269013Y-127943508D01*
X108228166Y-127673762D01*
X108135478Y-127417168D01*
X108075061Y-127304137D01*
X107836194Y-127238612D01*
X107058806Y-128016000D01*
X106699596Y-128016000D01*
X105922208Y-127238612D01*
X105683341Y-127304137D01*
X105567441Y-127551116D01*
X105501951Y-127815960D01*
X105489389Y-128088492D01*
X96164000Y-128088492D01*
X96164000Y-121958845D01*
X100415962Y-121958845D01*
X100584003Y-122284643D01*
X100975808Y-122485426D01*
X101399256Y-122605914D01*
X101838074Y-122641476D01*
X102275398Y-122590746D01*
X102694422Y-122455674D01*
X103014399Y-122284643D01*
X103182440Y-121958845D01*
X101799201Y-120575605D01*
X100415962Y-121958845D01*
X96164000Y-121958845D01*
X96164000Y-120434873D01*
X99553725Y-120434873D01*
X99604455Y-120872197D01*
X99739527Y-121291221D01*
X99910558Y-121611198D01*
X100236356Y-121779239D01*
X101619596Y-120396000D01*
X101978806Y-120396000D01*
X103362046Y-121779239D01*
X103687844Y-121611198D01*
X103888627Y-121219393D01*
X104009115Y-120795945D01*
X104044677Y-120357127D01*
X104042296Y-120336600D01*
X112747628Y-120336600D01*
X112759888Y-120461082D01*
X112796198Y-120580780D01*
X112855163Y-120691094D01*
X112934515Y-120787785D01*
X113031206Y-120867137D01*
X113141520Y-120926102D01*
X113261218Y-120962412D01*
X113385700Y-120974672D01*
X113899950Y-120971600D01*
X114058700Y-120812850D01*
X114058700Y-118713600D01*
X114312700Y-118713600D01*
X114312700Y-120812850D01*
X114471450Y-120971600D01*
X114985700Y-120974672D01*
X115110182Y-120962412D01*
X115229880Y-120926102D01*
X115340194Y-120867137D01*
X115436885Y-120787785D01*
X115516237Y-120691094D01*
X115575202Y-120580780D01*
X115611512Y-120461082D01*
X115623772Y-120336600D01*
X115621740Y-119367900D01*
X117458128Y-119367900D01*
X117461200Y-119669650D01*
X117619950Y-119828400D01*
X118694200Y-119828400D01*
X118694200Y-118891650D01*
X118948200Y-118891650D01*
X118948200Y-119828400D01*
X120022450Y-119828400D01*
X120181200Y-119669650D01*
X120184272Y-119367900D01*
X120172012Y-119243418D01*
X120135702Y-119123720D01*
X120076737Y-119013406D01*
X120069346Y-119004400D01*
X122811928Y-119004400D01*
X122824188Y-119128882D01*
X122860498Y-119248580D01*
X122919463Y-119358894D01*
X122998815Y-119455585D01*
X123095506Y-119534937D01*
X123205820Y-119593902D01*
X123325518Y-119630212D01*
X123450000Y-119642472D01*
X124414250Y-119639400D01*
X124573000Y-119480650D01*
X124573000Y-117881400D01*
X124827000Y-117881400D01*
X124827000Y-119480650D01*
X124985750Y-119639400D01*
X125950000Y-119642472D01*
X126074482Y-119630212D01*
X126194180Y-119593902D01*
X126304494Y-119534937D01*
X126401185Y-119455585D01*
X126480537Y-119358894D01*
X126539502Y-119248580D01*
X126575812Y-119128882D01*
X126588072Y-119004400D01*
X126585000Y-118040150D01*
X126426250Y-117881400D01*
X124827000Y-117881400D01*
X124573000Y-117881400D01*
X122973750Y-117881400D01*
X122815000Y-118040150D01*
X122811928Y-119004400D01*
X120069346Y-119004400D01*
X119997385Y-118916715D01*
X119900694Y-118837363D01*
X119790380Y-118778398D01*
X119670682Y-118742088D01*
X119546200Y-118729828D01*
X119106950Y-118732900D01*
X118948200Y-118891650D01*
X118694200Y-118891650D01*
X118535450Y-118732900D01*
X118096200Y-118729828D01*
X117971718Y-118742088D01*
X117852020Y-118778398D01*
X117741706Y-118837363D01*
X117645015Y-118916715D01*
X117565663Y-119013406D01*
X117506698Y-119123720D01*
X117470388Y-119243418D01*
X117458128Y-119367900D01*
X115621740Y-119367900D01*
X115620700Y-118872350D01*
X115461950Y-118713600D01*
X114312700Y-118713600D01*
X114058700Y-118713600D01*
X112909450Y-118713600D01*
X112750700Y-118872350D01*
X112747628Y-120336600D01*
X104042296Y-120336600D01*
X103993947Y-119919803D01*
X103858875Y-119500779D01*
X103687844Y-119180802D01*
X103362046Y-119012761D01*
X101978806Y-120396000D01*
X101619596Y-120396000D01*
X100236356Y-119012761D01*
X99910558Y-119180802D01*
X99709775Y-119572607D01*
X99589287Y-119996055D01*
X99553725Y-120434873D01*
X96164000Y-120434873D01*
X96164000Y-118833155D01*
X100415962Y-118833155D01*
X101799201Y-120216395D01*
X103182440Y-118833155D01*
X103014399Y-118507357D01*
X102622594Y-118306574D01*
X102199146Y-118186086D01*
X101760328Y-118150524D01*
X101323004Y-118201254D01*
X100903980Y-118336326D01*
X100584003Y-118507357D01*
X100415962Y-118833155D01*
X96164000Y-118833155D01*
X96164000Y-116230000D01*
X113197885Y-116230000D01*
X113141520Y-116247098D01*
G37*
%TD.AperFunction*%
D18*
X130150001Y-123317000D02*
X121000000Y-123317000D01*
X120975224Y-123319440D01*
X120951399Y-123326667D01*
X120929443Y-123338403D01*
X120910197Y-123354197D01*
X120894403Y-123373443D01*
X120882667Y-123395399D01*
X120875440Y-123419224D01*
X120873000Y-123444000D01*
X120873000Y-135165772D01*
X120864482Y-135163188D01*
X120740000Y-135150928D01*
X120300750Y-135154000D01*
X120142000Y-135312750D01*
X120142000Y-136249500D01*
X120162000Y-136249500D01*
X120162000Y-136503500D01*
X120142000Y-136503500D01*
X120142000Y-136523500D01*
X119888000Y-136523500D01*
X119888000Y-136503500D01*
X119868000Y-136503500D01*
X119868000Y-136249500D01*
X119888000Y-136249500D01*
X119888000Y-135312750D01*
X119729250Y-135154000D01*
X119290000Y-135150928D01*
X119165518Y-135163188D01*
X119045820Y-135199498D01*
X118935506Y-135258463D01*
X118852000Y-135326994D01*
X118852000Y-134661868D01*
X118868185Y-134648585D01*
X118947537Y-134551894D01*
X119006502Y-134441580D01*
X119042812Y-134321882D01*
X119055072Y-134197400D01*
X119055072Y-133397400D01*
X119042812Y-133272918D01*
X119006502Y-133153220D01*
X118947537Y-133042906D01*
X118868185Y-132946215D01*
X118852000Y-132932932D01*
X118852000Y-132843578D01*
X118852745Y-132842833D01*
X118886517Y-132815117D01*
X118997111Y-132680359D01*
X119079289Y-132526613D01*
X119129895Y-132359790D01*
X119142700Y-132229777D01*
X119142700Y-132229769D01*
X119146981Y-132186300D01*
X119142700Y-132142831D01*
X119142700Y-131980014D01*
X119201087Y-131948805D01*
X119335662Y-131838362D01*
X119446105Y-131703787D01*
X119528172Y-131550251D01*
X119578708Y-131383655D01*
X119595772Y-131210401D01*
X119595772Y-130510399D01*
X119578708Y-130337145D01*
X119528172Y-130170549D01*
X119446105Y-130017013D01*
X119335662Y-129882438D01*
X119308809Y-129860400D01*
X119335662Y-129838362D01*
X119446105Y-129703787D01*
X119528172Y-129550251D01*
X119578708Y-129383655D01*
X119595772Y-129210401D01*
X119595772Y-128510399D01*
X119578708Y-128337145D01*
X119528172Y-128170549D01*
X119446105Y-128017013D01*
X119335662Y-127882438D01*
X119201087Y-127771995D01*
X119047551Y-127689928D01*
X118880955Y-127639392D01*
X118707701Y-127622328D01*
X117807699Y-127622328D01*
X117634445Y-127639392D01*
X117467849Y-127689928D01*
X117314313Y-127771995D01*
X117179738Y-127882438D01*
X117103446Y-127975400D01*
X115726979Y-127975400D01*
X115070700Y-127319122D01*
X115070700Y-126508543D01*
X115075550Y-126507072D01*
X115229086Y-126425005D01*
X115363662Y-126314562D01*
X115474105Y-126179986D01*
X115556172Y-126026450D01*
X115606708Y-125859854D01*
X115623772Y-125686600D01*
X115623772Y-125071600D01*
X116621531Y-125071600D01*
X116665000Y-125075881D01*
X116708469Y-125071600D01*
X116708477Y-125071600D01*
X116838490Y-125058795D01*
X117005313Y-125008189D01*
X117159059Y-124926011D01*
X117293817Y-124815417D01*
X117321534Y-124781644D01*
X118847207Y-123255972D01*
X119296200Y-123255972D01*
X119469454Y-123238908D01*
X119636050Y-123188372D01*
X119789586Y-123106305D01*
X119924162Y-122995862D01*
X119990195Y-122915400D01*
X121200600Y-122915400D01*
X121213110Y-122919195D01*
X121343123Y-122932000D01*
X121343131Y-122932000D01*
X121386600Y-122936281D01*
X121430069Y-122932000D01*
X127709531Y-122932000D01*
X127753000Y-122936281D01*
X127796469Y-122932000D01*
X127796477Y-122932000D01*
X127926490Y-122919195D01*
X128093313Y-122868589D01*
X128247059Y-122786411D01*
X128381817Y-122675817D01*
X128409534Y-122642044D01*
X129115049Y-121936530D01*
X129148817Y-121908817D01*
X129183852Y-121866128D01*
X129259411Y-121774059D01*
X129341589Y-121620313D01*
X129392195Y-121453490D01*
X129405000Y-121323477D01*
X129405000Y-121323469D01*
X129409281Y-121280000D01*
X129405000Y-121236531D01*
X129405000Y-119638072D01*
X129770000Y-119638072D01*
X129894482Y-119625812D01*
X130014180Y-119589502D01*
X130124494Y-119530537D01*
X130150001Y-119509604D01*
X130150001Y-123317000D01*
%TA.AperFunction,Conductor*%
D19*
G36*
X130150001Y-123317000D02*
G01*
X121000000Y-123317000D01*
X120975224Y-123319440D01*
X120951399Y-123326667D01*
X120929443Y-123338403D01*
X120910197Y-123354197D01*
X120894403Y-123373443D01*
X120882667Y-123395399D01*
X120875440Y-123419224D01*
X120873000Y-123444000D01*
X120873000Y-135165772D01*
X120864482Y-135163188D01*
X120740000Y-135150928D01*
X120300750Y-135154000D01*
X120142000Y-135312750D01*
X120142000Y-136249500D01*
X120162000Y-136249500D01*
X120162000Y-136503500D01*
X120142000Y-136503500D01*
X120142000Y-136523500D01*
X119888000Y-136523500D01*
X119888000Y-136503500D01*
X119868000Y-136503500D01*
X119868000Y-136249500D01*
X119888000Y-136249500D01*
X119888000Y-135312750D01*
X119729250Y-135154000D01*
X119290000Y-135150928D01*
X119165518Y-135163188D01*
X119045820Y-135199498D01*
X118935506Y-135258463D01*
X118852000Y-135326994D01*
X118852000Y-134661868D01*
X118868185Y-134648585D01*
X118947537Y-134551894D01*
X119006502Y-134441580D01*
X119042812Y-134321882D01*
X119055072Y-134197400D01*
X119055072Y-133397400D01*
X119042812Y-133272918D01*
X119006502Y-133153220D01*
X118947537Y-133042906D01*
X118868185Y-132946215D01*
X118852000Y-132932932D01*
X118852000Y-132843578D01*
X118852745Y-132842833D01*
X118886517Y-132815117D01*
X118997111Y-132680359D01*
X119079289Y-132526613D01*
X119129895Y-132359790D01*
X119142700Y-132229777D01*
X119142700Y-132229769D01*
X119146981Y-132186300D01*
X119142700Y-132142831D01*
X119142700Y-131980014D01*
X119201087Y-131948805D01*
X119335662Y-131838362D01*
X119446105Y-131703787D01*
X119528172Y-131550251D01*
X119578708Y-131383655D01*
X119595772Y-131210401D01*
X119595772Y-130510399D01*
X119578708Y-130337145D01*
X119528172Y-130170549D01*
X119446105Y-130017013D01*
X119335662Y-129882438D01*
X119308809Y-129860400D01*
X119335662Y-129838362D01*
X119446105Y-129703787D01*
X119528172Y-129550251D01*
X119578708Y-129383655D01*
X119595772Y-129210401D01*
X119595772Y-128510399D01*
X119578708Y-128337145D01*
X119528172Y-128170549D01*
X119446105Y-128017013D01*
X119335662Y-127882438D01*
X119201087Y-127771995D01*
X119047551Y-127689928D01*
X118880955Y-127639392D01*
X118707701Y-127622328D01*
X117807699Y-127622328D01*
X117634445Y-127639392D01*
X117467849Y-127689928D01*
X117314313Y-127771995D01*
X117179738Y-127882438D01*
X117103446Y-127975400D01*
X115726979Y-127975400D01*
X115070700Y-127319122D01*
X115070700Y-126508543D01*
X115075550Y-126507072D01*
X115229086Y-126425005D01*
X115363662Y-126314562D01*
X115474105Y-126179986D01*
X115556172Y-126026450D01*
X115606708Y-125859854D01*
X115623772Y-125686600D01*
X115623772Y-125071600D01*
X116621531Y-125071600D01*
X116665000Y-125075881D01*
X116708469Y-125071600D01*
X116708477Y-125071600D01*
X116838490Y-125058795D01*
X117005313Y-125008189D01*
X117159059Y-124926011D01*
X117293817Y-124815417D01*
X117321534Y-124781644D01*
X118847207Y-123255972D01*
X119296200Y-123255972D01*
X119469454Y-123238908D01*
X119636050Y-123188372D01*
X119789586Y-123106305D01*
X119924162Y-122995862D01*
X119990195Y-122915400D01*
X121200600Y-122915400D01*
X121213110Y-122919195D01*
X121343123Y-122932000D01*
X121343131Y-122932000D01*
X121386600Y-122936281D01*
X121430069Y-122932000D01*
X127709531Y-122932000D01*
X127753000Y-122936281D01*
X127796469Y-122932000D01*
X127796477Y-122932000D01*
X127926490Y-122919195D01*
X128093313Y-122868589D01*
X128247059Y-122786411D01*
X128381817Y-122675817D01*
X128409534Y-122642044D01*
X129115049Y-121936530D01*
X129148817Y-121908817D01*
X129183852Y-121866128D01*
X129259411Y-121774059D01*
X129341589Y-121620313D01*
X129392195Y-121453490D01*
X129405000Y-121323477D01*
X129405000Y-121323469D01*
X129409281Y-121280000D01*
X129405000Y-121236531D01*
X129405000Y-119638072D01*
X129770000Y-119638072D01*
X129894482Y-119625812D01*
X130014180Y-119589502D01*
X130124494Y-119530537D01*
X130150001Y-119509604D01*
X130150001Y-123317000D01*
G37*
%TD.AperFunction*%
%TD*%
D18*
%TO.N,GND*%
X117098001Y-138393620D02*
X116803622Y-138688000D01*
X112133665Y-138688000D01*
X112090199Y-138683719D01*
X112046733Y-138688000D01*
X112046723Y-138688000D01*
X111916710Y-138700805D01*
X111749887Y-138751411D01*
X111596141Y-138833589D01*
X111461383Y-138944183D01*
X111433668Y-138977954D01*
X111012556Y-139399066D01*
X110978783Y-139426783D01*
X110868189Y-139561542D01*
X110786011Y-139715288D01*
X110735405Y-139882111D01*
X110722600Y-140012124D01*
X110722600Y-140012131D01*
X110718319Y-140055600D01*
X110722600Y-140099069D01*
X110722601Y-142044121D01*
X110718319Y-142087600D01*
X110735405Y-142261090D01*
X110786012Y-142427913D01*
X110868190Y-142581659D01*
X110951068Y-142682646D01*
X110951071Y-142682649D01*
X110978784Y-142716417D01*
X111012552Y-142744130D01*
X111484466Y-143216044D01*
X111512183Y-143249817D01*
X111545954Y-143277532D01*
X111646941Y-143360411D01*
X111800686Y-143442589D01*
X111967510Y-143493195D01*
X112097523Y-143506000D01*
X112097531Y-143506000D01*
X112141000Y-143510281D01*
X112184469Y-143506000D01*
X112378627Y-143506000D01*
X112433820Y-143535502D01*
X112553518Y-143571812D01*
X112678000Y-143584072D01*
X113605000Y-143584072D01*
X113605000Y-143698000D01*
X113585000Y-143698000D01*
X113585000Y-144372250D01*
X113743750Y-144531000D01*
X114238000Y-144534072D01*
X114362482Y-144521812D01*
X114482180Y-144485502D01*
X114592494Y-144426537D01*
X114689185Y-144347185D01*
X114768537Y-144250494D01*
X114808000Y-144176665D01*
X114847463Y-144250494D01*
X114926815Y-144347185D01*
X115023506Y-144426537D01*
X115133820Y-144485502D01*
X115253518Y-144521812D01*
X115273001Y-144523731D01*
X115273001Y-144943521D01*
X115268719Y-144987000D01*
X115285805Y-145160490D01*
X115336412Y-145327313D01*
X115418590Y-145481059D01*
X115501468Y-145582046D01*
X115501471Y-145582049D01*
X115529184Y-145615817D01*
X115562951Y-145643529D01*
X116437470Y-146518049D01*
X116449740Y-146533000D01*
X110388000Y-146533000D01*
X110388000Y-144050419D01*
X110391193Y-144018000D01*
X110379178Y-143896000D01*
X112039928Y-143896000D01*
X112052188Y-144020482D01*
X112088498Y-144140180D01*
X112147463Y-144250494D01*
X112226815Y-144347185D01*
X112323506Y-144426537D01*
X112433820Y-144485502D01*
X112553518Y-144521812D01*
X112678000Y-144534072D01*
X113172250Y-144531000D01*
X113331000Y-144372250D01*
X113331000Y-143698000D01*
X112201750Y-143698000D01*
X112043000Y-143856750D01*
X112039928Y-143896000D01*
X110379178Y-143896000D01*
X110378450Y-143888617D01*
X110363000Y-143837686D01*
X110363000Y-137922000D01*
X117098001Y-137922000D01*
X117098001Y-138393620D01*
%TA.AperFunction,Conductor*%
D19*
G36*
X117098001Y-138393620D02*
G01*
X116803622Y-138688000D01*
X112133665Y-138688000D01*
X112090199Y-138683719D01*
X112046733Y-138688000D01*
X112046723Y-138688000D01*
X111916710Y-138700805D01*
X111749887Y-138751411D01*
X111596141Y-138833589D01*
X111461383Y-138944183D01*
X111433668Y-138977954D01*
X111012556Y-139399066D01*
X110978783Y-139426783D01*
X110868189Y-139561542D01*
X110786011Y-139715288D01*
X110735405Y-139882111D01*
X110722600Y-140012124D01*
X110722600Y-140012131D01*
X110718319Y-140055600D01*
X110722600Y-140099069D01*
X110722601Y-142044121D01*
X110718319Y-142087600D01*
X110735405Y-142261090D01*
X110786012Y-142427913D01*
X110868190Y-142581659D01*
X110951068Y-142682646D01*
X110951071Y-142682649D01*
X110978784Y-142716417D01*
X111012552Y-142744130D01*
X111484466Y-143216044D01*
X111512183Y-143249817D01*
X111545954Y-143277532D01*
X111646941Y-143360411D01*
X111800686Y-143442589D01*
X111967510Y-143493195D01*
X112097523Y-143506000D01*
X112097531Y-143506000D01*
X112141000Y-143510281D01*
X112184469Y-143506000D01*
X112378627Y-143506000D01*
X112433820Y-143535502D01*
X112553518Y-143571812D01*
X112678000Y-143584072D01*
X113605000Y-143584072D01*
X113605000Y-143698000D01*
X113585000Y-143698000D01*
X113585000Y-144372250D01*
X113743750Y-144531000D01*
X114238000Y-144534072D01*
X114362482Y-144521812D01*
X114482180Y-144485502D01*
X114592494Y-144426537D01*
X114689185Y-144347185D01*
X114768537Y-144250494D01*
X114808000Y-144176665D01*
X114847463Y-144250494D01*
X114926815Y-144347185D01*
X115023506Y-144426537D01*
X115133820Y-144485502D01*
X115253518Y-144521812D01*
X115273001Y-144523731D01*
X115273001Y-144943521D01*
X115268719Y-144987000D01*
X115285805Y-145160490D01*
X115336412Y-145327313D01*
X115418590Y-145481059D01*
X115501468Y-145582046D01*
X115501471Y-145582049D01*
X115529184Y-145615817D01*
X115562951Y-145643529D01*
X116437470Y-146518049D01*
X116449740Y-146533000D01*
X110388000Y-146533000D01*
X110388000Y-144050419D01*
X110391193Y-144018000D01*
X110379178Y-143896000D01*
X112039928Y-143896000D01*
X112052188Y-144020482D01*
X112088498Y-144140180D01*
X112147463Y-144250494D01*
X112226815Y-144347185D01*
X112323506Y-144426537D01*
X112433820Y-144485502D01*
X112553518Y-144521812D01*
X112678000Y-144534072D01*
X113172250Y-144531000D01*
X113331000Y-144372250D01*
X113331000Y-143698000D01*
X112201750Y-143698000D01*
X112043000Y-143856750D01*
X112039928Y-143896000D01*
X110379178Y-143896000D01*
X110378450Y-143888617D01*
X110363000Y-143837686D01*
X110363000Y-137922000D01*
X117098001Y-137922000D01*
X117098001Y-138393620D01*
G37*
%TD.AperFunction*%
D18*
X128147000Y-133589579D02*
X128147000Y-135017928D01*
X127782000Y-135017928D01*
X127657518Y-135030188D01*
X127537820Y-135066498D01*
X127427506Y-135125463D01*
X127330815Y-135204815D01*
X127251463Y-135301506D01*
X127192498Y-135411820D01*
X127156188Y-135531518D01*
X127143928Y-135656000D01*
X127143928Y-138156000D01*
X127156188Y-138280482D01*
X127192498Y-138400180D01*
X127251463Y-138510494D01*
X127330815Y-138607185D01*
X127427506Y-138686537D01*
X127537820Y-138745502D01*
X127544407Y-138747500D01*
X127537820Y-138749498D01*
X127427506Y-138808463D01*
X127330815Y-138887815D01*
X127251463Y-138984506D01*
X127192498Y-139094820D01*
X127156188Y-139214518D01*
X127143928Y-139339000D01*
X127147000Y-140303250D01*
X127305750Y-140462000D01*
X128905000Y-140462000D01*
X128905000Y-140442000D01*
X129159000Y-140442000D01*
X129159000Y-140462000D01*
X129179000Y-140462000D01*
X129179000Y-140716000D01*
X129159000Y-140716000D01*
X129159000Y-140736000D01*
X128905000Y-140736000D01*
X128905000Y-140716000D01*
X127305750Y-140716000D01*
X127147000Y-140874750D01*
X127143928Y-141839000D01*
X127156188Y-141963482D01*
X127192498Y-142083180D01*
X127251463Y-142193494D01*
X127330815Y-142290185D01*
X127427506Y-142369537D01*
X127537820Y-142428502D01*
X127544407Y-142430500D01*
X127537820Y-142432498D01*
X127427506Y-142491463D01*
X127330815Y-142570815D01*
X127251463Y-142667506D01*
X127192498Y-142777820D01*
X127156188Y-142897518D01*
X127143928Y-143022000D01*
X127143928Y-143387000D01*
X125036869Y-143387000D01*
X124993400Y-143382719D01*
X124949931Y-143387000D01*
X124949923Y-143387000D01*
X124819910Y-143399805D01*
X124653086Y-143450411D01*
X124499341Y-143532589D01*
X124398353Y-143615468D01*
X124398351Y-143615470D01*
X124364583Y-143643183D01*
X124336870Y-143676951D01*
X122975822Y-145038000D01*
X121626614Y-145038000D01*
X121595405Y-144979613D01*
X121484962Y-144845038D01*
X121350387Y-144734595D01*
X121196851Y-144652528D01*
X121030255Y-144601992D01*
X120857001Y-144584928D01*
X120156999Y-144584928D01*
X119983745Y-144601992D01*
X119835370Y-144647001D01*
X119873537Y-144600494D01*
X119932502Y-144490180D01*
X119968812Y-144370482D01*
X119981072Y-144246000D01*
X119978000Y-143944250D01*
X119819250Y-143785500D01*
X118745000Y-143785500D01*
X118745000Y-143805500D01*
X118491000Y-143805500D01*
X118491000Y-143785500D01*
X118471000Y-143785500D01*
X118471000Y-143531500D01*
X118491000Y-143531500D01*
X118491000Y-143511500D01*
X118745000Y-143511500D01*
X118745000Y-143531500D01*
X119819250Y-143531500D01*
X119978000Y-143372750D01*
X119981072Y-143071000D01*
X119968812Y-142946518D01*
X119932502Y-142826820D01*
X119873537Y-142716506D01*
X119794185Y-142619815D01*
X119714406Y-142554342D01*
X119720962Y-142548962D01*
X119786995Y-142468500D01*
X122279031Y-142468500D01*
X122322500Y-142472781D01*
X122365969Y-142468500D01*
X122365977Y-142468500D01*
X122495990Y-142455695D01*
X122662813Y-142405089D01*
X122816559Y-142322911D01*
X122951317Y-142212317D01*
X122979034Y-142178544D01*
X124801050Y-140356529D01*
X124834817Y-140328817D01*
X124945411Y-140194059D01*
X125027589Y-140040313D01*
X125078195Y-139873490D01*
X125091000Y-139743477D01*
X125091000Y-139743467D01*
X125095281Y-139700001D01*
X125091000Y-139656535D01*
X125091000Y-134477939D01*
X125187038Y-134594962D01*
X125321614Y-134705405D01*
X125475150Y-134787472D01*
X125641746Y-134838008D01*
X125815000Y-134855072D01*
X126915000Y-134855072D01*
X127088254Y-134838008D01*
X127254850Y-134787472D01*
X127408386Y-134705405D01*
X127542962Y-134594962D01*
X127653405Y-134460386D01*
X127735472Y-134306850D01*
X127786008Y-134140254D01*
X127803072Y-133967000D01*
X127803072Y-133352000D01*
X127909422Y-133352000D01*
X128147000Y-133589579D01*
%TA.AperFunction,Conductor*%
D19*
G36*
X128147000Y-133589579D02*
G01*
X128147000Y-135017928D01*
X127782000Y-135017928D01*
X127657518Y-135030188D01*
X127537820Y-135066498D01*
X127427506Y-135125463D01*
X127330815Y-135204815D01*
X127251463Y-135301506D01*
X127192498Y-135411820D01*
X127156188Y-135531518D01*
X127143928Y-135656000D01*
X127143928Y-138156000D01*
X127156188Y-138280482D01*
X127192498Y-138400180D01*
X127251463Y-138510494D01*
X127330815Y-138607185D01*
X127427506Y-138686537D01*
X127537820Y-138745502D01*
X127544407Y-138747500D01*
X127537820Y-138749498D01*
X127427506Y-138808463D01*
X127330815Y-138887815D01*
X127251463Y-138984506D01*
X127192498Y-139094820D01*
X127156188Y-139214518D01*
X127143928Y-139339000D01*
X127147000Y-140303250D01*
X127305750Y-140462000D01*
X128905000Y-140462000D01*
X128905000Y-140442000D01*
X129159000Y-140442000D01*
X129159000Y-140462000D01*
X129179000Y-140462000D01*
X129179000Y-140716000D01*
X129159000Y-140716000D01*
X129159000Y-140736000D01*
X128905000Y-140736000D01*
X128905000Y-140716000D01*
X127305750Y-140716000D01*
X127147000Y-140874750D01*
X127143928Y-141839000D01*
X127156188Y-141963482D01*
X127192498Y-142083180D01*
X127251463Y-142193494D01*
X127330815Y-142290185D01*
X127427506Y-142369537D01*
X127537820Y-142428502D01*
X127544407Y-142430500D01*
X127537820Y-142432498D01*
X127427506Y-142491463D01*
X127330815Y-142570815D01*
X127251463Y-142667506D01*
X127192498Y-142777820D01*
X127156188Y-142897518D01*
X127143928Y-143022000D01*
X127143928Y-143387000D01*
X125036869Y-143387000D01*
X124993400Y-143382719D01*
X124949931Y-143387000D01*
X124949923Y-143387000D01*
X124819910Y-143399805D01*
X124653086Y-143450411D01*
X124499341Y-143532589D01*
X124398353Y-143615468D01*
X124398351Y-143615470D01*
X124364583Y-143643183D01*
X124336870Y-143676951D01*
X122975822Y-145038000D01*
X121626614Y-145038000D01*
X121595405Y-144979613D01*
X121484962Y-144845038D01*
X121350387Y-144734595D01*
X121196851Y-144652528D01*
X121030255Y-144601992D01*
X120857001Y-144584928D01*
X120156999Y-144584928D01*
X119983745Y-144601992D01*
X119835370Y-144647001D01*
X119873537Y-144600494D01*
X119932502Y-144490180D01*
X119968812Y-144370482D01*
X119981072Y-144246000D01*
X119978000Y-143944250D01*
X119819250Y-143785500D01*
X118745000Y-143785500D01*
X118745000Y-143805500D01*
X118491000Y-143805500D01*
X118491000Y-143785500D01*
X118471000Y-143785500D01*
X118471000Y-143531500D01*
X118491000Y-143531500D01*
X118491000Y-143511500D01*
X118745000Y-143511500D01*
X118745000Y-143531500D01*
X119819250Y-143531500D01*
X119978000Y-143372750D01*
X119981072Y-143071000D01*
X119968812Y-142946518D01*
X119932502Y-142826820D01*
X119873537Y-142716506D01*
X119794185Y-142619815D01*
X119714406Y-142554342D01*
X119720962Y-142548962D01*
X119786995Y-142468500D01*
X122279031Y-142468500D01*
X122322500Y-142472781D01*
X122365969Y-142468500D01*
X122365977Y-142468500D01*
X122495990Y-142455695D01*
X122662813Y-142405089D01*
X122816559Y-142322911D01*
X122951317Y-142212317D01*
X122979034Y-142178544D01*
X124801050Y-140356529D01*
X124834817Y-140328817D01*
X124945411Y-140194059D01*
X125027589Y-140040313D01*
X125078195Y-139873490D01*
X125091000Y-139743477D01*
X125091000Y-139743467D01*
X125095281Y-139700001D01*
X125091000Y-139656535D01*
X125091000Y-134477939D01*
X125187038Y-134594962D01*
X125321614Y-134705405D01*
X125475150Y-134787472D01*
X125641746Y-134838008D01*
X125815000Y-134855072D01*
X126915000Y-134855072D01*
X127088254Y-134838008D01*
X127254850Y-134787472D01*
X127408386Y-134705405D01*
X127542962Y-134594962D01*
X127653405Y-134460386D01*
X127735472Y-134306850D01*
X127786008Y-134140254D01*
X127803072Y-133967000D01*
X127803072Y-133352000D01*
X127909422Y-133352000D01*
X128147000Y-133589579D01*
G37*
%TD.AperFunction*%
D18*
X125113815Y-124665815D02*
X125034463Y-124762506D01*
X124975498Y-124872820D01*
X124939188Y-124992518D01*
X124926928Y-125117000D01*
X124930000Y-126581250D01*
X125088750Y-126740000D01*
X126238000Y-126740000D01*
X126238000Y-126720000D01*
X126492000Y-126720000D01*
X126492000Y-126740000D01*
X127641250Y-126740000D01*
X127800000Y-126581250D01*
X127803072Y-125117000D01*
X127790812Y-124992518D01*
X127754502Y-124872820D01*
X127695537Y-124762506D01*
X127616185Y-124665815D01*
X127520148Y-124587000D01*
X130150001Y-124587000D01*
X130150000Y-135017928D01*
X129917000Y-135017928D01*
X129917000Y-133266465D01*
X129921281Y-133222999D01*
X129917000Y-133179533D01*
X129917000Y-133179523D01*
X129904195Y-133049510D01*
X129853589Y-132882687D01*
X129771411Y-132728941D01*
X129747210Y-132699452D01*
X129688532Y-132627953D01*
X129688530Y-132627951D01*
X129660817Y-132594183D01*
X129627050Y-132566471D01*
X128932534Y-131871956D01*
X128904817Y-131838183D01*
X128770059Y-131727589D01*
X128616313Y-131645411D01*
X128449490Y-131594805D01*
X128319477Y-131582000D01*
X128319469Y-131582000D01*
X128276000Y-131577719D01*
X128232531Y-131582000D01*
X127803072Y-131582000D01*
X127803072Y-130967000D01*
X127786008Y-130793746D01*
X127735472Y-130627150D01*
X127653405Y-130473614D01*
X127542962Y-130339038D01*
X127408386Y-130228595D01*
X127254850Y-130146528D01*
X127088254Y-130095992D01*
X126915000Y-130078928D01*
X125815000Y-130078928D01*
X125641746Y-130095992D01*
X125475150Y-130146528D01*
X125321614Y-130228595D01*
X125187038Y-130339038D01*
X125076595Y-130473614D01*
X124994528Y-130627150D01*
X124943992Y-130793746D01*
X124926928Y-130967000D01*
X124926928Y-131593680D01*
X124915510Y-131594805D01*
X124748686Y-131645411D01*
X124594941Y-131727589D01*
X124493953Y-131810468D01*
X124493951Y-131810470D01*
X124460183Y-131838183D01*
X124432470Y-131871951D01*
X123610951Y-132693471D01*
X123577184Y-132721183D01*
X123549471Y-132754951D01*
X123549468Y-132754954D01*
X123466590Y-132855941D01*
X123384412Y-133009687D01*
X123333805Y-133176510D01*
X123316719Y-133350000D01*
X123321001Y-133393479D01*
X123321000Y-139333421D01*
X121955922Y-140698500D01*
X119786995Y-140698500D01*
X119720962Y-140618038D01*
X119586386Y-140507595D01*
X119432850Y-140425528D01*
X119266254Y-140374992D01*
X119093000Y-140357928D01*
X118143000Y-140357928D01*
X117969746Y-140374992D01*
X117803150Y-140425528D01*
X117649614Y-140507595D01*
X117515038Y-140618038D01*
X117449005Y-140698500D01*
X117438369Y-140698500D01*
X117394900Y-140694219D01*
X117351431Y-140698500D01*
X117351423Y-140698500D01*
X117221410Y-140711305D01*
X117127305Y-140739852D01*
X117062482Y-140720188D01*
X116938000Y-140707928D01*
X115378000Y-140707928D01*
X115253518Y-140720188D01*
X115133820Y-140756498D01*
X115023506Y-140815463D01*
X114926815Y-140894815D01*
X114847463Y-140991506D01*
X114808000Y-141065335D01*
X114768537Y-140991506D01*
X114689185Y-140894815D01*
X114592494Y-140815463D01*
X114482180Y-140756498D01*
X114362482Y-140720188D01*
X114238000Y-140707928D01*
X112678000Y-140707928D01*
X112553518Y-140720188D01*
X112492600Y-140738667D01*
X112492600Y-140458000D01*
X117126731Y-140458000D01*
X117170200Y-140462281D01*
X117213669Y-140458000D01*
X117213677Y-140458000D01*
X117343690Y-140445195D01*
X117510513Y-140394589D01*
X117664259Y-140312411D01*
X117799017Y-140201817D01*
X117826734Y-140168044D01*
X118578049Y-139416730D01*
X118611817Y-139389017D01*
X118652866Y-139339000D01*
X118700006Y-139281559D01*
X118700498Y-139283180D01*
X118759463Y-139393494D01*
X118838815Y-139490185D01*
X118935506Y-139569537D01*
X119045820Y-139628502D01*
X119165518Y-139664812D01*
X119290000Y-139677072D01*
X119729250Y-139674000D01*
X119888000Y-139515250D01*
X119888000Y-138578500D01*
X120142000Y-138578500D01*
X120142000Y-139515250D01*
X120300750Y-139674000D01*
X120740000Y-139677072D01*
X120864482Y-139664812D01*
X120984180Y-139628502D01*
X121094494Y-139569537D01*
X121191185Y-139490185D01*
X121270537Y-139393494D01*
X121329502Y-139283180D01*
X121365812Y-139163482D01*
X121378072Y-139039000D01*
X121375000Y-138737250D01*
X121216250Y-138578500D01*
X120142000Y-138578500D01*
X119888000Y-138578500D01*
X119868000Y-138578500D01*
X119868000Y-138324500D01*
X119888000Y-138324500D01*
X119888000Y-138304500D01*
X120142000Y-138304500D01*
X120142000Y-138324500D01*
X121216250Y-138324500D01*
X121375000Y-138165750D01*
X121377482Y-137922000D01*
X121800000Y-137922000D01*
X121824776Y-137919560D01*
X121848601Y-137912333D01*
X121870557Y-137900597D01*
X121889803Y-137884803D01*
X121905597Y-137865557D01*
X121917333Y-137843601D01*
X121924560Y-137819776D01*
X121927000Y-137795000D01*
X121927000Y-128617000D01*
X124926928Y-128617000D01*
X124939188Y-128741482D01*
X124975498Y-128861180D01*
X125034463Y-128971494D01*
X125113815Y-129068185D01*
X125210506Y-129147537D01*
X125320820Y-129206502D01*
X125440518Y-129242812D01*
X125565000Y-129255072D01*
X126079250Y-129252000D01*
X126238000Y-129093250D01*
X126238000Y-126994000D01*
X126492000Y-126994000D01*
X126492000Y-129093250D01*
X126650750Y-129252000D01*
X127165000Y-129255072D01*
X127289482Y-129242812D01*
X127409180Y-129206502D01*
X127519494Y-129147537D01*
X127616185Y-129068185D01*
X127695537Y-128971494D01*
X127754502Y-128861180D01*
X127790812Y-128741482D01*
X127803072Y-128617000D01*
X127800000Y-127152750D01*
X127641250Y-126994000D01*
X126492000Y-126994000D01*
X126238000Y-126994000D01*
X125088750Y-126994000D01*
X124930000Y-127152750D01*
X124926928Y-128617000D01*
X121927000Y-128617000D01*
X121927000Y-124587000D01*
X125209852Y-124587000D01*
X125113815Y-124665815D01*
%TA.AperFunction,Conductor*%
D19*
G36*
X125113815Y-124665815D02*
G01*
X125034463Y-124762506D01*
X124975498Y-124872820D01*
X124939188Y-124992518D01*
X124926928Y-125117000D01*
X124930000Y-126581250D01*
X125088750Y-126740000D01*
X126238000Y-126740000D01*
X126238000Y-126720000D01*
X126492000Y-126720000D01*
X126492000Y-126740000D01*
X127641250Y-126740000D01*
X127800000Y-126581250D01*
X127803072Y-125117000D01*
X127790812Y-124992518D01*
X127754502Y-124872820D01*
X127695537Y-124762506D01*
X127616185Y-124665815D01*
X127520148Y-124587000D01*
X130150001Y-124587000D01*
X130150000Y-135017928D01*
X129917000Y-135017928D01*
X129917000Y-133266465D01*
X129921281Y-133222999D01*
X129917000Y-133179533D01*
X129917000Y-133179523D01*
X129904195Y-133049510D01*
X129853589Y-132882687D01*
X129771411Y-132728941D01*
X129747210Y-132699452D01*
X129688532Y-132627953D01*
X129688530Y-132627951D01*
X129660817Y-132594183D01*
X129627050Y-132566471D01*
X128932534Y-131871956D01*
X128904817Y-131838183D01*
X128770059Y-131727589D01*
X128616313Y-131645411D01*
X128449490Y-131594805D01*
X128319477Y-131582000D01*
X128319469Y-131582000D01*
X128276000Y-131577719D01*
X128232531Y-131582000D01*
X127803072Y-131582000D01*
X127803072Y-130967000D01*
X127786008Y-130793746D01*
X127735472Y-130627150D01*
X127653405Y-130473614D01*
X127542962Y-130339038D01*
X127408386Y-130228595D01*
X127254850Y-130146528D01*
X127088254Y-130095992D01*
X126915000Y-130078928D01*
X125815000Y-130078928D01*
X125641746Y-130095992D01*
X125475150Y-130146528D01*
X125321614Y-130228595D01*
X125187038Y-130339038D01*
X125076595Y-130473614D01*
X124994528Y-130627150D01*
X124943992Y-130793746D01*
X124926928Y-130967000D01*
X124926928Y-131593680D01*
X124915510Y-131594805D01*
X124748686Y-131645411D01*
X124594941Y-131727589D01*
X124493953Y-131810468D01*
X124493951Y-131810470D01*
X124460183Y-131838183D01*
X124432470Y-131871951D01*
X123610951Y-132693471D01*
X123577184Y-132721183D01*
X123549471Y-132754951D01*
X123549468Y-132754954D01*
X123466590Y-132855941D01*
X123384412Y-133009687D01*
X123333805Y-133176510D01*
X123316719Y-133350000D01*
X123321001Y-133393479D01*
X123321000Y-139333421D01*
X121955922Y-140698500D01*
X119786995Y-140698500D01*
X119720962Y-140618038D01*
X119586386Y-140507595D01*
X119432850Y-140425528D01*
X119266254Y-140374992D01*
X119093000Y-140357928D01*
X118143000Y-140357928D01*
X117969746Y-140374992D01*
X117803150Y-140425528D01*
X117649614Y-140507595D01*
X117515038Y-140618038D01*
X117449005Y-140698500D01*
X117438369Y-140698500D01*
X117394900Y-140694219D01*
X117351431Y-140698500D01*
X117351423Y-140698500D01*
X117221410Y-140711305D01*
X117127305Y-140739852D01*
X117062482Y-140720188D01*
X116938000Y-140707928D01*
X115378000Y-140707928D01*
X115253518Y-140720188D01*
X115133820Y-140756498D01*
X115023506Y-140815463D01*
X114926815Y-140894815D01*
X114847463Y-140991506D01*
X114808000Y-141065335D01*
X114768537Y-140991506D01*
X114689185Y-140894815D01*
X114592494Y-140815463D01*
X114482180Y-140756498D01*
X114362482Y-140720188D01*
X114238000Y-140707928D01*
X112678000Y-140707928D01*
X112553518Y-140720188D01*
X112492600Y-140738667D01*
X112492600Y-140458000D01*
X117126731Y-140458000D01*
X117170200Y-140462281D01*
X117213669Y-140458000D01*
X117213677Y-140458000D01*
X117343690Y-140445195D01*
X117510513Y-140394589D01*
X117664259Y-140312411D01*
X117799017Y-140201817D01*
X117826734Y-140168044D01*
X118578049Y-139416730D01*
X118611817Y-139389017D01*
X118652866Y-139339000D01*
X118700006Y-139281559D01*
X118700498Y-139283180D01*
X118759463Y-139393494D01*
X118838815Y-139490185D01*
X118935506Y-139569537D01*
X119045820Y-139628502D01*
X119165518Y-139664812D01*
X119290000Y-139677072D01*
X119729250Y-139674000D01*
X119888000Y-139515250D01*
X119888000Y-138578500D01*
X120142000Y-138578500D01*
X120142000Y-139515250D01*
X120300750Y-139674000D01*
X120740000Y-139677072D01*
X120864482Y-139664812D01*
X120984180Y-139628502D01*
X121094494Y-139569537D01*
X121191185Y-139490185D01*
X121270537Y-139393494D01*
X121329502Y-139283180D01*
X121365812Y-139163482D01*
X121378072Y-139039000D01*
X121375000Y-138737250D01*
X121216250Y-138578500D01*
X120142000Y-138578500D01*
X119888000Y-138578500D01*
X119868000Y-138578500D01*
X119868000Y-138324500D01*
X119888000Y-138324500D01*
X119888000Y-138304500D01*
X120142000Y-138304500D01*
X120142000Y-138324500D01*
X121216250Y-138324500D01*
X121375000Y-138165750D01*
X121377482Y-137922000D01*
X121800000Y-137922000D01*
X121824776Y-137919560D01*
X121848601Y-137912333D01*
X121870557Y-137900597D01*
X121889803Y-137884803D01*
X121905597Y-137865557D01*
X121917333Y-137843601D01*
X121924560Y-137819776D01*
X121927000Y-137795000D01*
X121927000Y-128617000D01*
X124926928Y-128617000D01*
X124939188Y-128741482D01*
X124975498Y-128861180D01*
X125034463Y-128971494D01*
X125113815Y-129068185D01*
X125210506Y-129147537D01*
X125320820Y-129206502D01*
X125440518Y-129242812D01*
X125565000Y-129255072D01*
X126079250Y-129252000D01*
X126238000Y-129093250D01*
X126238000Y-126994000D01*
X126492000Y-126994000D01*
X126492000Y-129093250D01*
X126650750Y-129252000D01*
X127165000Y-129255072D01*
X127289482Y-129242812D01*
X127409180Y-129206502D01*
X127519494Y-129147537D01*
X127616185Y-129068185D01*
X127695537Y-128971494D01*
X127754502Y-128861180D01*
X127790812Y-128741482D01*
X127803072Y-128617000D01*
X127800000Y-127152750D01*
X127641250Y-126994000D01*
X126492000Y-126994000D01*
X126238000Y-126994000D01*
X125088750Y-126994000D01*
X124930000Y-127152750D01*
X124926928Y-128617000D01*
X121927000Y-128617000D01*
X121927000Y-124587000D01*
X125209852Y-124587000D01*
X125113815Y-124665815D01*
G37*
%TD.AperFunction*%
%TD*%
M02*
